<svg width="166" height="166" viewBox="0 0 166 166" fill="none" xmlns="http://www.w3.org/2000/svg">
<path d="M20.6047 63.1845L21.4845 62.7093L21.4845 62.7093L20.6047 63.1845ZM19.3453 59.3647C18.8162 59.2067 18.259 59.5075 18.101 60.0367L15.5256 68.6604C15.3676 69.1896 15.6684 69.7467 16.1976 69.9047C16.7268 70.0628 17.2839 69.7619 17.442 69.2327L19.7312 61.5672L27.3967 63.8565C27.9259 64.0145 28.483 63.7136 28.641 63.1844C28.7991 62.6553 28.4982 62.0981 27.969 61.9401L19.3453 59.3647ZM21.4845 62.7093L19.9391 59.8477L18.1793 60.7981L19.7248 63.6597L21.4845 62.7093ZM69.9144 73.9069C53.6923 85.5167 30.964 80.2617 21.4845 62.7093L19.7248 63.6597C29.7765 82.2717 53.8769 87.844 71.0784 75.5333L69.9144 73.9069Z" fill="#DBDBDB"/>
<path d="M71.6581 106.105L71.6509 106.048C71.5989 105.94 71.4783 105.925 71.2893 106.003C70.9946 105.971 70.6368 105.851 70.2159 105.64C69.7899 105.419 69.5001 105.232 69.3468 105.08C69.2727 105.009 69.2278 104.957 69.2122 104.925C69.1862 104.871 69.1896 104.823 69.2224 104.78C69.2501 104.727 69.2911 104.674 69.3456 104.621C69.3948 104.557 69.4331 104.512 69.4603 104.486C69.5925 104.262 69.7072 104.127 69.8045 104.08C69.9126 104.028 70.0384 104.054 70.1817 104.159C70.4632 104.356 70.8158 104.466 71.2395 104.488C71.658 104.5 72.0726 104.407 72.4835 104.209C72.8511 104.032 73.1496 103.808 73.3791 103.538C73.5978 103.273 73.6472 103.016 73.5275 102.767C73.439 102.584 73.2512 102.401 72.9641 102.22C72.9112 102.165 72.8448 102.124 72.7647 102.096C72.6846 102.068 72.5937 102.045 72.492 102.027C72.2565 101.981 71.9866 101.904 71.6823 101.798C71.478 101.816 71.258 101.816 71.0221 101.796L70.6035 101.798C70.2707 101.798 69.8691 101.739 69.3985 101.619C68.9228 101.488 68.5602 101.33 68.3107 101.144C67.9636 101.031 67.6781 100.742 67.4542 100.278C67.2096 99.7693 67.0995 99.2363 67.1239 98.6785C67.1131 98.3241 67.2106 97.7245 67.4165 96.8795C67.6223 96.0346 67.8078 95.4792 67.9728 95.2133L68.1992 94.6048C68.1892 94.5564 68.195 94.5269 68.2166 94.5165C68.2331 94.4953 68.2467 94.4821 68.2575 94.4769C68.2795 94.4397 68.3696 94.3363 68.5278 94.167C68.6808 93.9868 68.8159 93.7419 68.9333 93.4324C69.4367 92.7905 69.9112 92.2823 70.3569 91.9079C70.8082 91.5175 71.2069 91.239 71.5529 91.0724C71.9849 90.891 72.4471 90.855 72.9392 90.9643C73.4422 91.0685 73.8092 91.2913 74.0402 91.6329C74.1139 91.7306 74.1663 91.8119 74.1976 91.8768C74.3902 92.2768 74.444 92.8036 74.3591 93.4571C74.2742 94.1107 74.0974 94.6286 73.8287 95.0111C73.7029 95.1648 73.5644 95.2781 73.413 95.351C73.2292 95.4395 73.0544 95.4637 72.8886 95.4237C72.7336 95.3784 72.6251 95.2775 72.5631 95.1209C72.5162 95.0236 72.4966 94.8999 72.5042 94.7497C72.5174 94.5835 72.5807 94.3 72.694 93.8992C72.8014 93.1816 72.7978 92.7039 72.6833 92.466C72.6052 92.3038 72.461 92.2533 72.2508 92.3146C72.1162 92.3394 71.8153 92.5443 71.348 92.9291C70.8862 93.2979 70.6684 93.5093 70.6944 93.5634C70.6996 93.5742 70.7046 93.5984 70.7094 93.636C70.7199 93.6577 70.7062 93.6709 70.6686 93.6757C70.6201 93.6857 70.3979 94.0124 70.0018 94.6559C69.6166 95.2942 69.4262 95.6456 69.4306 95.7101C69.4458 95.7694 69.4312 95.8497 69.3867 95.951C69.3479 96.0363 69.2902 96.124 69.2137 96.2141C69.0763 96.4267 68.976 96.6748 68.9127 96.9583C68.8603 97.2366 68.8164 97.6572 68.7812 98.2203C68.7399 98.4665 68.7281 98.7186 68.7457 98.9765C68.7741 99.2292 68.83 99.442 68.9133 99.615C68.9705 99.734 69.0362 99.8289 69.1103 99.8997C69.2316 100.041 69.418 100.138 69.6695 100.19C69.9266 100.226 70.4035 100.276 71.1003 100.34C71.8026 100.388 72.4614 100.484 73.0765 100.627C73.6863 100.76 74.0894 100.905 74.2856 101.064C74.5783 101.229 74.821 101.512 75.0136 101.912C75.1645 102.226 75.2644 102.544 75.3133 102.867C75.3149 103.119 75.2816 103.368 75.2135 103.614C75.1507 103.871 75.0572 104.022 74.933 104.069C74.8405 104.153 74.7668 104.235 74.712 104.315C74.6623 104.405 74.6157 104.474 74.572 104.522C74.4787 104.66 74.18 104.897 73.6758 105.233C73.1876 105.575 72.7625 105.826 72.4005 105.987L71.6581 106.105ZM77.2976 101.911C77.2339 101.862 77.1004 101.82 76.897 101.785C76.6935 101.749 76.5866 101.721 76.5762 101.699C76.5554 101.656 76.4997 101.61 76.4092 101.56C76.3243 101.494 76.2447 101.439 76.1702 101.395C76.042 101.35 75.9662 101.041 75.9425 100.466C75.9189 99.8914 75.924 99.1964 75.9576 98.3811C75.9913 98.285 76.0177 98.1325 76.0369 97.9234C76.067 97.7092 76.093 97.5834 76.115 97.5462C76.0942 97.503 76.0922 97.4573 76.109 97.4093C76.1206 97.3504 76.1481 97.3105 76.1913 97.2897L76.1961 96.9678C76.1925 96.8496 76.2915 96.5157 76.4929 95.9659C76.6943 95.4161 76.8719 95.0242 77.0257 94.7904C77.1635 94.5509 77.3513 94.3739 77.5892 94.2594C77.8487 94.1345 78.1067 94.1034 78.3634 94.1663L78.9809 94.3285C79.4354 94.4427 79.6947 94.5109 79.7588 94.5334L80.6165 94.7797L80.7312 95.7233C80.7745 96.0621 80.8585 96.3612 80.9835 96.6207C81.1813 97.0316 81.4796 97.3608 81.8784 97.6083C81.9898 97.7012 82.1043 97.7592 82.222 97.7825C82.3506 97.8005 82.4957 97.7839 82.6575 97.7326C82.9162 97.6613 83.0924 97.723 83.1861 97.9176C83.3006 98.1555 83.3432 98.3547 83.314 98.5153C83.2848 98.6759 83.2185 98.801 83.1152 98.8907C82.9526 98.9956 82.8389 99.0637 82.774 99.0949C82.4604 99.2459 82.1349 99.3027 81.7973 99.2655C81.4597 99.2282 81.0999 99.0618 80.7179 98.7663C80.6434 98.7223 80.5267 98.6319 80.3677 98.4954C80.2196 98.3536 80.1245 98.2529 80.0824 98.1932C80.0588 98.3378 80.0021 98.5382 79.9124 98.7945C79.3401 100.455 78.708 101.452 78.016 101.785C77.7781 101.9 77.5387 101.942 77.2976 101.911ZM77.5415 100.136C77.7249 100.074 77.9664 99.7181 78.266 99.0678C78.2992 98.9985 78.3353 98.9212 78.3741 98.8359C78.4077 98.7398 78.4468 98.6411 78.4912 98.5398C78.6743 98.1453 78.8078 97.828 78.8919 97.5877C78.9816 97.3315 79.0557 97.0427 79.1142 96.7216L79.1899 95.9659C78.9673 95.7801 78.7945 95.6702 78.6715 95.6362C78.5434 95.5913 78.4361 95.5897 78.3496 95.6313C78.1333 95.7355 77.9567 96.0602 77.8198 96.6056C77.6776 97.1402 77.5668 97.906 77.4875 98.9032C77.4623 99.155 77.4639 99.4073 77.4923 99.66C77.5155 99.9019 77.5319 100.06 77.5415 100.136ZM84.861 97.6307C84.7004 97.6014 84.3613 97.3119 83.8435 96.7621C83.3258 96.2122 82.8883 95.677 82.5311 95.1564C82.3785 94.9502 82.1437 94.6837 81.8266 94.3569C81.7633 94.2808 81.7186 94.2158 81.6926 94.1617C81.6145 93.9995 81.5797 93.8165 81.5881 93.6127C81.5913 93.3981 81.6314 93.2323 81.7083 93.1153C81.7359 93.0621 81.8174 92.9962 81.9527 92.9177C82.0937 92.8232 82.1938 92.7684 82.2531 92.7532C82.5326 92.7251 83.0664 93.2806 83.8544 94.4195C84.059 94.7338 84.2086 94.9615 84.3031 95.1024C84.4084 95.2382 84.4741 95.3331 84.5001 95.3872C84.5529 95.4416 84.611 95.5069 84.6743 95.583C84.7375 95.6591 84.7878 95.7081 84.825 95.7301C84.8623 95.7522 84.8949 95.7231 84.923 95.643C84.9846 95.4669 85.0589 95.1647 85.1458 94.7366C85.1919 94.528 85.2506 94.1934 85.3219 93.7329L85.4877 92.874C85.5341 92.6385 85.616 92.366 85.7334 92.0565C85.8507 91.7469 85.961 91.5473 86.0644 91.4576C86.2053 91.3631 86.3399 91.3383 86.468 91.3832C86.6018 91.412 86.7025 91.4967 86.7701 91.6373C86.869 91.8427 86.8893 92.106 86.8308 92.4271C86.8075 92.5449 86.7945 92.6976 86.7917 92.8854C86.7945 93.0572 86.7903 93.1591 86.7791 93.1912C86.7747 93.4863 86.7144 93.9282 86.5983 94.5168C86.4929 95.1003 86.4122 95.4721 86.3561 95.6323C86.3449 95.6643 86.2895 95.7842 86.1898 95.9921C86.1008 96.1947 86.0358 96.4191 85.9945 96.6654C85.8155 97.1512 85.58 97.4643 85.2881 97.6048C85.1475 97.6725 85.0052 97.6811 84.861 97.6307ZM91.1413 96.0254C89.9088 96.6189 88.9541 96.2128 88.2774 94.8072C88.0327 94.299 87.8812 93.6661 87.8227 92.9085C87.7699 92.1348 87.8104 91.4028 87.9442 90.7124C88.0835 90.0061 88.3008 89.4753 88.5959 89.1201C88.7493 88.9131 88.9611 88.7445 89.2314 88.6143C89.718 88.3801 90.1917 88.2852 90.6526 88.3297C91.1192 88.3581 91.493 88.6643 91.7741 89.2481C91.9354 89.5833 91.9989 90.0056 91.9644 90.5149C91.93 91.0243 91.8074 91.5028 91.5968 91.9505C91.3917 92.3822 91.127 92.6761 90.8027 92.8323C90.3161 93.0665 89.8298 93.1076 89.3436 92.9554C89.3368 93.4115 89.4141 93.8071 89.5755 94.1423C89.7056 94.4126 89.8395 94.6078 89.9773 94.728C90.1098 94.8373 90.295 94.8347 90.5329 94.7202C90.76 94.6109 90.9282 94.4899 91.0375 94.3574C91.1468 94.2248 91.2401 94.0867 91.3174 93.9429C91.3947 93.7992 91.4554 93.6901 91.4994 93.6156L91.5487 93.5519L91.5325 93.5597C91.675 93.3579 91.7765 93.2091 91.837 93.1134C91.9031 93.0017 91.9634 92.9194 92.0178 92.8666C92.18 92.7885 92.3548 92.7643 92.5422 92.7939C92.7296 92.8235 92.8571 92.9086 92.9248 93.0492C92.9769 93.1573 92.9655 93.3826 92.8906 93.7249C92.8105 94.0565 92.6911 94.3204 92.5325 94.5166L92.3848 94.7076L92.401 94.6998C92.3661 94.8764 92.3001 94.9881 92.2028 95.035L92.073 95.0974C92.0714 95.2048 91.9671 95.3615 91.76 95.5677C91.5638 95.7688 91.3576 95.9213 91.1413 96.0254ZM90.1029 91.7108C90.4057 91.5651 90.5919 91.3156 90.6616 90.9624C90.7421 90.604 90.7199 90.2951 90.5949 90.0356C90.5377 89.9166 90.4532 89.8241 90.3414 89.758C90.2405 89.6868 90.1414 89.6745 90.0441 89.7214C89.8603 89.8099 89.6965 89.9953 89.5528 90.2776C89.409 90.5599 89.3183 90.8833 89.2806 91.2477L89.2338 91.6898C89.2666 91.6473 89.2938 91.6209 89.3154 91.6105C89.4019 91.5688 89.485 91.5754 89.5647 91.6303C89.6444 91.6852 89.7243 91.7266 89.8044 91.7547C89.8845 91.7827 89.984 91.7681 90.1029 91.7108ZM103.113 90.2617C103.08 90.3041 103.037 90.3383 102.983 90.3644C102.864 90.4216 102.705 90.4649 102.506 90.4941C102.318 90.5181 102.168 90.5105 102.055 90.4713C101.965 90.4484 101.89 90.4178 101.831 90.3794C101.773 90.3409 101.712 90.2568 101.65 90.1271C101.567 89.9541 101.482 89.6818 101.397 89.3101C101.326 89.0246 101.258 88.6909 101.194 88.3088C101.125 87.916 101.083 87.6631 101.069 87.5502C101.134 87.4653 101.074 86.8418 100.887 85.6797C100.768 85.0178 100.663 84.3292 100.572 83.614C100.534 83.3129 100.511 83.0576 100.503 82.8481C100.501 82.6227 100.5 82.4831 100.501 82.4295C100.446 82.5092 100.323 82.6952 100.131 82.9875C99.9383 83.2798 99.7537 83.6018 99.5767 83.9533C99.4942 84.0863 99.3644 84.3285 99.1874 84.6801C98.9992 85.0638 98.853 85.3272 98.7489 85.4706L98.5747 85.8142C98.5527 85.8514 98.514 85.9233 98.4588 86.0298C98.4143 86.1311 98.3703 86.2056 98.3266 86.2533C98.2938 86.2957 98.2611 86.3247 98.2287 86.3404C98.1855 86.3612 98.1344 86.3658 98.0755 86.3542C97.8617 86.2973 97.6407 86.184 97.4124 86.0142C97.1842 85.8444 97.0764 85.6898 97.0893 85.5504C97.1057 85.5292 97.2436 85.2763 97.5031 84.7918C97.7514 84.3393 97.9168 84.0466 97.9993 83.9136C98.0209 83.9032 98.0622 83.8368 98.1231 83.7142C98.1787 83.5809 98.2368 83.4664 98.2973 83.3707C98.3089 83.3118 98.4719 83.0002 98.7862 82.436L99.3413 81.3897C99.5996 80.9856 99.8519 80.6244 100.098 80.3061C100.355 79.9825 100.508 79.8158 100.556 79.8058C100.627 79.7853 100.814 79.8016 101.119 79.8544C101.419 79.8965 101.595 79.9582 101.648 80.0394C101.69 80.0723 101.719 80.1049 101.735 80.1374C101.771 80.213 101.793 80.369 101.8 80.6053C101.802 80.8576 101.853 81.4192 101.952 82.2902C102.063 83.1559 102.157 83.8363 102.236 84.3312C102.295 84.6488 102.349 85.0494 102.395 85.5332C102.409 85.6461 102.428 85.8101 102.452 86.0251C102.481 86.2242 102.518 86.426 102.564 86.6306C102.581 86.9153 102.632 87.2971 102.716 87.7761C102.8 88.255 102.88 88.6561 102.955 88.9792C102.978 89.2211 103.013 89.4578 103.057 89.6892C103.117 90.0068 103.136 90.1976 103.113 90.2617ZM109.115 86.9524C108.975 87.0201 108.692 87.083 108.267 87.141C107.853 87.1939 107.539 87.1919 107.325 87.135C106.288 86.8619 105.509 86.1847 104.989 85.1035C104.89 84.898 104.784 84.6227 104.671 84.2775C104.457 83.5283 104.375 82.722 104.425 81.8586C104.482 80.9793 104.66 80.1876 104.96 79.4836C105.3 78.6675 105.722 78.0512 106.228 77.6348C106.358 77.5187 106.667 77.3435 107.153 77.1092C107.359 77.0103 107.62 76.9445 107.937 76.9116C108.249 76.868 108.534 76.8642 108.791 76.9003C109.043 76.9255 109.195 76.9922 109.247 77.1003C109.299 77.2084 109.327 77.2947 109.331 77.3592C109.347 77.4185 109.308 77.4501 109.217 77.4541L109.055 77.5322L109.451 77.9406C109.542 78.0171 109.637 78.1178 109.737 78.2428C109.837 78.3677 109.916 78.4897 109.973 78.6086C110.077 78.8248 110.208 79.2347 110.365 79.8382C110.522 80.4416 110.61 80.8589 110.628 81.09C110.626 81.1973 110.659 81.3212 110.727 81.4618C110.72 81.5583 110.725 81.7892 110.741 82.1544L110.743 82.573C110.715 82.6263 110.701 82.6797 110.7 82.7334C110.699 82.7871 110.723 82.8223 110.771 82.8391C110.797 82.8932 110.805 83.049 110.796 83.3064C110.782 83.5531 110.753 83.6869 110.71 83.7077C110.699 83.7129 110.685 83.7261 110.669 83.7473C110.647 83.7577 110.644 83.7792 110.66 83.8116C110.681 83.8548 110.662 84.0102 110.604 84.2777C110.542 84.5344 110.463 84.7989 110.367 85.0712C110.283 85.3383 110.092 85.7031 109.795 86.1656C109.504 86.6121 109.278 86.8744 109.115 86.9524ZM108.333 85.4111C108.593 85.2862 108.762 85.1116 108.84 84.8873C109.132 84.3872 109.264 83.8041 109.237 83.1382C109.272 82.9348 109.283 82.7364 109.27 82.5429C109.267 82.3443 109.233 81.9681 109.166 81.4143C109.19 81.2697 109.179 81.1085 109.133 80.9307C109.093 80.7369 109.039 80.5697 108.971 80.4292C108.742 79.9535 108.608 79.6053 108.568 79.3846C108.433 79.1035 108.35 78.9439 108.318 78.9059C108.286 78.8678 108.209 78.8184 108.087 78.7575C107.921 78.7175 107.768 78.7313 107.627 78.7989C107.541 78.8406 107.443 78.9143 107.334 79.02C107.231 79.1097 107.154 79.1998 107.105 79.2903C107.05 79.3431 107.007 79.3774 106.974 79.393C106.909 79.4242 106.845 79.442 106.78 79.4464C106.721 79.4348 106.681 79.4074 106.661 79.3641C106.598 79.2344 106.536 79.2576 106.474 79.4338C106.418 79.594 106.33 79.9362 106.21 80.4603C106.12 80.7166 106.051 80.9893 106.004 81.2784C105.962 81.5515 105.952 81.7097 105.973 81.753C105.988 81.7854 105.995 81.8553 105.994 81.9626C106.003 82.0647 106.01 82.148 106.014 82.2125C105.996 82.3678 105.995 82.6281 106.011 82.9933C106.021 83.3477 106.042 83.5976 106.072 83.743L106.494 84.6188C106.608 84.8566 106.689 85.0108 106.736 85.0813C106.794 85.1466 106.858 85.2092 106.927 85.2693C107.006 85.3242 107.065 85.3626 107.102 85.3846C107.182 85.4395 107.296 85.4976 107.446 85.5588C107.595 85.6201 107.688 85.6618 107.725 85.6838C107.854 85.7286 107.945 85.7381 107.999 85.712C108.031 85.6964 108.075 85.6622 108.129 85.6093C108.178 85.5457 108.246 85.4796 108.333 85.4111ZM113.463 79.0859C113.355 79.138 113.255 79.166 113.164 79.17C113.078 79.158 112.963 79.1267 112.819 79.0763C112.552 78.9918 112.315 78.8728 112.108 78.7195C111.911 78.5609 111.793 78.3981 111.753 78.2311C111.743 78.1558 111.72 78.0938 111.683 78.0449C111.657 77.9908 111.639 77.953 111.628 77.9314C111.564 77.9089 111.538 77.8817 111.549 77.8497C111.56 77.8176 111.566 77.7882 111.567 77.7614C111.621 77.7353 111.611 77.6735 111.537 77.5758C111.484 77.5213 111.449 77.3517 111.432 77.067C111.41 76.7715 111.411 76.4844 111.437 76.2056C111.506 75.1601 111.615 74.4881 111.765 74.1898C111.987 73.6833 112.299 73.28 112.701 72.9801C112.869 72.8323 112.981 72.7454 113.035 72.7194C113.1 72.6882 113.161 72.6784 113.22 72.69C113.29 72.6964 113.384 72.7246 113.501 72.7747C113.759 72.7571 114.032 72.8122 114.32 72.9399C114.607 73.0677 114.817 73.2399 114.948 73.4565C114.99 73.5162 115.045 73.6163 115.112 73.7568C115.383 74.3191 115.453 75.0581 115.321 75.9739C115.239 76.4128 115.148 76.7764 115.047 77.0647C114.957 77.3478 114.824 77.6249 114.648 77.896C114.516 78.1195 114.333 78.3475 114.098 78.5802C113.864 78.8128 113.652 78.9814 113.463 79.0859ZM114.669 86.1564C114.475 86.2233 114.292 86.2313 114.122 86.1804C113.951 86.1296 113.818 86.0068 113.724 85.8122C113.574 85.4986 113.551 85.0233 113.657 84.3862C113.759 84.0442 113.805 83.8222 113.796 83.7201C113.826 83.5327 113.991 82.8938 114.292 81.8034C114.603 80.7077 114.821 79.9301 114.946 79.4704L114.979 79.4548C115.022 79.4339 115.055 79.3915 115.077 79.3274C115.095 79.2525 115.098 79.1775 115.089 79.1022C115.08 79.0001 115.092 78.901 115.125 78.8048C115.17 78.7035 115.217 78.6345 115.265 78.5976C115.272 78.5279 115.286 78.4611 115.309 78.397C115.326 78.3221 115.332 78.2659 115.327 78.2282C115.317 78.2066 115.325 78.1691 115.353 78.1159C115.376 78.0518 115.384 78.001 115.38 77.9633C115.541 77.6061 115.917 76.4659 116.51 74.5426C117.107 72.6032 117.407 71.5665 117.409 71.4323C117.395 71.3194 117.436 71.2395 117.534 71.1927C117.588 71.1666 117.634 71.1512 117.671 71.1464C117.704 71.104 117.742 71.0723 117.785 71.0515C117.829 71.0307 117.877 71.0207 117.931 71.0215C117.968 71.0435 118.053 71.0824 118.187 71.138C118.32 71.1937 118.429 71.2544 118.514 71.32C118.626 71.3861 118.708 71.4732 118.76 71.5813C118.807 71.6786 118.827 71.7755 118.82 71.8721C118.833 72.0386 118.818 72.186 118.773 72.3141C118.739 72.4371 118.636 72.7066 118.463 73.1226C118.424 73.2348 118.382 73.3415 118.337 73.4428C118.293 73.5441 118.248 73.6454 118.204 73.7467C118.058 74.1632 117.864 74.7426 117.623 75.485C117.391 76.2222 117.278 76.6097 117.283 76.6473C117.217 76.7859 117.16 76.9595 117.114 77.1681C117.008 77.4456 116.874 77.7898 116.712 78.2006C116.561 78.6063 116.488 78.8279 116.493 78.8656C116.488 78.8816 116.479 78.919 116.467 78.9779C116.467 79.0315 116.439 79.0848 116.384 79.1377C116.358 79.1373 116.341 79.1585 116.335 79.2013C116.329 79.2442 116.323 79.2736 116.318 79.2896C116.365 79.3869 116.29 79.6891 116.095 80.196C115.764 81.5275 115.495 82.6291 115.289 83.5009C115.093 84.3674 115.002 84.9242 115.014 85.1713C115.027 85.3916 114.992 85.595 114.908 85.7816C114.836 85.963 114.756 86.0879 114.669 86.1564ZM113.903 76.5565C113.982 76.2786 114.032 76.0351 114.051 75.8261C114.076 75.6011 114.064 75.3406 114.014 75.0446C113.985 74.8724 113.933 74.7107 113.861 74.5593C113.762 74.3539 113.677 74.2479 113.608 74.2415C113.527 74.2403 113.449 74.2579 113.373 74.2944C113.211 74.3725 113.091 74.5236 113.012 74.7479C112.885 75.009 112.803 75.2949 112.766 75.6056C112.729 75.9164 112.715 76.3428 112.723 76.885C112.736 77.0785 112.771 77.2346 112.829 77.3536C112.948 77.6022 113.105 77.6797 113.3 77.586C113.527 77.4767 113.728 77.1335 113.903 76.5565ZM118.743 83.9953C118.635 84.0474 118.533 84.07 118.436 84.0632C118.356 84.062 118.243 84.0362 118.099 83.9857C117.832 83.9012 117.592 83.7769 117.38 83.6127C117.184 83.4541 117.066 83.2913 117.025 83.1243C117.016 83.049 116.992 82.987 116.956 82.9381C116.93 82.884 116.911 82.8462 116.901 82.8246C116.837 82.8021 116.81 82.7749 116.822 82.7429C116.833 82.7108 116.839 82.6814 116.839 82.6546C116.893 82.6286 116.883 82.5667 116.81 82.469C116.757 82.4145 116.722 82.2449 116.705 81.9602C116.682 81.6647 116.684 81.3776 116.709 81.0988C116.725 80.7717 116.76 80.4019 116.814 79.9894C116.869 79.577 116.946 79.2802 117.045 79.0992C117.273 78.5767 117.582 78.168 117.973 77.8733C118.142 77.7255 118.253 77.6386 118.307 77.6126C118.372 77.5814 118.434 77.5716 118.493 77.5832C118.563 77.5896 118.656 77.6178 118.773 77.6679C119.031 77.6503 119.304 77.7054 119.592 77.8331C119.88 77.9609 120.092 78.1385 120.228 78.3659C120.27 78.4256 120.325 78.5257 120.393 78.6663C120.663 79.2285 120.733 79.9675 120.601 80.8833C120.525 81.3062 120.436 81.6618 120.336 81.9501C120.235 82.2384 120.096 82.5181 119.92 82.7892C119.788 83.0127 119.605 83.2407 119.371 83.4734C119.142 83.7168 118.933 83.8908 118.743 83.9953ZM119.176 81.4497C119.249 81.1878 119.293 80.947 119.307 80.7271C119.332 80.5021 119.325 80.239 119.287 79.9378C119.262 79.8033 119.208 79.6495 119.125 79.4765C119.021 79.2603 118.939 79.1463 118.88 79.1347C118.8 79.1335 118.716 79.1537 118.63 79.1954C118.468 79.2735 118.347 79.4246 118.269 79.6489C118.141 79.91 118.059 80.1959 118.022 80.5066C117.996 80.8122 117.987 81.236 117.995 81.7782C118.009 81.9717 118.044 82.1278 118.101 82.2468C118.221 82.4954 118.378 82.5729 118.573 82.4792C118.8 82.3699 119.001 82.0267 119.176 81.4497ZM78.7694 131.824C78.6613 131.876 78.5568 131.866 78.4559 131.795C78.4399 131.789 78.36 131.748 78.2162 131.671C78.0725 131.593 77.9459 131.441 77.8366 131.214C77.8158 131.171 77.785 131.079 77.7441 130.939C77.6444 130.428 77.5529 130.085 77.4696 129.912C77.4436 129.858 77.4154 129.772 77.385 129.653C77.3597 129.546 77.3317 129.446 77.3009 129.354C77.3077 129.258 77.2883 129.121 77.2426 128.943C77.213 128.771 77.1695 128.625 77.1123 128.506C77.0863 128.452 77.0712 128.379 77.0672 128.288C77.0793 128.202 77.1019 128.125 77.1351 128.056C77.1039 127.991 77.0733 127.886 77.0432 127.74C77.008 127.584 76.9828 127.476 76.9676 127.417C76.8811 127.099 76.7588 126.306 76.6006 125.037C76.4425 123.768 76.3318 122.736 76.2685 121.94C76.2525 121.575 76.2253 121.242 76.1869 120.941C76.1485 120.64 76.1032 120.435 76.0512 120.327C76.0303 120.284 76.0229 120.241 76.0289 120.198C76.0405 120.139 76.0632 120.061 76.0968 119.965C76.1417 119.837 76.2344 119.739 76.3749 119.672C76.5587 119.583 76.7658 119.557 76.996 119.592C77.129 119.675 77.2325 119.751 77.3066 119.822C77.3806 119.893 77.4437 119.983 77.4958 120.091C77.5114 120.123 77.55 120.231 77.6117 120.415C77.721 120.642 77.755 120.878 77.7138 121.125C77.6725 121.371 77.6547 121.486 77.6603 121.47C78.0339 120.891 78.4478 120.492 78.9019 120.273C79.3885 120.039 79.861 120.024 80.3195 120.23C80.7728 120.424 81.1114 120.754 81.3352 121.219C81.4237 121.403 81.4699 121.72 81.4739 122.171C81.4727 122.611 81.4415 122.906 81.3802 123.055C81.3153 123.086 81.2835 123.242 81.2847 123.521C81.2382 123.756 81.078 124.06 80.8041 124.431C80.5358 124.787 80.3264 124.974 80.1758 124.994C80.165 124.999 80.1566 125.023 80.1506 125.066C80.1394 125.098 80.1442 125.135 80.165 125.179C80.1858 125.222 80.0601 125.376 79.7877 125.64C79.5154 125.904 79.2603 126.094 79.0225 126.208C78.8927 126.271 78.7928 126.312 78.7227 126.332C78.6475 126.342 78.5644 126.335 78.4735 126.313C78.4342 126.425 78.4302 126.513 78.4614 126.578C78.5135 126.686 78.5427 126.885 78.5491 127.175C78.5503 127.454 78.5185 127.609 78.4536 127.641C78.448 127.657 78.4422 127.686 78.4362 127.729C78.441 127.767 78.4754 127.797 78.5395 127.819C78.5551 127.851 78.5861 127.93 78.6326 128.054C78.679 128.178 78.6963 128.283 78.6842 128.369C78.7311 128.466 78.7773 128.604 78.823 128.781C78.8738 128.97 78.8984 129.118 78.8968 129.225C78.9593 129.355 78.9975 129.49 79.0116 129.629C79.0416 129.775 79.035 129.858 78.9917 129.879C78.9373 129.932 78.9803 130.104 79.1209 130.396C79.235 130.661 79.2604 130.935 79.1971 131.218C79.1447 131.497 79.0481 131.67 78.9076 131.737L78.7694 131.824ZM78.2507 125.061C78.402 124.989 78.6441 124.772 78.9769 124.412C79.3153 124.036 79.5427 123.72 79.6593 123.464C79.809 123.139 79.9072 122.859 79.9536 122.623C80.0001 122.388 79.9817 122.184 79.8984 122.011C79.8255 121.859 79.7066 121.737 79.5416 121.643C79.4087 121.561 79.2665 121.556 79.1151 121.629C78.7583 121.8 78.4261 122.3 78.1186 123.127C78.0229 123.426 77.9748 123.769 77.9744 124.156C77.9688 124.531 78.005 124.8 78.0831 124.962C78.1299 125.06 78.1858 125.093 78.2507 125.061ZM85.845 123.743C85.2287 124.039 84.6481 124.106 84.1031 123.942C83.5581 123.778 83.132 123.377 82.8249 122.739C82.7051 122.491 82.5886 122.207 82.4753 121.889C82.372 121.619 82.3029 121.213 82.2681 120.67C82.2441 120.122 82.2902 119.554 82.4063 118.965C82.5333 118.371 82.769 117.865 83.1134 117.446C83.2719 117.25 83.4137 117.102 83.5386 117.002C83.6584 116.891 83.8102 116.791 83.994 116.703C84.4373 116.489 84.8331 116.399 85.1815 116.431C85.5407 116.457 85.8238 116.548 86.0308 116.701C86.2487 116.849 86.394 116.999 86.4669 117.15L86.5059 117.231L86.5294 117.28C86.5918 117.41 86.6307 117.684 86.6459 118.103C86.6611 118.522 86.574 118.963 86.3845 119.427C86.2059 119.886 85.8649 120.257 85.3616 120.539C85.1021 120.664 84.8376 120.765 84.5681 120.841C84.3042 120.902 84.1398 120.948 84.0749 120.979C83.9127 121.057 83.8386 121.166 83.8527 121.306C83.8667 121.445 83.9413 121.656 84.0767 121.937C84.2549 122.224 84.4375 122.396 84.6245 122.452C84.8223 122.503 85.051 122.467 85.3104 122.342C85.4402 122.279 85.5733 122.169 85.7099 122.01C85.8413 121.84 85.9816 121.606 86.131 121.307C86.2087 121.137 86.275 121.012 86.3298 120.932C86.3847 120.852 86.4662 120.786 86.5743 120.734C86.6716 120.688 86.8164 120.698 87.0086 120.765C87.2008 120.832 87.3309 120.923 87.399 121.037C87.4399 121.177 87.4146 121.429 87.3233 121.792C87.232 122.156 87.0628 122.524 86.8157 122.896C86.5686 123.268 86.2451 123.55 85.845 123.743ZM84.5309 119.561C84.7363 119.462 84.8664 119.372 84.9213 119.293C85.0034 119.187 85.1005 118.973 85.2127 118.653C85.3304 118.317 85.3738 118.103 85.343 118.011C85.291 117.903 85.2007 117.84 85.0721 117.822C84.9492 117.788 84.8014 117.799 84.6288 117.855L84.4504 117.941C84.3099 118.009 84.1617 118.227 84.0059 118.595C83.8557 118.947 83.7562 119.321 83.7073 119.717C83.7442 119.766 83.8487 119.776 84.0209 119.746C84.1879 119.706 84.3579 119.644 84.5309 119.561ZM90.3516 121.153C90.2651 121.195 90.1304 121.233 89.9474 121.268C89.7752 121.298 89.6651 121.304 89.617 121.287C89.5261 121.264 89.4222 121.215 89.3053 121.138C89.1831 121.05 89.0856 120.93 89.0128 120.779C88.8982 120.541 88.865 120.251 88.9131 119.908C88.9155 119.747 88.8616 119.22 88.7515 118.328L88.6465 117.28C88.5796 117.085 88.5063 116.961 88.4266 116.906C88.3417 116.84 88.2264 116.836 88.0806 116.893C87.9617 116.95 87.857 116.954 87.7665 116.904C87.6708 116.844 87.5787 116.721 87.4902 116.538C87.3717 116.208 87.3867 115.922 87.5353 115.677C87.6666 115.507 87.8837 115.349 88.1864 115.204C88.4567 115.073 88.6533 115.025 88.7763 115.059C88.894 115.083 89.04 115.192 89.2141 115.388C89.3883 115.584 89.5385 115.771 89.6646 115.95C89.7031 115.892 89.7734 115.678 89.8755 115.309L90.0527 114.765C90.174 114.546 90.325 114.32 90.5056 114.087C90.6862 113.854 90.8252 113.713 90.9225 113.667C91.0306 113.615 91.1972 113.601 91.4223 113.626C91.6473 113.651 91.8103 113.699 91.9112 113.77C92.2191 113.995 92.42 114.204 92.5136 114.399C92.5865 114.55 92.6059 114.687 92.5719 114.81C92.457 115.318 92.2211 115.658 91.8643 115.83C91.7778 115.872 91.7049 115.9 91.6456 115.915C91.5864 115.931 91.4851 115.886 91.3417 115.782C91.1983 115.678 91.103 115.591 91.0558 115.52C91.0402 115.488 90.9903 115.592 90.9062 115.832C90.8277 116.056 90.7773 116.2 90.7548 116.264L90.6197 116.689C90.5456 116.978 90.4973 117.334 90.4749 117.758C90.4633 118.176 90.4484 118.809 90.4304 119.657L90.4616 120.261C90.4732 120.562 90.478 120.779 90.476 120.914C90.4688 121.037 90.4273 121.117 90.3516 121.153ZM106.467 112.196C106.595 112.268 106.682 112.352 106.729 112.45C106.781 112.558 106.79 112.673 106.756 112.796C106.722 112.919 106.678 112.994 106.624 113.02C106.364 113.144 106.044 113.226 105.662 113.263C105.286 113.284 105.041 113.176 104.926 112.938L104.442 111.932C104.234 111.5 104.076 111.269 103.969 111.241C103.766 111.232 103.609 111.461 103.5 111.926C103.386 112.381 103.291 113.026 103.214 113.862C103.177 114.173 103.13 114.408 103.074 114.569C103.013 114.718 102.939 114.813 102.853 114.855C102.777 114.891 102.702 114.901 102.627 114.884C102.245 114.948 101.986 114.839 101.851 114.558C101.835 114.526 101.812 114.45 101.782 114.332C101.718 113.95 101.641 113.527 101.551 113.064C101.472 112.596 101.395 112.201 101.319 111.878C101.256 111.828 101.186 111.822 101.11 111.858C101.002 111.91 100.904 112.024 100.815 112.2C100.788 112.253 100.733 112.346 100.65 112.479C100.573 112.596 100.504 112.743 100.442 112.919C100.386 113.079 100.346 113.285 100.32 113.537C100.313 113.634 100.292 113.784 100.257 113.987C100.112 115.069 100.006 115.693 99.9394 115.858C99.9582 116.035 99.9562 116.17 99.9334 116.261C99.9162 116.335 99.8751 116.388 99.8102 116.42C99.767 116.441 99.7051 116.45 99.6246 116.449C99.3723 116.451 99.1397 116.396 98.9267 116.286C98.7192 116.159 98.5557 115.972 98.4359 115.723C98.3578 115.561 98.2503 115.213 98.1134 114.68C97.9765 114.146 97.866 113.64 97.7819 113.161C97.7851 112.946 97.7641 112.737 97.7188 112.532C97.6792 112.311 97.6412 112.163 97.6047 112.088C97.5382 111.867 97.4704 111.56 97.4011 111.167C97.3266 110.763 97.3032 110.535 97.3309 110.481C97.3645 110.385 97.4678 110.296 97.6408 110.212C97.7597 110.155 97.8837 110.122 98.0126 110.113C98.1416 110.104 98.2485 110.133 98.3334 110.199C98.552 110.293 98.729 110.481 98.8644 110.762C98.9893 111.021 99.068 111.323 99.1004 111.667C99.112 111.968 99.1512 112.395 99.2181 112.949C99.2181 112.949 99.2237 112.933 99.2349 112.901C99.3174 112.408 99.4548 111.836 99.647 111.184C99.7375 110.874 99.8731 110.603 100.054 110.369C100.245 110.131 100.417 109.975 100.568 109.902C100.848 109.82 101.127 109.846 101.404 109.979C101.687 110.096 101.938 110.328 102.158 110.674C102.221 110.804 102.288 110.972 102.36 111.177C102.427 111.371 102.468 111.498 102.483 111.557C102.501 111.482 102.546 111.3 102.62 111.011C102.7 110.707 102.815 110.378 102.965 110.026C103.115 109.728 103.292 109.529 103.497 109.43C103.67 109.347 103.856 109.345 104.053 109.423C104.359 109.449 104.652 109.587 104.932 109.838C105.224 110.084 105.466 110.407 105.659 110.807C105.726 110.948 105.773 111.059 105.798 111.139C105.824 111.22 105.871 111.331 105.938 111.472C106.011 111.623 106.098 111.761 106.198 111.886C106.293 112 106.382 112.104 106.467 112.196ZM109.751 112.073C109.702 112.11 109.634 112.149 109.548 112.191C109.407 112.259 109.283 112.292 109.176 112.29C109.063 112.278 108.919 112.241 108.743 112.179C108.437 112.18 108.124 112.084 107.805 111.891C107.486 111.699 107.298 111.516 107.242 111.343C107.046 110.798 106.921 110.166 106.868 109.446C106.809 108.715 106.852 108.015 106.996 107.347C107.146 106.662 107.39 106.118 107.729 105.715C107.887 105.546 108.047 105.422 108.209 105.344C108.544 105.183 108.818 105.184 109.03 105.348C109.179 105.463 109.271 105.559 109.308 105.634C109.37 105.764 109.336 105.887 109.206 106.003C109.173 106.019 109.143 106.053 109.116 106.106C109.088 106.16 109.082 106.202 109.098 106.235C109.114 106.24 109.165 106.222 109.251 106.181C109.435 106.092 109.649 105.956 109.893 105.772C110.138 105.588 110.282 105.445 110.327 105.343C110.376 105.28 110.422 105.238 110.465 105.217L110.708 105.14C110.918 105.105 111.041 105.126 111.077 105.202C111.103 105.256 111.153 105.318 111.228 105.389C111.312 105.455 111.371 105.48 111.404 105.464C111.458 105.438 111.503 105.463 111.539 105.539C111.57 105.604 111.574 105.708 111.551 105.853C111.533 105.981 111.482 106.126 111.399 106.285C111.361 106.344 111.303 106.432 111.226 106.548C111.16 106.66 111.127 106.743 111.126 106.797C111.136 106.845 111.17 106.902 111.228 106.967C111.313 107.033 111.387 107.131 111.449 107.26C111.626 107.628 111.656 108.146 111.539 108.815C111.416 109.474 111.186 110.117 110.85 110.745C110.524 111.368 110.157 111.811 109.751 112.073ZM109.144 110.688C109.208 110.656 109.339 110.513 109.536 110.259C109.609 110.051 109.681 109.909 109.752 109.835C109.785 109.82 109.799 109.78 109.794 109.715C109.795 109.635 109.8 109.519 109.807 109.369C109.821 109.203 109.859 108.978 109.922 108.695C110.001 108.417 110.045 108.203 110.053 108.053C110.071 107.897 110.052 107.76 109.994 107.641C109.973 107.598 109.926 107.527 109.853 107.43C109.826 107.402 109.775 107.394 109.7 107.403C109.63 107.397 109.563 107.396 109.499 107.4C109.445 107.426 109.398 107.468 109.36 107.527C109.316 107.575 109.284 107.604 109.262 107.614C109.208 107.64 109.136 107.642 109.045 107.619L108.629 107.419L108.486 107.828C108.357 108.196 108.308 108.633 108.338 109.138C108.378 109.638 108.466 110.068 108.6 110.43C108.662 110.586 108.736 110.684 108.821 110.723C108.912 110.746 109.019 110.734 109.144 110.688ZM119.508 107.056C118.816 107.363 118.291 107.143 117.932 106.397C117.833 106.191 117.753 105.983 117.691 105.773C117.599 105.525 117.529 105.352 117.482 105.255L117.443 105.174L117.357 104.995C117.22 104.795 117.098 104.72 116.99 104.772C116.795 104.866 116.524 105.23 116.177 105.863C115.835 106.481 115.502 107.187 115.179 107.982C115.094 108.249 115.032 108.492 114.991 108.712C114.95 108.904 114.911 109.03 114.872 109.088C114.834 109.147 114.755 109.205 114.636 109.262C114.475 109.313 114.247 109.283 113.953 109.171C113.66 109.059 113.442 108.938 113.299 108.807C113.153 108.504 113.069 108.192 113.047 107.869C113.02 107.536 113.013 107.107 113.026 106.581C112.967 106.21 112.935 105.826 112.931 105.428C112.911 104.972 112.886 104.631 112.857 104.405C112.834 104.163 112.781 103.929 112.699 103.702C112.694 103.691 112.686 103.688 112.675 103.694C112.654 103.65 112.652 103.605 112.669 103.557C112.686 103.509 112.716 103.474 112.759 103.453C112.765 103.41 112.822 103.363 112.93 103.311C113.211 103.176 113.491 103.134 113.769 103.187C114.047 103.239 114.262 103.422 114.413 103.736C114.491 103.898 114.534 104.07 114.542 104.253C114.556 104.419 114.562 104.709 114.561 105.123L114.555 105.565C114.554 105.646 114.552 105.767 114.549 105.928C114.542 106.078 114.546 106.169 114.561 106.201C114.743 105.887 114.945 105.491 115.167 105.011C115.499 104.318 115.781 103.77 116.013 103.365C116.244 102.961 116.441 102.719 116.603 102.641C116.744 102.574 116.977 102.561 117.304 102.603C117.636 102.63 117.855 102.698 117.961 102.807C117.998 102.882 118.041 103.001 118.093 103.163C118.155 103.319 118.209 103.46 118.256 103.584L118.514 104.079C118.566 104.16 118.634 104.287 118.717 104.46C118.884 104.806 118.979 105.06 119.004 105.221C119.02 105.227 119.039 105.238 119.06 105.254C119.081 105.271 119.094 105.284 119.099 105.295L119.099 105.335C119.162 105.438 119.304 105.583 119.527 105.768C119.75 105.954 119.866 106.058 119.877 106.08C119.934 106.199 119.918 106.373 119.829 106.602C119.745 106.816 119.638 106.967 119.508 107.056ZM123.748 105.614C123.479 105.664 123.074 105.612 122.534 105.459C122.236 105.31 122.026 105.151 121.905 104.983C121.779 104.804 121.581 104.433 121.31 103.871C121.185 103.612 121.003 102.9 120.763 101.738C120.752 101.689 120.72 101.525 120.665 101.245C120.64 101.11 120.561 101.056 120.426 101.08C120.292 101.105 120.116 101.17 119.9 101.274C119.716 101.362 119.603 101.404 119.56 101.398C119.522 101.402 119.477 101.364 119.425 101.283C119.383 101.196 119.355 101.137 119.339 101.104C119.323 101.072 119.281 101.053 119.211 101.046C119.152 101.035 119.104 101.018 119.067 100.996C119.014 100.968 119.002 100.874 119.031 100.713C119.06 100.553 119.124 100.436 119.221 100.362C119.281 100.32 119.414 100.236 119.619 100.11C119.825 99.9846 120.01 99.8424 120.173 99.6839C120.348 99.5201 120.455 99.3553 120.495 99.1895C120.458 98.7542 120.433 98.2869 120.419 97.7876C120.416 97.283 120.434 96.9747 120.473 96.8625C120.604 96.6927 120.74 96.574 120.881 96.5063C121.119 96.3918 121.35 96.4006 121.573 96.5328C121.626 96.5604 121.685 96.5855 121.749 96.6079C121.813 96.6303 121.858 96.6686 121.884 96.7226C121.921 96.7983 121.94 96.9355 121.942 97.1341C121.956 97.3275 121.948 97.6575 121.92 98.124L121.904 98.6309C121.942 98.6261 122.02 98.5951 122.139 98.5378C122.258 98.4806 122.352 98.4283 122.423 98.3811C122.64 98.2233 122.813 98.1132 122.943 98.0507C123.04 98.0039 123.113 97.9754 123.162 97.9654C123.616 97.7468 123.984 97.8758 124.267 98.3523C124.351 98.4716 124.354 98.6032 124.277 98.7469C124.205 98.8747 124.029 99.0062 123.748 99.1416C122.655 99.721 122.116 100.04 122.131 100.1C122.093 100.158 122.087 100.367 122.114 100.727C122.141 101.087 122.181 101.421 122.236 101.727C122.377 102.352 122.567 102.913 122.807 103.41C123.036 103.886 123.254 104.161 123.462 104.233C123.526 104.256 123.596 104.249 123.672 104.212C123.867 104.119 124.072 103.84 124.288 103.376C124.355 103.211 124.459 103.094 124.6 103.027C124.718 102.969 124.831 102.968 124.938 103.024C125.055 103.074 125.148 103.169 125.215 103.31C125.293 103.472 125.315 103.655 125.279 103.858C125.237 104.185 125.093 104.507 124.846 104.826C124.6 105.144 124.331 105.374 124.039 105.514C123.909 105.577 123.812 105.61 123.748 105.614ZM132.746 101.023C132.484 101.255 132.278 101.408 132.127 101.48C131.911 101.585 131.698 101.6 131.49 101.527C131.437 101.5 131.341 101.453 131.202 101.386C131.069 101.304 130.95 101.208 130.844 101.099C130.744 100.974 130.645 100.809 130.546 100.603C130.473 100.452 130.416 100.32 130.375 100.206C130.333 100.093 130.303 100.001 130.282 99.9312L130.088 99.4453C130.033 99.1922 129.951 98.9521 129.841 98.7251C129.701 98.4331 129.582 98.3106 129.485 98.3574C129.145 98.4543 128.661 99.6198 128.031 101.854C127.985 102.089 127.964 102.226 127.969 102.264C127.934 102.467 127.902 102.636 127.873 102.769C127.844 102.903 127.813 102.978 127.781 102.993C127.494 103.145 127.214 103.2 126.941 103.158C126.663 103.105 126.455 102.979 126.319 102.778C126.256 102.675 126.126 101.852 125.929 100.309L125.628 97.857C125.584 97.545 125.546 97.0641 125.512 96.4142L125.438 95.4711L125.398 94.8909L125.192 92.5531L125.161 92.4882C125.072 92.3044 125.047 92.1564 125.087 92.0443L125.306 91.9188C125.296 91.8971 125.384 91.8877 125.572 91.8905C125.765 91.8773 125.95 91.8881 126.127 91.923C126.309 91.9418 126.413 91.9783 126.439 92.0323C126.508 92.0924 126.566 92.1711 126.613 92.2684C126.733 92.5171 126.814 93.004 126.857 93.7292C126.827 93.9166 126.845 94.3275 126.911 94.9618C126.948 95.3166 126.969 95.5665 126.972 95.7114C126.958 95.9581 126.975 96.4092 127.024 97.0647C127.074 97.7203 127.148 98.3305 127.246 98.8956C127.259 99.1426 127.289 99.3148 127.335 99.4121C127.361 99.4662 127.391 99.4854 127.423 99.4698C127.499 99.4334 127.568 99.2734 127.632 98.9899C127.919 98.0925 128.159 97.4306 128.354 97.0041C128.548 96.5776 128.774 96.3153 129.034 96.2172C129.201 96.1768 129.471 96.2131 129.845 96.326C130.225 96.4229 130.489 96.5423 130.637 96.684C130.816 96.8907 130.966 97.1183 131.085 97.367C131.163 97.5292 131.365 98.0179 131.691 98.8332C131.865 99.4155 131.973 99.7499 132.015 99.8364C132.061 99.9337 132.106 99.9987 132.149 100.032C132.202 100.059 132.29 100.09 132.413 100.124C132.589 100.159 132.719 100.263 132.803 100.436C132.902 100.641 132.882 100.837 132.746 101.023Z" fill="#DBDBDB"/>
</svg>
