<svg width="132" height="115" viewBox="0 0 132 115" fill="none" xmlns="http://www.w3.org/2000/svg">
<path d="M12.507 18.499L12.5382 18.4514C12.569 18.3354 12.4873 18.2455 12.2932 18.1816C12.0896 17.9662 11.8963 17.6418 11.7133 17.2084C11.5334 16.7634 11.4348 16.4331 11.4175 16.2175C11.4073 16.1154 11.4068 16.047 11.416 16.0122C11.4314 15.9542 11.4654 15.9198 11.5179 15.9089C11.5736 15.8864 11.6392 15.8728 11.715 15.8681C11.7938 15.8517 11.8522 15.8424 11.89 15.84C12.1357 15.7562 12.3108 15.7281 12.4152 15.7558C12.5312 15.7866 12.6098 15.8881 12.651 16.0604C12.7364 16.3935 12.9328 16.7063 13.2401 16.9988C13.5504 17.2798 13.926 17.4787 14.3667 17.5956C14.7611 17.7002 15.1333 17.7244 15.4834 17.6683C15.8219 17.6091 16.0265 17.4461 16.0973 17.1793C16.1496 16.9821 16.1257 16.7213 16.0255 16.3968C16.0208 16.321 15.9971 16.2465 15.9545 16.1731C15.9119 16.0997 15.8576 16.0232 15.7918 15.9437C15.6432 15.7553 15.4879 15.5217 15.3259 15.2429C15.1588 15.124 14.992 14.9805 14.8256 14.8122L14.5064 14.5413C14.2533 14.3252 13.987 14.0187 13.7074 13.6218C13.4309 13.2132 13.2585 12.8571 13.19 12.5534C12.9994 12.2422 12.9703 11.8372 13.1026 11.3384C13.2472 10.7933 13.5101 10.3167 13.8914 9.90886C14.1137 9.6326 14.5777 9.24046 15.2835 8.73242C15.9893 8.22439 16.4914 7.92302 16.7896 7.82831L17.3574 7.51333C17.3813 7.47001 17.4048 7.45142 17.428 7.45757C17.4543 7.45213 17.4732 7.45094 17.4848 7.45402C17.5258 7.44005 17.6614 7.42016 17.8917 7.39434C18.1251 7.35692 18.387 7.25878 18.6774 7.09993C19.4773 6.93961 20.1682 6.86215 20.7503 6.86755C21.347 6.86443 21.831 6.91208 22.2022 7.01053C22.6484 7.1537 23.0229 7.42683 23.3256 7.82992C23.64 8.23609 23.7739 8.64405 23.7273 9.05379C23.7197 9.17594 23.7067 9.2718 23.6883 9.3414C23.5745 9.77056 23.2728 10.2058 22.7833 10.647C22.2938 11.0883 21.8227 11.3668 21.3699 11.4826C21.1744 11.5177 20.9954 11.5137 20.833 11.4706C20.6358 11.4183 20.4873 11.323 20.3874 11.1848C20.2991 11.0496 20.2823 10.9024 20.3369 10.7431C20.3646 10.6387 20.4302 10.5319 20.5336 10.4228C20.6517 10.3052 20.8842 10.1309 21.2309 9.90011C21.7791 9.42475 22.087 9.05949 22.1547 8.80431C22.2009 8.63032 22.1242 8.49825 21.9246 8.40808C21.8062 8.33944 21.4444 8.29935 20.8392 8.2878C20.2486 8.26772 19.9456 8.28668 19.9302 8.34468C19.9271 8.35628 19.9152 8.37794 19.8944 8.40966C19.8882 8.43286 19.8693 8.43404 19.8375 8.41321C19.7942 8.38931 19.4129 8.49302 18.6936 8.72434C17.9858 8.95874 17.6127 9.10186 17.5741 9.1537C17.5471 9.20862 17.4838 9.26011 17.3841 9.30817C17.2991 9.34771 17.1983 9.37683 17.0816 9.39554C16.839 9.46775 16.6015 9.59098 16.369 9.76522C16.1482 9.94253 15.8413 10.2336 15.4484 10.6384C15.2569 10.7987 15.084 10.9825 14.9297 11.1898C14.787 11.4003 14.691 11.5983 14.6418 11.7839C14.608 11.9115 14.5961 12.0263 14.6063 12.1283C14.6066 12.3146 14.6853 12.5093 14.8425 12.7124C15.0144 12.9069 15.3441 13.2551 15.8318 13.7569C16.3341 14.2501 16.7723 14.7512 17.1464 15.2601C17.5235 15.7574 17.735 16.1301 17.7809 16.3782C17.8958 16.6942 17.8963 17.0667 17.7824 17.4959C17.6932 17.8323 17.5622 18.1389 17.3895 18.4159C17.2266 18.6086 17.0394 18.7762 16.8278 18.9187C16.6131 19.0728 16.4435 19.1272 16.319 19.0817C16.1938 19.0858 16.0844 19.1002 15.9909 19.1251C15.8944 19.1615 15.814 19.1837 15.7498 19.1915C15.5891 19.2358 15.208 19.2216 14.6065 19.149C14.0136 19.091 13.5273 19.0055 13.1476 18.8924L12.507 18.499ZM20.7441 19.7153C20.5678 19.6313 20.3974 19.4309 20.2331 19.1142C20.0719 18.7859 19.9869 18.5213 19.9781 18.3203C19.9843 18.2971 19.9789 18.2709 19.9618 18.2415C19.9478 18.2006 19.9366 18.1728 19.9281 18.1581C19.8909 18.111 19.9185 17.9134 20.0108 17.5655C20.0846 17.2871 20.1731 17.0002 20.2763 16.7048C20.391 16.4124 20.4962 16.1796 20.5919 16.0063L21.1496 15.1673L21.5778 14.5359L22.3152 13.6514L21.67 13.2755C21.5919 13.2423 21.533 13.1833 21.4935 13.0983C21.4656 13.0164 21.4593 12.9465 21.4747 12.8885C21.4993 12.7957 21.581 12.6746 21.72 12.5252C21.8705 12.3789 21.9748 12.3134 22.0328 12.3288C22.0645 12.3497 22.1557 12.3801 22.3065 12.4201C22.6545 12.5123 22.9201 12.5642 23.1033 12.5755C23.2316 12.5599 23.3374 12.4886 23.4207 12.3617C23.5126 12.2495 23.5982 12.1605 23.6778 12.0947C23.7604 12.0173 23.8445 11.9341 23.9302 11.8451C23.9835 11.7847 24.0633 11.6942 24.1698 11.5734C24.291 11.4442 24.4342 11.3022 24.5994 11.1473C24.6319 11.1187 24.7056 11.0513 24.8206 10.9453C24.9387 10.8276 25.0681 10.7378 25.2087 10.6758C25.2937 10.6362 25.3988 10.6144 25.524 10.6104C25.6523 10.5948 25.7744 10.6023 25.8904 10.6331C26.0992 10.6885 26.252 10.7911 26.3488 10.9409C26.4101 11.131 26.43 11.2666 26.4085 11.3478C26.3839 11.4406 26.3052 11.5501 26.1724 11.6763C26.0659 11.797 25.9007 11.9518 25.6768 12.1407C25.4822 12.3126 25.3332 12.4531 25.2298 12.5622C25.0738 12.6822 24.985 12.7828 24.9635 12.864C24.942 12.9452 25.0066 13.0058 25.1574 13.0458C25.3198 13.0889 25.6016 13.1264 26.0028 13.1583C26.0639 13.1621 26.1466 13.1778 26.251 13.2055C26.5294 13.2793 26.705 13.4128 26.7779 13.606C26.8509 13.7991 26.855 14.0175 26.7904 14.2611C26.7474 14.4234 26.6632 14.5067 26.538 14.5107C26.4244 14.5178 26.1762 14.4706 25.7934 14.3691C25.4069 14.3286 25.0164 14.2561 24.622 14.1515C24.5524 14.1331 24.4697 14.1173 24.3738 14.1043C24.2927 14.0828 24.2026 14.0713 24.1036 14.0699C24.0047 14.0685 23.9259 14.0848 23.8672 14.1189C23.8201 14.1561 23.7595 14.2207 23.6854 14.3128C23.6414 14.3384 23.5248 14.4502 23.3357 14.6484C23.0841 14.9417 22.9259 15.117 22.861 15.1742C22.3256 15.9758 21.8522 16.8248 21.4406 17.7212C21.4105 17.7877 21.3817 17.8732 21.354 17.9776C21.314 18.1284 21.3312 18.2509 21.4055 18.3451C21.4945 18.4308 21.684 18.5121 21.974 18.589C22.2987 18.6751 22.6169 18.716 22.9284 18.7117C23.3164 18.6532 23.6112 18.5949 23.8128 18.5366C23.9326 18.5063 24.0393 18.4787 24.1328 18.4539C24.2409 18.4205 24.3155 18.3968 24.3564 18.3828C24.4274 18.3023 24.4998 18.3339 24.5734 18.4776C24.6586 18.6244 24.7102 18.7808 24.7282 18.947C24.6729 19.1558 24.5815 19.3364 24.4542 19.4888C24.3299 19.6297 24.0808 19.7498 23.7068 19.8493C23.2741 19.9828 22.8467 20.0495 22.4247 20.0493C22.0026 20.0491 21.6176 20.0029 21.2696 19.9106C21.0725 19.8583 20.8973 19.7932 20.7441 19.7153ZM25.7878 20.6433C25.7714 20.5645 25.6974 20.4455 25.5658 20.2865C25.4342 20.1274 25.3715 20.0363 25.3776 20.0131C25.3899 19.9667 25.3778 19.8952 25.3414 19.7986C25.3196 19.6935 25.2947 19.6001 25.2668 19.5182C25.1986 19.4007 25.3424 19.1161 25.6981 18.6642C26.0539 18.2123 26.5096 17.6876 27.0654 17.0901C27.1534 17.0389 27.2727 16.9402 27.4232 16.7939C27.5854 16.6507 27.6869 16.5721 27.7279 16.5581C27.7402 16.5118 27.7683 16.4758 27.8124 16.4502C27.8595 16.413 27.9062 16.4006 27.9526 16.4129L28.1656 16.1714C28.2397 16.0794 28.532 15.89 29.0426 15.6033C29.5531 15.3166 29.9429 15.1344 30.2118 15.0567C30.4721 14.9644 30.7299 14.9521 30.9851 15.0198C31.2635 15.0936 31.4797 15.2378 31.6338 15.4525L31.9975 15.9773C32.2685 16.3595 32.4211 16.58 32.4552 16.6387L32.9466 17.3836L32.4202 18.1751C32.2327 18.4606 32.1021 18.7425 32.0282 19.0209C31.9113 19.4616 31.9239 19.9057 32.066 20.3531C32.0901 20.496 32.1394 20.6146 32.2137 20.7088C32.2996 20.8061 32.4207 20.8879 32.577 20.9542C32.8198 21.0682 32.9136 21.2297 32.8582 21.4384C32.7905 21.6936 32.6934 21.8727 32.5667 21.9757C32.4401 22.0787 32.3084 22.1306 32.1716 22.1316C31.9798 22.1056 31.8492 22.0833 31.7796 22.0649C31.4432 21.9756 31.1589 21.8071 30.9267 21.5593C30.6944 21.3115 30.5293 20.9511 30.4313 20.4782C30.4033 20.3963 30.3734 20.2518 30.3414 20.0447C30.321 19.8406 30.3143 19.7023 30.3211 19.6296C30.2092 19.724 30.0358 19.8395 29.801 19.9758C28.2864 20.8653 27.1579 21.2115 26.4155 21.0147C26.1604 20.947 25.9511 20.8232 25.7878 20.6433ZM27.1277 19.453C27.3071 19.5254 27.7221 19.412 28.3725 19.1128C28.4428 19.0818 28.5204 19.0465 28.6054 19.0069C28.6935 18.9558 28.7873 18.9062 28.887 18.8582C29.2825 18.6775 29.5903 18.5233 29.8105 18.3954C30.0453 18.2591 30.2893 18.0879 30.5426 17.882L31.0914 17.3571C31.0431 17.0712 30.9833 16.8753 30.9121 16.7695C30.8439 16.6521 30.7634 16.5811 30.6706 16.5565C30.4386 16.495 30.0933 16.6268 29.6346 16.9521C29.1789 17.2658 28.5968 17.7756 27.8881 18.4815C27.7052 18.6565 27.5423 18.8491 27.3996 19.0596C27.26 19.2584 27.1693 19.3896 27.1277 19.453ZM34.4746 22.9472C34.3818 22.9226 34.2546 22.8641 34.0929 22.7715C33.9428 22.6821 33.855 22.6153 33.8295 22.5713C33.7752 22.4948 33.7287 22.3894 33.6899 22.2549C33.6541 22.1089 33.6578 21.9547 33.7009 21.7923C33.7685 21.5371 33.9321 21.2949 34.1915 21.0658C34.298 20.9451 34.5997 20.5098 35.0964 19.7601L35.6982 18.8955C35.7737 18.7045 35.799 18.5622 35.7742 18.4687C35.7524 18.3636 35.6676 18.2853 35.5199 18.2337C35.3923 18.1999 35.3103 18.1346 35.2738 18.0381C35.2405 17.9299 35.2499 17.7772 35.3022 17.58C35.4262 17.2529 35.6242 17.0447 35.8962 16.9554C36.1064 16.9119 36.3739 16.9331 36.6986 17.0193C36.9886 17.0962 37.1692 17.1875 37.2405 17.2934C37.3148 17.3876 37.3545 17.5657 37.3595 17.8277C37.3645 18.0897 37.3567 18.3298 37.3361 18.5478C37.4033 18.5284 37.5956 18.4118 37.913 18.198L38.4019 17.8994C38.636 17.8125 38.8976 17.7391 39.1866 17.6791C39.4756 17.6192 39.6723 17.6031 39.7767 17.6308C39.8927 17.6616 40.0281 17.7596 40.1829 17.9248C40.3378 18.09 40.4303 18.2325 40.4606 18.3522C40.5485 18.7232 40.5647 19.013 40.5093 19.2218C40.4663 19.3842 40.3918 19.501 40.286 19.5723C39.8683 19.8836 39.468 19.9885 39.0852 19.8869C38.9925 19.8623 38.9186 19.8365 38.8637 19.8096C38.8088 19.7826 38.7607 19.6829 38.7195 19.5106C38.6783 19.3383 38.6627 19.21 38.6726 19.1257C38.6818 19.0909 38.5764 19.1374 38.3562 19.2653C38.1508 19.3846 38.0187 19.4613 37.96 19.4954L37.5812 19.7301C37.3371 19.9013 37.0689 20.1405 36.7763 20.4478C36.4954 20.7581 36.0724 21.2294 35.5074 21.8617L35.1382 22.3411C34.9515 22.5771 34.8137 22.7454 34.7249 22.846C34.6393 22.935 34.5558 22.9688 34.4746 22.9472ZM40.6488 26.0932C40.1995 25.9616 39.904 25.7653 39.7622 25.5042C39.6289 25.2578 39.6115 24.949 39.7099 24.5778C39.7345 24.485 39.7861 24.3373 39.8647 24.1347C39.9541 23.9846 40.032 23.8315 40.0983 23.6752C40.2239 23.4354 40.3219 23.3 40.3922 23.269C40.4069 23.2605 40.4247 23.2404 40.4455 23.2087C40.4663 23.1769 40.4624 23.1449 40.4338 23.1124C40.4737 22.9616 40.5813 22.7667 40.7565 22.5276C40.8012 22.4526 40.8517 22.3791 40.9081 22.3071C40.9644 22.2351 41.0014 22.1891 41.0192 22.169C41.0021 22.1396 40.9998 22.1018 41.0121 22.0554C41.0275 21.9974 41.0718 21.9471 41.1452 21.9045C41.2302 21.8649 41.2904 21.825 41.3259 21.7848C41.373 21.7476 41.3853 21.7012 41.3628 21.6456C41.355 21.5814 41.5344 21.3497 41.9011 20.9503C42.1318 20.6888 42.2576 20.5421 42.2785 20.5104C42.2761 20.4725 42.4142 20.2795 42.6928 19.9312C42.9829 19.5861 43.2064 19.3288 43.3631 19.1593C43.4828 19.129 43.453 19.0776 43.2736 19.0052C43.0941 18.9328 42.8695 18.867 42.5997 18.8078C42.22 18.6947 41.9288 18.5989 41.7262 18.5203C41.5266 18.4301 41.3723 18.3333 41.2631 18.2299C41.2035 18.1272 41.1906 18.012 41.2244 17.8844C41.2644 17.7336 41.3535 17.6083 41.4918 17.5084C41.6416 17.4116 41.7992 17.3789 41.9647 17.4103C42.2693 17.4787 42.7441 17.5612 43.3889 17.6577L44.2946 17.8235L44.4253 17.5415C44.511 17.4525 44.5862 17.3794 44.6511 17.3221C44.7306 17.2563 44.7839 17.1959 44.8109 17.141C44.8494 17.0891 44.8899 17.0068 44.9323 16.8939C44.9794 16.8567 45.0681 16.7561 45.1985 16.592C45.3406 16.4311 45.4462 16.2666 45.5156 16.0988C45.7016 15.9123 45.873 15.7343 46.0297 15.5648C46.201 15.3867 46.3029 15.2834 46.3353 15.2548C46.6272 14.997 46.9007 14.9019 47.1559 14.9696C47.2951 15.0065 47.4277 15.0913 47.5539 15.2241C47.677 15.3685 47.7684 15.4921 47.8281 15.5948C47.8877 15.6975 47.8991 15.8185 47.8622 15.9577C47.8345 16.0621 47.7423 16.199 47.5856 16.3685C47.5146 16.449 47.3958 16.6161 47.2292 16.8699C47.1203 16.9527 46.9948 17.0747 46.8528 17.2356C46.7139 17.385 46.6055 17.5363 46.5276 17.6894C46.4891 17.7413 46.4327 17.8132 46.3586 17.9053C46.2876 17.9858 46.2375 18.0346 46.2081 18.0516C46.1934 18.0601 46.1687 18.0598 46.1339 18.0506C46.127 18.1232 46.1379 18.1758 46.1666 18.2082C46.1952 18.2406 46.2501 18.2676 46.3313 18.2891C46.3893 18.3045 46.4605 18.3172 46.5447 18.3271C46.6406 18.3401 46.7523 18.3635 46.8799 18.3974C46.999 18.4166 47.1022 18.4253 47.1895 18.4236C47.2885 18.4251 47.3785 18.4365 47.4597 18.4581C47.5061 18.4704 47.5711 18.5062 47.6547 18.5656C47.6942 18.6506 47.6878 18.7917 47.6355 18.9889C47.5955 19.1397 47.5339 19.2785 47.4506 19.4054C47.3703 19.5207 47.2908 19.5865 47.212 19.6028C47.1509 19.599 47.0141 19.6 46.8015 19.6057C46.589 19.6114 46.3652 19.5893 46.1301 19.5393L45.1849 19.3818L44.7323 19.8949C44.6141 20.0125 44.5092 20.1274 44.4173 20.2397C44.3255 20.3519 44.2649 20.4165 44.2356 20.4335C44.2202 20.4915 44.143 20.5952 44.0041 20.7446C43.8651 20.894 43.7586 21.0147 43.6846 21.1068C43.5835 21.2538 43.4708 21.3977 43.3466 21.5386C43.2254 21.6678 43.147 21.7526 43.1115 21.7928C43.0767 21.7836 43.0505 21.789 43.0327 21.8091C43.0296 21.8207 43.0235 21.8439 43.0143 21.8787L43.0121 22.0272C42.9968 22.0852 42.9524 22.1355 42.879 22.1781C42.8265 22.189 42.7693 22.2173 42.7075 22.2629C42.6573 22.3117 42.6234 22.3462 42.6056 22.3663C42.6227 22.3956 42.6266 22.4277 42.6173 22.4625C42.5958 22.5437 42.5275 22.6373 42.4125 22.7434C42.3602 22.9405 42.2006 23.2148 41.9336 23.5661C41.8898 23.7779 41.866 23.9144 41.8622 23.9755C41.8585 24.0366 41.8813 24.0674 41.9308 24.0681L42.0178 24.0912L42.4052 24.1753C42.4956 24.1621 42.4899 24.2537 42.3881 24.4502C42.298 24.6497 42.1148 24.9425 41.8386 25.3286C41.5938 25.5493 41.3467 25.732 41.0972 25.8769C40.8563 26.0365 40.7068 26.1086 40.6488 26.0932ZM50.9553 28.0445C49.6331 27.6938 49.1719 26.7646 49.5718 25.2567C49.7164 24.7115 50.0128 24.1322 50.4611 23.5186C50.924 22.8965 51.4308 22.3667 51.9813 21.9292C52.5466 21.4832 53.0568 21.2212 53.512 21.1433C53.7631 21.0858 54.0337 21.0955 54.3236 21.1724C54.8456 21.3108 55.2672 21.5468 55.5884 21.8803C55.9243 22.2053 56.0092 22.6809 55.8431 23.3073C55.7478 23.6668 55.5214 24.0289 55.164 24.3934C54.8066 24.758 54.4023 25.0419 53.9511 25.245C53.5147 25.4396 53.1224 25.4908 52.7745 25.3985C52.2525 25.26 51.8564 24.975 51.586 24.5432C51.2842 24.8853 51.0857 25.2361 50.9903 25.5957C50.9134 25.8856 50.8882 26.1211 50.9147 26.3019C50.9443 26.4711 51.0867 26.5896 51.3419 26.6573C51.5855 26.7219 51.7919 26.7394 51.9611 26.7098C52.1304 26.6802 52.2911 26.6359 52.4433 26.577C52.5955 26.518 52.7125 26.4746 52.7944 26.4466L52.8733 26.4303L52.8559 26.4257C53.0954 26.365 53.2693 26.318 53.3774 26.2847C53.5003 26.2428 53.5996 26.2194 53.6753 26.2147C53.8493 26.2608 53.9979 26.3561 54.121 26.5005C54.2441 26.6449 54.2856 26.7924 54.2456 26.9432C54.2149 27.0592 54.0597 27.2229 53.7802 27.4343C53.5037 27.6341 53.2415 27.757 52.9934 27.8029L52.7569 27.852L52.7743 27.8566C52.633 27.9681 52.5102 28.01 52.4058 27.9823L52.2666 27.9454C52.1956 28.0259 52.0144 28.0771 51.723 28.0992C51.4432 28.1243 51.1873 28.1061 50.9553 28.0445ZM52.9721 24.0915C53.2969 24.1776 53.6006 24.1092 53.8832 23.8862C54.1774 23.6662 54.3614 23.4171 54.4353 23.1387C54.4691 23.0111 54.4651 22.8859 54.4232 22.7631C54.3929 22.6433 54.3255 22.5696 54.2211 22.5419C54.0239 22.4896 53.779 22.5239 53.4862 22.6449C53.1934 22.7659 52.9142 22.9525 52.6486 23.2049L52.3255 23.5103C52.3781 23.4994 52.4159 23.497 52.4391 23.5032C52.5319 23.5278 52.5908 23.5868 52.6156 23.6803C52.6405 23.7738 52.6742 23.8573 52.7168 23.9306C52.7595 24.004 52.8446 24.0576 52.9721 24.0915ZM56.2015 28.7655C55.9921 28.7596 55.782 28.5922 55.5713 28.2632C55.3606 27.9342 55.2612 27.6533 55.2733 27.4206C55.2809 27.2985 55.2954 27.1968 55.3169 27.1156C55.4369 26.6633 55.7265 26.1566 56.1857 25.5955C56.6479 25.0229 57.198 24.517 57.8359 24.0779C58.4854 23.6418 59.1397 23.3746 59.799 23.2763C60.0764 23.2133 60.2499 23.1911 60.3195 23.2095C60.3891 23.228 60.5287 23.3333 60.7385 23.5255C60.9551 23.645 61.1237 23.758 61.2445 23.8646C61.3652 23.9711 61.4636 24.1151 61.5396 24.2966C61.6104 24.6382 61.6221 25.0386 61.5748 25.4978C61.5798 25.7599 61.5685 25.9431 61.5408 26.0475C61.5162 26.1403 61.4598 26.2122 61.3718 26.2634C61.3571 26.2719 61.3278 26.2889 61.2837 26.3145C61.2513 26.3431 61.232 26.3691 61.2259 26.3923C61.2228 26.4039 61.2328 26.4127 61.256 26.4189C61.253 26.4305 61.2395 26.4579 61.2156 26.5013C61.1947 26.533 61.1577 26.579 61.1044 26.6394C60.8484 27.0432 60.688 27.3669 60.6234 27.6105C60.6019 27.6917 60.5873 27.7934 60.5798 27.9155C60.6158 28.2479 60.7208 28.4371 60.8947 28.4833C61.0571 28.5263 61.2704 28.4712 61.5346 28.3177C61.7393 28.2479 61.9287 28.236 62.1027 28.2822C62.207 28.3099 62.2516 28.3527 62.2362 28.4107C62.2447 28.4254 62.2633 28.4489 62.2919 28.4814C62.3206 28.5138 62.3523 28.5346 62.3871 28.5438C62.4335 28.5562 62.4428 28.6145 62.4151 28.7189C62.3905 28.8117 62.335 28.9273 62.2487 29.0658C62.1739 29.2074 62.0952 29.3168 62.0126 29.3943C61.9098 29.4539 61.8276 29.5066 61.7658 29.5523C61.704 29.598 61.6685 29.6382 61.6593 29.673L61.3337 29.8474C61.0795 29.9165 60.8016 29.9111 60.5 29.8311C60.1869 29.748 59.9544 29.6181 59.8026 29.4413C59.6509 29.2645 59.5184 29.0618 59.4053 28.8331C59.2952 28.5929 59.2369 28.3912 59.2305 28.2281L59.1897 28.031L58.5975 28.2278L58.0425 28.5648C57.919 28.6562 57.8224 28.6926 57.7528 28.6742L57.5788 28.628C57.5573 28.7092 57.3688 28.7647 57.0132 28.7946C56.6577 28.8245 56.3871 28.8148 56.2015 28.7655ZM56.9545 27.401C57.0821 27.4348 57.3815 27.359 57.8528 27.1737C58.3388 26.9798 58.6744 26.8143 58.8597 26.6772C58.9215 26.6315 59.001 26.5657 59.0983 26.4798C59.2103 26.3853 59.3029 26.3168 59.3763 26.2742C59.6204 26.103 59.7999 25.9644 59.9149 25.8583C60.0446 25.7438 60.1264 25.6227 60.1602 25.4951C60.1848 25.4023 60.1781 25.2639 60.14 25.08C60.1305 24.9285 60.0794 24.8405 59.9866 24.8159C59.9402 24.8036 59.796 24.8088 59.5541 24.8315C59.2999 24.9007 58.9697 25.0924 58.5635 25.4068C58.1689 25.7243 57.8076 26.0568 57.4796 26.4043C57.1515 26.7518 56.9629 27.0183 56.9137 27.2039C56.9044 27.2387 56.9068 27.2766 56.9208 27.3175C56.9348 27.3585 56.946 27.3863 56.9545 27.401ZM64.0516 31.4621C63.7732 31.3883 63.4986 31.2534 63.2278 31.0574C62.9686 30.8645 62.7562 30.6592 62.5904 30.4414C62.4394 30.2151 62.3823 30.0324 62.4193 29.8932C62.4562 29.754 62.543 29.6839 62.6799 29.683L62.7853 29.6365C62.8116 29.631 62.8595 29.6375 62.9291 29.656C62.9786 29.6567 63.035 29.6779 63.0985 29.7195C63.165 29.7496 63.2215 29.7707 63.2679 29.7831C63.3429 29.8278 63.4585 29.8833 63.6148 29.9496L64.0533 30.1217C64.2853 30.1832 64.506 30.217 64.7155 30.2229C64.9366 30.2318 65.0548 30.2073 65.0702 30.1493C65.0794 30.1145 65.0484 30.0442 64.9771 29.9384C64.9059 29.8326 64.8181 29.7659 64.7137 29.7382C64.726 29.6918 64.5877 29.4875 64.2989 29.1254C64.1417 28.9223 63.9903 28.7208 63.8447 28.5208C63.7107 28.3238 63.653 28.1906 63.6714 28.121L63.6981 28.0908L63.7211 28.0038C63.6399 27.9823 63.5938 27.8521 63.5826 27.6132C63.5715 27.3744 63.5936 27.1506 63.649 26.9418C63.7536 26.5474 64.0429 26.1586 64.517 25.7754C64.9911 25.3921 65.5341 25.0767 66.146 24.8293C66.7694 24.585 67.3316 24.4548 67.8325 24.4386C68.028 24.4036 68.2939 24.4307 68.6303 24.5199C68.8507 24.5783 68.9953 24.6415 69.0642 24.7094L69.2126 24.7116C69.3518 24.7485 69.5008 24.9122 69.6597 25.2026C69.8186 25.493 69.9085 25.7155 69.9296 25.8701C69.8281 26.2528 69.735 26.5571 69.6502 26.783C69.5655 27.0088 69.4768 27.1094 69.384 27.0848C69.3724 27.0817 69.3534 27.0829 69.3272 27.0884C69.3009 27.0938 69.2816 27.1197 69.2693 27.1661C69.2262 27.3285 69.0335 27.4698 68.6913 27.5901C68.3606 27.7135 68.0793 27.7444 67.8473 27.6828L67.7823 27.647C67.7158 27.6169 67.6299 27.5197 67.5245 27.3551C67.4308 27.1937 67.4008 27.0492 67.4347 26.9216C67.4439 26.8868 67.5381 26.8125 67.7173 26.6986C67.8964 26.5847 68.0509 26.4705 68.1806 26.3559C68.325 26.2328 68.4187 26.0901 68.4618 25.9277C68.4772 25.8697 68.4632 25.8288 68.4199 25.8049C68.3912 25.7724 68.3189 25.7408 68.2029 25.7101C67.4881 25.8309 66.9576 25.9819 66.6116 26.1633C66.5583 26.2236 66.5097 26.2666 66.4656 26.2922C66.4332 26.3208 66.3938 26.329 66.3474 26.3167C66.3505 26.3051 66.3462 26.2977 66.3346 26.2947C66.3114 26.2885 66.2176 26.3381 66.0531 26.4435C65.8916 26.5372 65.7299 26.6557 65.5677 26.7989C65.4172 26.9452 65.3103 27.0907 65.2471 27.2353L65.1985 27.2783L65.1754 27.3653C65.1577 27.3854 65.1396 27.4303 65.1211 27.4998C65.0934 27.6042 65.1106 27.7267 65.1726 27.8673C65.2377 27.9963 65.3833 28.1963 65.6094 28.4674C66.0268 29.0002 66.3021 29.3898 66.4354 29.6362C66.5833 29.874 66.6605 30.0745 66.6669 30.2376C66.7159 30.4741 66.7189 30.6735 66.6758 30.8359C66.5712 31.2303 66.2809 31.4823 65.8049 31.5919C65.3436 31.693 64.7592 31.6497 64.0516 31.4621ZM75.4126 27.287C75.4616 27.5235 75.4507 27.7751 75.3799 28.0419C75.2907 28.3783 75.1415 28.6366 74.9323 28.817C74.7732 28.9487 74.6042 29.1646 74.4253 29.4647C74.258 29.7679 74.0614 30.1814 73.8356 30.705C73.6143 31.1181 73.3068 31.7628 72.913 32.6391C72.5982 33.077 72.3853 33.4116 72.2743 33.6429C72.2442 33.7094 72.1478 33.839 71.9849 34.0317C71.8337 34.2275 71.7122 34.3815 71.6203 34.4937C70.8184 35.4108 69.9872 36.0407 69.1265 36.3835C68.2775 36.7294 67.4756 36.8272 66.721 36.6767C66.5293 36.6506 66.416 36.633 66.3812 36.6238C66.2768 36.5961 66.1828 36.5526 66.0993 36.4931C66.0273 36.4368 65.9468 36.3658 65.8578 36.2801C65.6689 36.0562 65.5663 35.9048 65.5499 35.826C65.5227 35.6947 65.5245 35.571 65.5552 35.455C65.6014 35.281 65.7149 35.1807 65.8957 35.1542C66.0735 35.1393 66.2667 35.1595 66.4755 35.2149C66.5444 35.2828 66.6774 35.3429 66.8746 35.3952C67.0718 35.4475 67.194 35.4551 67.2411 35.4179C67.2704 35.4009 67.3508 35.3787 67.4821 35.3515C67.6104 35.3359 67.7546 35.3307 67.9146 35.3358C68.3466 35.2518 68.6858 35.1431 68.9322 35.0098C69.1902 34.8796 69.4948 34.6438 69.8461 34.3025C70.2529 33.9386 70.5505 33.5892 70.7386 33.2542C70.9909 32.9115 71.3214 32.3908 71.7302 31.6922L71.7082 31.705C71.6317 31.7592 71.459 31.8252 71.1901 31.9028C70.9243 31.9689 70.7682 31.9958 70.7218 31.9835C70.7102 31.9804 70.6913 31.9816 70.665 31.987C70.6387 31.9925 70.621 32.0126 70.6118 32.0474C70.5995 32.0938 70.4287 32.1292 70.0994 32.1536C69.7732 32.1664 69.5695 32.162 69.4883 32.1405C69.3724 32.1097 69.2617 32.0121 69.1563 31.8476C69.0626 31.6862 69.0006 31.5456 68.9703 31.4258C68.9515 31.3091 68.8922 31.1816 68.7923 31.0434C68.6901 30.8673 68.618 30.7178 68.5761 30.595C68.5372 30.4605 68.5378 30.3179 68.5778 30.1671C68.5993 30.0859 68.6221 30.0237 68.646 29.9804C68.9236 29.4953 69.391 28.7627 70.0483 27.7824C70.7202 26.7936 71.1786 26.1889 71.4233 25.9683C71.4882 25.911 71.5905 25.8761 71.7304 25.8635C71.8703 25.851 72.0041 25.8616 72.1317 25.8954C72.3636 25.957 72.5018 26.0681 72.546 26.2288C72.6329 26.4629 72.6579 26.6496 72.621 26.7887C72.5779 26.9511 72.4337 27.1674 72.1882 27.4375C72.108 27.5528 72.0131 27.6766 71.9035 27.8089C71.7939 27.9412 71.7345 28.0248 71.7253 28.0596C71.7014 28.1029 71.6281 28.2387 71.5055 28.4669C71.386 28.6835 71.303 28.7856 71.2567 28.7733C71.1686 28.8244 71.0228 29.0465 70.8193 29.4394C70.6304 29.8239 70.5037 30.1379 70.4391 30.3814C70.4022 30.5206 70.4011 30.5948 70.4359 30.6041C70.7491 30.6871 71.0722 30.6859 71.4052 30.6004C71.7413 30.5034 72.1152 30.3108 72.5268 30.0227C72.6501 29.745 72.797 29.4487 72.9674 29.1339C73.1494 28.8221 73.2732 28.6129 73.3387 28.5061C73.7382 27.8424 74.0312 27.2993 74.2177 26.877C74.3304 26.7331 74.4072 26.6541 74.4481 26.6402C74.4922 26.6146 74.5722 26.6172 74.6882 26.648C74.8274 26.6849 74.9674 26.7655 75.1082 26.8897C75.2607 27.0171 75.3621 27.1495 75.4126 27.287ZM79.1216 34.7886C79.1052 34.7097 79.0312 34.5908 78.8996 34.4317C78.768 34.2727 78.7053 34.1815 78.7114 34.1583C78.7237 34.112 78.7116 34.0405 78.6752 33.9439C78.6534 33.8388 78.6285 33.7453 78.6006 33.6634C78.5324 33.546 78.6762 33.2613 79.0319 32.8094C79.3877 32.3575 79.8434 31.8328 80.3992 31.2353C80.4872 31.1842 80.6065 31.0855 80.757 30.9392C80.9192 30.796 81.0207 30.7174 81.0617 30.7034C81.074 30.657 81.1021 30.621 81.1462 30.5954C81.1933 30.5583 81.24 30.5458 81.2864 30.5582L81.4994 30.3167C81.5735 30.2246 81.8658 30.0352 82.3764 29.7485C82.8869 29.4618 83.2767 29.2796 83.5456 29.202C83.8059 29.1096 84.0637 29.0973 84.3189 29.165C84.5973 29.2388 84.8135 29.3831 84.9676 29.5978L85.3313 30.1225C85.6023 30.5048 85.7549 30.7253 85.789 30.784L86.2804 31.5289L85.754 32.3203C85.5665 32.6058 85.4359 32.8877 85.362 33.1661C85.2451 33.6069 85.2577 34.051 85.3998 34.4983C85.4239 34.6413 85.4732 34.7599 85.5475 34.8541C85.6334 34.9514 85.7545 35.0331 85.9108 35.0994C86.1536 35.2135 86.2474 35.3749 86.192 35.5837C86.1243 35.8389 86.0272 36.0179 85.9005 36.1209C85.7739 36.2239 85.6422 36.2759 85.5054 36.2768C85.3136 36.2508 85.183 36.2286 85.1134 36.2101C84.777 36.1209 84.4927 35.9524 84.2605 35.7046C84.0282 35.4567 83.8631 35.0964 83.7651 34.6234C83.7371 34.5415 83.7072 34.397 83.6752 34.1899C83.6548 33.9859 83.6481 33.8475 83.6549 33.7748C83.543 33.8693 83.3696 33.9847 83.1348 34.1211C81.6202 35.0105 80.4917 35.3568 79.7493 35.1599C79.4942 35.0922 79.2849 34.9684 79.1216 34.7886ZM80.4615 33.5983C80.6409 33.6707 81.0559 33.5573 81.7063 33.258C81.7766 33.227 81.8542 33.1917 81.9392 33.1522C82.0273 33.1011 82.1211 33.0515 82.2208 33.0034C82.6163 32.8228 82.9241 32.6685 83.1443 32.5407C83.3791 32.4043 83.6231 32.2332 83.8764 32.0272L84.4252 31.5024C84.3769 31.2164 84.3171 31.0206 84.2459 30.9148C84.1777 30.7974 84.0972 30.7263 84.0044 30.7017C83.7724 30.6402 83.4271 30.7721 82.9684 31.0974C82.5127 31.411 81.9306 31.9208 81.2219 32.6268C81.039 32.8017 80.8761 32.9944 80.7334 33.2048C80.5938 33.4037 80.5031 33.5348 80.4615 33.5983ZM91.9386 38.0203C91.7646 37.9742 91.6029 37.8816 91.4536 37.7427C91.3042 37.6037 91.2019 37.4276 91.1467 37.2144L91.1059 37.0173C91.0713 36.586 91.1032 36.1848 91.2017 35.8136L91.4047 35.0481C91.4385 34.9205 91.4439 34.8536 91.4207 34.8475C91.3279 34.8229 90.8277 35.0937 89.9202 35.66C89.283 36.0497 88.7404 36.3403 88.2923 36.5318C87.8589 36.7148 87.5726 36.7879 87.4335 36.7509C87.3871 36.7386 87.2876 36.6688 87.1352 36.5415C86.9858 36.4025 86.8941 36.3037 86.86 36.245C86.8003 36.1423 86.7743 36.0299 86.7819 35.9077C86.7894 35.7856 86.8363 35.5621 86.9224 35.2374C87.0208 34.8662 87.207 34.4686 87.4808 34.0447C87.7577 33.6091 88.1806 33.0446 88.7493 32.3513C88.8852 32.2135 89.0303 32.0409 89.1846 31.8335C89.6113 31.3011 89.9715 30.9497 90.265 30.7793C90.3578 30.8039 90.42 30.8266 90.4517 30.8474C90.5994 30.899 90.755 31.0148 90.9183 31.1946C91.0933 31.3776 91.1762 31.5796 91.1673 31.8007C91.115 31.9979 91.0337 32.1874 90.9234 32.3692C90.8131 32.551 90.6151 32.7592 90.3294 32.9938C90.1557 33.1339 89.8875 33.4663 89.5249 33.9909C89.4423 34.0683 89.3227 34.1917 89.166 34.3612C89.024 34.5222 88.9499 34.6143 88.9437 34.6375C88.9523 34.6522 88.9932 34.6382 89.0666 34.5956C89.143 34.5414 89.2179 34.493 89.2913 34.4503L89.8857 34.1052C91.045 33.4319 91.8771 33.1498 92.3821 33.2589C92.6372 33.3265 92.828 33.5199 92.9545 33.839C93.0809 34.1581 93.0949 34.5032 92.9964 34.8744C92.978 34.9439 92.9141 35.1381 92.8048 35.4567L92.5417 36.4484C92.827 36.4495 93.0469 36.4396 93.2014 36.4185C93.5191 36.391 93.8376 36.4072 94.1569 36.4671C94.0814 36.6581 93.902 36.8899 93.6187 37.1623C93.347 37.4379 93.0512 37.6636 92.7314 37.8395C92.4117 38.0154 92.1474 38.0757 91.9386 38.0203ZM99.037 40.8154C98.877 40.8102 98.7412 40.737 98.6297 40.5957C98.5182 40.4544 98.4461 40.3049 98.4134 40.1473C98.3985 39.9695 98.3994 39.8021 98.4162 39.6452C98.4361 39.4767 98.4756 39.2575 98.5348 38.9876L98.6743 38.3914L97.7902 38.846C96.878 39.3365 96.1087 39.4987 95.4823 39.3326C95.306 39.2486 95.1097 39.0289 94.8936 38.6737C94.689 38.3215 94.5723 38.036 94.5434 37.8173C94.5216 37.7122 94.5369 37.561 94.5892 37.3639C94.7061 36.9231 94.962 36.4261 95.3571 35.8729C95.7552 35.3081 96.179 34.8804 96.6284 34.5899C96.9851 34.2749 97.3694 34.0664 97.7813 33.9646C98.1932 33.8628 98.5847 33.8611 98.9558 33.9595C99.3038 34.0518 99.5912 34.2087 99.818 34.4303C99.9588 34.5545 100.081 34.6305 100.186 34.6582C100.302 34.6889 100.397 34.6336 100.472 34.492C100.499 34.4371 100.63 34.2236 100.865 33.8514L101.204 33.3454C101.663 32.6476 102.046 32.0913 102.355 31.6765C102.663 31.2618 103.025 30.8114 103.439 30.3254C103.62 30.1126 103.789 29.9651 103.948 29.883C104.106 29.8008 104.236 29.7794 104.337 29.8187C104.488 29.8587 104.637 29.954 104.783 30.1045C104.944 30.2465 105.033 30.4006 105.051 30.5668C105.065 30.6572 105.056 30.7604 105.025 30.8764C104.991 31.004 104.921 31.1281 104.815 31.2489C104.375 31.6908 103.777 32.4449 103.023 33.5111C102.268 34.5773 101.654 35.5131 101.179 36.3184C101.004 36.6069 100.819 37.0234 100.625 37.5679C100.442 38.1154 100.28 38.656 100.139 39.1895C100.003 39.6999 99.9361 40.0235 99.937 40.1603C99.9418 40.236 99.9287 40.3319 99.898 40.4479C99.8457 40.6451 99.7407 40.76 99.5831 40.7927C99.4339 40.84 99.2519 40.8476 99.037 40.8154ZM96.7246 37.9488C97.019 37.9152 97.361 37.8197 97.7503 37.6622C98.166 37.4993 98.4754 37.3393 98.6784 37.1821C98.8931 37.028 99.0868 36.8124 99.2596 36.5355C99.2982 36.4836 99.3313 36.4055 99.359 36.3011C99.4144 36.0923 99.3666 35.8748 99.2155 35.6485C99.1241 35.525 99.0031 35.4432 98.8523 35.4032C98.6087 35.3386 98.3197 35.3985 97.9852 35.5829C97.6098 35.7813 97.2832 36.0299 97.0053 36.3287C96.7305 36.6158 96.4509 37.0382 96.1664 37.5959C96.1217 37.671 96.1148 37.7437 96.1458 37.814C96.1799 37.8727 96.2491 37.9159 96.3535 37.9435C96.4347 37.9651 96.5584 37.9668 96.7246 37.9488ZM106.022 43.9344C105.869 43.906 105.742 43.7733 105.644 43.5361C105.545 43.2989 105.489 42.9983 105.473 42.6342C105.467 42.2848 105.513 41.9246 105.611 41.5534C105.624 41.4575 105.655 41.3168 105.704 41.1312C105.923 40.3077 106.49 39.1297 107.405 37.5971C107.721 37.0603 108.244 36.3299 108.973 35.4059C109.703 34.482 110.124 33.9917 110.239 33.9352L110.273 33.9444C110.32 33.9567 110.357 33.9106 110.385 33.8063C110.391 33.7831 110.46 33.7084 110.593 33.5822C110.729 33.4444 110.859 33.3051 110.983 33.1643C111.319 32.8809 111.733 32.6059 112.226 32.3393C112.734 32.0642 113.135 31.9099 113.429 31.8762C113.622 31.8528 113.805 31.8641 113.979 31.9103C114.199 31.9687 114.423 32.1087 114.65 32.3303C114.879 32.5402 115.058 32.78 115.185 33.0496C115.312 33.3192 115.348 33.5584 115.293 33.7672C115.243 33.9527 115.155 34.1218 115.028 34.2742C114.908 34.4908 114.724 34.74 114.476 35.0217C114.227 35.3034 114.023 35.51 113.864 35.6417C113.557 35.7712 113.293 35.8067 113.073 35.7482C112.968 35.7206 112.893 35.6758 112.847 35.614C112.813 35.5553 112.82 35.5074 112.867 35.4702C112.9 35.3921 112.944 35.2981 112.998 35.1883C113.066 35.0699 113.122 34.9543 113.164 34.8414C113.17 34.8182 113.212 34.7548 113.289 34.6511C113.381 34.5389 113.441 34.4306 113.468 34.3262C113.68 33.9479 113.803 33.695 113.837 33.5674C113.874 33.4282 113.835 33.3432 113.719 33.3124C113.617 33.2732 113.498 33.2787 113.36 33.3292C113.238 33.3711 113.165 33.4326 113.144 33.5138L113.125 33.5834C113.07 33.5564 112.818 33.7129 112.368 34.0529C111.929 34.3959 111.559 34.7137 111.258 35.0063C110.968 35.3514 110.553 35.8869 110.013 36.6127L109.763 36.9934L110.032 37.102C110.122 37.1382 110.417 37.173 110.917 37.2063C110.989 37.2132 111.09 37.2335 111.217 37.2673C111.461 37.3319 111.627 37.4318 111.715 37.567C111.815 37.7052 111.879 37.8837 111.908 38.1024C111.924 38.2307 111.925 38.318 111.913 38.3644C111.867 38.5384 111.688 38.6276 111.377 38.6318C111.068 38.6245 110.532 38.5383 109.769 38.3731C109.668 38.3338 109.536 38.2927 109.374 38.2496C109.188 38.2004 109.066 38.1928 109.007 38.2269C108.929 38.2432 108.752 38.4634 108.478 38.8874C108.216 39.3144 107.996 39.7217 107.819 40.1092C107.559 40.5741 107.34 41.1429 107.162 41.8157C107.002 42.4188 106.922 42.882 106.923 43.2051C106.923 43.2545 106.913 43.3141 106.895 43.3837C106.809 43.7084 106.518 43.892 106.022 43.9344ZM111.379 43.4555C111.297 43.434 111.203 43.3468 111.094 43.1939C110.997 43.0441 110.95 42.9197 110.951 42.8207C110.946 42.7944 110.954 42.7407 110.975 42.6595C111.015 42.5087 111.163 42.2314 111.419 41.8276L111.689 41.3031C111.94 40.8235 112.158 40.4221 112.343 40.0987C112.397 40.0383 112.519 39.8596 112.709 39.5625C112.846 39.3258 113.005 39.101 113.186 38.8882C113.464 38.4032 113.821 37.9455 114.258 37.5151C114.308 37.4663 114.384 37.4121 114.487 37.3525C114.59 37.2928 114.659 37.2676 114.693 37.2768C114.781 37.2257 114.889 37.217 115.017 37.2509C115.202 37.3001 115.354 37.4085 115.471 37.5761C115.575 37.7901 115.601 37.9956 115.549 38.1928C115.491 38.4132 115.337 38.6642 115.089 38.9459C114.928 39.1765 114.691 39.4613 114.378 39.8003C114.139 40.0472 113.989 40.2124 113.93 40.296C114.118 40.1473 114.512 39.8793 115.111 39.492C115.291 39.3782 115.456 39.2917 115.609 39.2328C115.764 39.1622 115.991 39.0796 116.289 38.9849C116.593 38.867 116.83 38.7932 116.999 38.7636C117.172 38.7224 117.356 38.728 117.554 38.7803C117.646 38.8049 117.714 38.8292 117.758 38.8531C117.912 38.8815 118.042 39.0216 118.149 39.2734C118.268 39.5283 118.292 39.7892 118.221 40.056C118.193 40.1604 118.148 40.2601 118.086 40.3553C117.953 40.2952 117.857 40.2574 117.799 40.2421C117.567 40.1805 117.346 40.1716 117.136 40.2151C116.937 40.2618 116.768 40.3161 116.627 40.3781C116.489 40.4286 116.4 40.4608 116.359 40.4747C115.883 40.6339 115.306 40.8658 114.629 41.1705C114.289 41.3286 114.027 41.4762 113.841 41.6133C113.656 41.7503 113.496 41.9067 113.363 42.0824C113.321 42.1458 113.139 42.3891 112.816 42.8124C112.495 43.2241 112.272 43.4567 112.146 43.5102C112.054 43.6224 111.887 43.6462 111.643 43.5816C111.516 43.5477 111.427 43.5057 111.379 43.4555ZM118.731 46.0201C117.409 45.6694 116.948 44.7402 117.348 43.2323C117.492 42.6871 117.789 42.1078 118.237 41.4942C118.7 40.8721 119.207 40.3423 119.757 39.9048C120.322 39.4588 120.833 39.1968 121.288 39.1189C121.539 39.0614 121.81 39.0711 122.1 39.148C122.621 39.2864 123.043 39.5224 123.364 39.8559C123.7 40.1808 123.785 40.6565 123.619 41.2828C123.524 41.6424 123.297 42.0045 122.94 42.369C122.582 42.7336 122.178 43.0174 121.727 43.2206C121.291 43.4152 120.898 43.4663 120.55 43.3741C120.028 43.2356 119.632 42.9505 119.362 42.5188C119.06 42.8609 118.862 43.2117 118.766 43.5713C118.689 43.8612 118.664 44.0966 118.691 44.2775C118.72 44.4467 118.863 44.5652 119.118 44.6329C119.361 44.6975 119.568 44.715 119.737 44.6854C119.906 44.6558 120.067 44.6115 120.219 44.5525C120.371 44.4936 120.488 44.4501 120.57 44.4222L120.649 44.4059L120.632 44.4013C120.871 44.3406 121.045 44.2936 121.153 44.2603C121.276 44.2183 121.375 44.195 121.451 44.1903C121.625 44.2364 121.774 44.3317 121.897 44.4761C122.02 44.6205 122.062 44.768 122.022 44.9188C121.991 45.0348 121.836 45.1985 121.556 45.4099C121.28 45.6097 121.017 45.7326 120.769 45.7785L120.533 45.8276L120.55 45.8322C120.409 45.9437 120.286 45.9856 120.182 45.9579L120.042 45.921C119.971 46.0015 119.79 46.0527 119.499 46.0748C119.219 46.0999 118.963 46.0817 118.731 46.0201ZM120.748 42.0671C121.073 42.1532 121.376 42.0848 121.659 41.8618C121.953 41.6418 122.137 41.3927 122.211 41.1143C122.245 40.9867 122.241 40.8615 122.199 40.7386C122.169 40.6189 122.101 40.5451 121.997 40.5175C121.8 40.4652 121.555 40.4995 121.262 40.6205C120.969 40.7415 120.69 40.9281 120.425 41.1805L120.101 41.4859C120.154 41.475 120.192 41.4726 120.215 41.4788C120.308 41.5034 120.367 41.5624 120.392 41.6559C120.416 41.7494 120.45 41.8329 120.493 41.9062C120.535 41.9796 120.62 42.0332 120.748 42.0671ZM124.075 46.9346C123.732 46.6823 123.51 46.375 123.407 46.0126C123.319 45.6417 123.343 45.201 123.478 44.6907C123.509 44.5747 123.576 44.369 123.679 44.0736C123.716 43.9839 123.751 43.8752 123.784 43.7476C123.837 43.5504 123.852 43.3993 123.83 43.2942C123.811 43.1775 123.758 43.0516 123.67 42.9164C123.644 42.8724 123.583 42.7755 123.486 42.6256C123.389 42.4758 123.354 42.3734 123.381 42.3185L123.395 42.2663C123.417 42.1851 123.457 42.1027 123.517 42.0192C123.591 41.9271 123.648 41.8741 123.689 41.8601C123.727 41.8577 123.806 41.8414 123.926 41.8111C124.045 41.7808 124.131 41.7849 124.183 41.8235C124.229 41.8358 124.291 41.8833 124.369 41.9659C124.458 42.0515 124.496 42.1176 124.484 42.164C124.516 42.3216 124.756 42.1431 125.203 41.6285C125.43 41.428 125.713 41.2486 126.053 41.0905C126.396 40.9207 126.701 40.8028 126.967 40.7368C127.057 40.7235 127.249 40.7248 127.543 40.7406C127.851 40.748 128.087 40.7731 128.249 40.8162C128.435 40.8654 128.629 40.9977 128.833 41.2131C129.048 41.4316 129.214 41.6493 129.33 41.8664C129.527 42.105 129.562 42.4679 129.432 42.955C129.355 43.245 129.243 43.4821 129.095 43.6662C129.002 43.8279 128.699 44.0332 128.187 44.282C127.688 44.5223 127.298 44.6608 127.015 44.6975C126.744 44.6878 126.452 44.6415 126.139 44.5584C125.826 44.4753 125.619 44.3894 125.519 44.3007C125.45 44.2327 125.374 44.2375 125.291 44.3149C125.223 44.3838 125.132 44.5644 125.017 44.8567L124.954 45.0261C124.92 45.1537 124.917 45.2832 124.944 45.4145C124.988 45.5753 125.037 45.6939 125.092 45.7703C125.146 45.8468 125.242 45.9034 125.382 45.9404L125.543 45.9645C125.674 45.9867 125.824 45.9583 125.994 45.8792C126.175 45.8032 126.391 45.6928 126.64 45.5479C126.901 45.4061 127.054 45.3224 127.098 45.2968C127.187 45.1962 127.359 45.1798 127.614 45.2475C127.718 45.2751 127.847 45.3279 128 45.4058C128.092 45.5293 128.119 45.6607 128.082 45.7999C128.03 45.9971 127.866 46.2392 127.591 46.5264C127.502 46.627 127.27 46.7765 126.895 46.9749C126.531 47.1764 126.248 47.3062 126.047 47.3645C125.687 47.4554 125.316 47.4501 124.934 47.3486C124.644 47.2717 124.358 47.1337 124.075 46.9346ZM126.401 43.3615C126.698 43.3657 126.934 43.3414 127.109 43.2886C127.299 43.2273 127.537 43.0793 127.823 42.8447C127.989 42.591 128.051 42.4274 128.009 42.354C127.958 42.266 127.886 42.2096 127.793 42.185C127.677 42.1543 127.521 42.1811 127.325 42.2657C127.199 42.2697 127.008 42.3368 126.75 42.467C126.506 42.5887 126.292 42.7181 126.107 42.8552C125.925 42.9806 125.858 43.0684 125.907 43.1186C125.874 43.1473 125.924 43.1917 126.057 43.2518C126.194 43.3003 126.308 43.3368 126.401 43.3615ZM22.0189 34.9658C21.9569 34.8252 21.9535 34.6505 22.0089 34.4417C22.0581 34.2561 22.1437 34.0739 22.2656 33.8952C22.3906 33.7049 22.531 33.5497 22.687 33.4297C22.9017 33.2756 23.1656 33.2401 23.4788 33.3231C23.6876 33.3785 23.8477 33.4768 23.9592 33.6181C24.0478 33.9396 24.0659 34.1989 24.0136 34.3961C23.9675 34.5701 23.8811 34.7085 23.7544 34.8115C23.4988 34.9796 23.2454 35.0924 22.9943 35.15C22.7431 35.2075 22.5248 35.2117 22.3392 35.1624C22.1884 35.1224 22.0816 35.0569 22.0189 34.9658ZM16.283 46.2008C15.9718 46.3914 15.6248 46.4359 15.242 46.3344C14.8244 46.2236 14.5107 45.979 14.3007 45.6005C14.1541 45.2637 14.0671 44.9365 14.0396 44.6188C14.0121 44.3011 14.0292 44.0263 14.0907 43.7943C14.1399 43.6087 14.2147 43.4672 14.315 43.3697C14.4123 43.2837 14.5248 43.2577 14.6524 43.2915C14.7567 43.3192 14.8879 43.4099 15.0458 43.5635C15.1921 43.714 15.2498 43.8473 15.2191 43.9632C15.1637 44.172 15.1438 44.3406 15.1595 44.4689C15.1635 44.5941 15.2336 44.6809 15.3697 44.7295C15.4014 44.7503 15.4463 44.7684 15.5043 44.7838C15.7246 44.8422 15.9823 44.7368 16.2772 44.4674C16.5421 44.2645 16.8944 43.8489 17.3341 43.2206C17.7824 42.6071 18.0363 42.2585 18.0957 42.1749C18.2746 41.8748 18.4512 41.5367 18.6253 41.1608C18.8111 40.788 18.9295 40.5525 18.9803 40.4542L19.5295 39.2963C19.6351 39.0388 19.7492 38.7959 19.8718 38.5677C20.006 38.3426 20.0865 38.2025 20.1135 38.1476C20.1904 37.8577 20.291 37.6422 20.4153 37.5014C20.4553 37.3506 20.5277 37.1712 20.6325 36.9631C20.7521 36.7465 20.8195 36.6092 20.8349 36.5512C20.8936 36.5171 21.0166 36.5684 21.2038 36.7049C21.3941 36.8299 21.5234 36.9511 21.5916 37.0685C21.6908 37.2562 21.7509 37.4273 21.772 37.5819C21.8077 37.7279 21.7825 37.9633 21.6964 38.2881C21.6441 38.4853 21.556 38.7475 21.432 39.0746C21.395 39.2138 21.2432 39.5522 20.9765 40.0898C20.7098 40.6273 20.4688 41.0911 20.2537 41.481C20.1372 41.686 20.0582 41.8202 20.0165 41.8836C19.8823 42.1087 19.7852 42.2878 19.7251 42.4209C19.6889 42.5106 19.5504 42.7283 19.3097 43.0742C19.0813 43.3737 18.937 43.5899 18.8769 43.7229C18.7775 43.9573 18.5384 44.2973 18.1594 44.7431C18.0229 44.9303 17.7221 45.1982 17.2573 45.5467C16.804 45.8982 16.4793 46.1163 16.283 46.2008ZM25.5057 44.7175C25.429 44.5854 25.3774 44.429 25.3509 44.2481C25.339 44.0588 25.3329 43.7778 25.3324 43.4052C25.3276 43.3295 25.3422 43.2278 25.376 43.1002C25.4129 42.961 25.4391 42.8624 25.4545 42.8044C25.3804 42.8965 25.2916 42.9971 25.1882 43.1063C25.0878 43.2038 24.9967 43.2665 24.9148 43.2945C24.5773 43.4905 24.2582 43.6169 23.9576 43.6738C23.5249 43.8073 23.1751 43.8387 22.9084 43.7679C22.5836 43.6818 22.3452 43.4572 22.1932 43.0941C21.902 42.6941 21.8118 42.2853 21.9226 41.8677C21.9379 41.8097 21.9788 41.7026 22.045 41.5464C22.1821 41.1234 22.3493 40.727 22.5466 40.3572C22.7556 39.9905 23.0808 39.5367 23.5222 38.9958L24.3211 38.0904L24.7425 37.6248C24.8066 37.617 24.9025 37.63 25.0301 37.6639C25.2157 37.7131 25.3804 37.794 25.5244 37.9067C25.6683 38.0194 25.7307 38.1352 25.7115 38.2543C25.734 38.3099 25.7283 38.4015 25.6945 38.5291C25.596 38.9003 25.3087 39.3517 24.8325 39.8834L24.6056 40.177C24.2646 40.6204 24.0107 40.969 23.8441 41.2228C23.6775 41.4765 23.5696 41.6962 23.5203 41.8818C23.4711 42.0674 23.5084 42.2076 23.6322 42.3025C23.681 42.3527 23.746 42.3886 23.8272 42.4101C24.0591 42.4716 24.3852 42.3657 24.8053 42.0922C25.2371 41.8219 25.7392 41.3095 26.3118 40.555C26.5787 40.2037 26.785 39.8239 26.9305 39.4156C26.9412 39.2819 27.0129 39.1519 27.1457 39.0257C27.2785 38.8995 27.4325 38.8101 27.6079 38.7573C27.6728 38.7 27.7504 38.6647 27.8409 38.6514C27.9344 38.6266 27.9866 38.6404 27.9974 38.693L28.2804 38.7494C28.3183 38.747 28.3567 38.8131 28.3955 38.9475C28.4459 39.085 28.4855 39.17 28.5141 39.2024C28.6055 39.326 28.6143 39.527 28.5404 39.8053C28.4389 40.1881 28.1597 40.6789 27.7029 41.2778C27.3595 41.6834 27.1134 42.0029 26.9645 42.2366C26.8303 42.4617 26.7266 42.6887 26.6535 42.9176C26.5889 43.1612 26.5555 43.3572 26.5534 43.5056C26.566 43.6455 26.635 43.8066 26.7605 43.9888C26.9122 44.1656 26.9076 44.4872 26.7467 44.9535C26.702 45.0286 26.6213 45.0755 26.5046 45.0942C26.3879 45.1129 26.2541 45.1022 26.1033 45.0622C25.8482 44.9946 25.649 44.8797 25.5057 44.7175ZM29.4377 45.9093C29.0781 45.814 28.7633 45.6436 28.4932 45.3981C28.2231 45.1527 28.0276 44.8836 27.9066 44.5908C27.7887 44.2864 27.762 44.0124 27.8266 43.7688C27.8789 43.5716 27.9863 43.4946 28.1486 43.5376C28.2469 43.5885 28.3517 43.6846 28.4632 43.8259C28.6095 43.9764 28.733 44.0961 28.8336 44.1848C28.9458 44.2767 29.0657 44.3395 29.1933 44.3734C29.3905 44.4257 29.5664 44.4413 29.7209 44.4202C29.8902 44.3906 30.0033 44.3151 30.0604 44.1936C30.0727 44.1472 30.0756 44.0425 30.0692 43.8794C30.0659 43.7047 30.0463 43.5443 30.0106 43.3983C29.8569 42.9478 29.7814 42.5305 29.784 42.1463C29.8012 41.7536 29.8628 41.3106 29.9688 40.8173C30.0396 40.5506 30.3156 40.2823 30.7968 40.0127C31.2896 39.7461 31.8296 39.5355 32.4169 39.3809C33.0157 39.2294 33.4822 39.1793 33.8162 39.2306C34.4541 39.3998 34.823 39.5535 34.9229 39.6917C35.0515 39.8624 35.1469 40.1112 35.2092 40.4381C35.2715 40.765 35.2765 41.027 35.2242 41.2242C35.2026 41.3054 35.1343 41.399 35.0193 41.505C34.919 41.6026 34.8526 41.6657 34.8201 41.6943L34.5989 41.8964L34.4079 42.125C34.3694 42.1769 34.3057 42.2531 34.2169 42.3537C34.1398 42.4574 34.0749 42.5147 34.0224 42.5256C33.9814 42.5395 33.9219 42.53 33.8438 42.4968C33.6466 42.4445 33.4899 42.3099 33.3736 42.0928C33.2574 41.8758 33.227 41.6628 33.2823 41.4541C33.3223 41.3033 33.4145 41.1663 33.5589 41.0432C33.7033 40.9201 33.7785 40.847 33.7847 40.8238C33.797 40.7774 33.751 40.7403 33.6466 40.7127C33.4958 40.6727 33.2438 40.6865 32.8906 40.7543C32.5375 40.822 32.2053 40.9511 31.894 41.1417C31.5858 41.3207 31.3918 41.561 31.3118 41.8625C31.2687 42.0249 31.2469 42.224 31.2465 42.4598C31.2607 42.687 31.29 42.881 31.3342 43.0417C31.4024 43.1591 31.462 43.4729 31.5129 43.983C31.5785 44.4845 31.5759 44.8687 31.5052 45.1355C31.3975 45.5415 31.1594 45.8073 30.7909 45.933C30.4339 46.0618 29.9829 46.0539 29.4377 45.9093ZM35.2538 48.4575C34.8045 48.3259 34.509 48.1296 34.3672 47.8685C34.2339 47.6221 34.2165 47.3133 34.3149 46.9422C34.3395 46.8494 34.3911 46.7017 34.4697 46.499C34.5591 46.3489 34.637 46.1958 34.7033 46.0396C34.8289 45.7998 34.9269 45.6644 34.9972 45.6333C35.0119 45.6248 35.0296 45.6047 35.0505 45.573C35.0713 45.5413 35.0674 45.5092 35.0387 45.4768C35.0787 45.326 35.1863 45.131 35.3615 44.8919C35.4062 44.8169 35.4567 44.7434 35.5131 44.6714C35.5694 44.5995 35.6064 44.5534 35.6242 44.5333C35.6071 44.504 35.6048 44.4661 35.6171 44.4197C35.6324 44.3617 35.6768 44.3114 35.7502 44.2688C35.8352 44.2292 35.8954 44.1893 35.9309 44.1491C35.978 44.1119 35.9903 44.0655 35.9678 44.0099C35.96 43.9458 36.1394 43.714 36.5061 43.3147C36.7368 43.0531 36.8626 42.9064 36.8835 42.8747C36.8811 42.8368 37.0192 42.6438 37.2978 42.2956C37.5879 41.9504 37.8114 41.6931 37.9681 41.5236C38.0878 41.4933 38.058 41.4419 37.8786 41.3695C37.6991 41.2971 37.4745 41.2313 37.2046 41.1721C36.825 41.059 36.5338 40.9632 36.3312 40.8846C36.1316 40.7944 35.9773 40.6976 35.8681 40.5942C35.8085 40.4915 35.7956 40.3763 35.8294 40.2487C35.8694 40.098 35.9585 39.9726 36.0967 39.8727C36.2466 39.7759 36.4042 39.7432 36.5697 39.7747C36.8743 39.8431 37.3491 39.9255 37.9939 40.022L38.8996 40.1878L39.0303 39.9058C39.116 39.8168 39.1912 39.7437 39.2561 39.6864C39.3356 39.6206 39.3889 39.5602 39.4159 39.5053C39.4544 39.4535 39.4949 39.3711 39.5373 39.2582C39.5844 39.221 39.6731 39.1204 39.8035 38.9563C39.9456 38.7954 40.0512 38.631 40.1206 38.4631C40.3066 38.2766 40.478 38.0986 40.6347 37.9291C40.806 37.7511 40.9079 37.6477 40.9403 37.6191C41.2322 37.3613 41.5057 37.2662 41.7609 37.3339C41.9001 37.3708 42.0327 37.4557 42.1589 37.5885C42.282 37.7328 42.3734 37.8564 42.4331 37.9591C42.4927 38.0618 42.5041 38.1828 42.4672 38.322C42.4395 38.4264 42.3473 38.5633 42.1906 38.7328C42.1196 38.8133 42.0008 38.9804 41.8342 39.2342C41.7253 39.3171 41.5998 39.439 41.4578 39.5999C41.3189 39.7493 41.2105 39.9006 41.1326 40.0537C41.094 40.1056 41.0377 40.1775 40.9636 40.2696C40.8926 40.3501 40.8424 40.3989 40.8131 40.4159C40.7984 40.4245 40.7737 40.4241 40.7389 40.4149C40.732 40.4875 40.7429 40.5401 40.7716 40.5725C40.8002 40.6049 40.8551 40.6319 40.9363 40.6535C40.9943 40.6688 41.0655 40.6815 41.1497 40.6914C41.2456 40.7044 41.3573 40.7279 41.4849 40.7617C41.604 40.7809 41.7072 40.7896 41.7945 40.788C41.8935 40.7894 41.9835 40.8008 42.0647 40.8224C42.1111 40.8347 42.1761 40.8705 42.2597 40.9299C42.2992 41.0149 42.2928 41.156 42.2405 41.3532C42.2005 41.504 42.1389 41.6428 42.0556 41.7697C41.9753 41.885 41.8958 41.9508 41.817 41.9671C41.7559 41.9633 41.6191 41.9643 41.4065 41.97C41.194 41.9757 40.9702 41.9536 40.7351 41.9037L39.7899 41.7461L39.3372 42.2592C39.2191 42.3768 39.1142 42.4918 39.0223 42.604C38.9305 42.7162 38.8699 42.7808 38.8406 42.7979C38.8252 42.8558 38.748 42.9595 38.6091 43.1089C38.4701 43.2583 38.3636 43.379 38.2896 43.4711C38.1885 43.6181 38.0758 43.762 37.9516 43.9029C37.8304 44.0321 37.752 44.1169 37.7165 44.1571C37.6817 44.1479 37.6555 44.1533 37.6377 44.1735C37.6346 44.1851 37.6285 44.2083 37.6193 44.2431L37.6171 44.3915C37.6018 44.4495 37.5574 44.4998 37.484 44.5424C37.4314 44.5533 37.3743 44.5816 37.3125 44.6273C37.2623 44.676 37.2284 44.7105 37.2106 44.7306C37.2277 44.7599 37.2316 44.792 37.2223 44.8268C37.2008 44.908 37.1325 45.0016 37.0175 45.1077C36.9652 45.3049 36.8056 45.5791 36.5386 45.9304C36.4948 46.1423 36.471 46.2787 36.4672 46.3398C36.4635 46.4009 36.4863 46.4318 36.5358 46.4325L36.6228 46.4555L37.0101 46.5397C37.1006 46.5264 37.0949 46.618 36.9931 46.8145C36.903 47.014 36.7198 47.3069 36.4436 47.6929C36.1988 47.9136 35.9517 48.0963 35.7022 48.2412C35.4613 48.4008 35.3118 48.4729 35.2538 48.4575ZM45.1168 49.9747C44.9405 49.8906 44.7701 49.6903 44.6058 49.3736C44.4446 49.0453 44.3596 48.7806 44.3508 48.5797C44.357 48.5565 44.3515 48.5302 44.3345 48.5009C44.3205 48.4599 44.3093 48.4321 44.3008 48.4174C44.2636 48.3703 44.2912 48.1728 44.3834 47.8248C44.4573 47.5464 44.5458 47.2595 44.649 46.9641C44.7637 46.6718 44.8689 46.439 44.9646 46.2657L45.5223 45.4266L45.9505 44.7953L46.6879 43.9108L46.0427 43.5348C45.9646 43.5017 45.9057 43.4426 45.8662 43.3576C45.8383 43.2757 45.832 43.2058 45.8474 43.1478C45.872 43.055 45.9537 42.9339 46.0927 42.7845C46.2432 42.6382 46.3475 42.5728 46.4055 42.5882C46.4372 42.609 46.5284 42.6394 46.6792 42.6794C47.0272 42.7717 47.2928 42.8235 47.476 42.8349C47.6043 42.8192 47.7101 42.748 47.7934 42.6211C47.8853 42.5089 47.9709 42.4199 48.0505 42.3541C48.1331 42.2766 48.2172 42.1934 48.3029 42.1044C48.3561 42.0441 48.436 41.9535 48.5425 41.8328C48.6637 41.7035 48.8069 41.5615 48.9721 41.4067C49.0046 41.378 49.0783 41.3107 49.1933 41.2046C49.3114 41.087 49.4408 40.9971 49.5814 40.9351C49.6664 40.8956 49.7715 40.8738 49.8967 40.8697C50.025 40.8541 50.1471 40.8617 50.2631 40.8924C50.4719 40.9478 50.6247 41.0504 50.7215 41.2002C50.7828 41.3903 50.8027 41.5259 50.7812 41.6071C50.7566 41.6999 50.6779 41.8094 50.5451 41.9356C50.4386 42.0563 50.2734 42.2111 50.0495 42.4001C49.8549 42.5719 49.7059 42.7124 49.6025 42.8215C49.4465 42.9416 49.3577 43.0422 49.3362 43.1234C49.3147 43.2046 49.3793 43.2652 49.5301 43.3052C49.6925 43.3482 49.9743 43.3857 50.3755 43.4176C50.4366 43.4214 50.5193 43.4372 50.6237 43.4648C50.9021 43.5387 51.0777 43.6722 51.1506 43.8653C51.2236 44.0585 51.2277 44.2768 51.1631 44.5204C51.1201 44.6828 51.0359 44.766 50.9107 44.77C50.7971 44.7771 50.5489 44.7299 50.1661 44.6284C49.7796 44.588 49.3891 44.5155 48.9947 44.4109C48.9251 44.3924 48.8424 44.3767 48.7465 44.3637C48.6654 44.3421 48.5753 44.3307 48.4763 44.3292C48.3774 44.3278 48.2986 44.3442 48.2399 44.3783C48.1928 44.4154 48.1322 44.48 48.0581 44.5721C48.0141 44.5977 47.8975 44.7096 47.7084 44.9077C47.4568 45.201 47.2986 45.3763 47.2337 45.4336C46.6983 46.2351 46.2249 47.0841 45.8133 47.9806C45.7832 48.0471 45.7544 48.1325 45.7267 48.2369C45.6867 48.3877 45.7039 48.5102 45.7782 48.6044C45.8672 48.6901 46.0567 48.7714 46.3467 48.8483C46.6714 48.9344 46.9896 48.9754 47.3011 48.9711C47.6891 48.9126 47.9839 48.8542 48.1855 48.796C48.3053 48.7657 48.412 48.7381 48.5055 48.7132C48.6136 48.6798 48.6882 48.6561 48.7291 48.6422C48.8001 48.5617 48.8725 48.5933 48.9461 48.737C49.0313 48.8837 49.0829 49.0402 49.1009 49.2063C49.0456 49.4151 48.9542 49.5957 48.8269 49.7482C48.7026 49.889 48.4535 50.0092 48.0795 50.1086C47.6468 50.2422 47.2194 50.3088 46.7974 50.3086C46.3753 50.3084 45.9903 50.2622 45.6423 50.1699C45.4452 50.1176 45.27 50.0525 45.1168 49.9747ZM55.3047 52.3601C55.0188 52.4084 54.783 52.408 54.5975 52.3588C54.2611 52.2696 54.0239 52.0639 53.8859 51.7417C53.7478 51.4196 53.7465 51.0033 53.8818 50.493C54.0172 49.9826 54.2619 49.4578 54.616 48.9186C54.6723 48.8466 54.7449 48.7603 54.8336 48.6597C54.9224 48.5591 54.9494 48.5042 54.9146 48.4949C54.8566 48.4796 54.7322 48.5273 54.5414 48.6381C53.8377 48.9977 53.2206 49.4051 52.6902 49.8603C52.1745 50.307 51.8766 50.6812 51.7966 50.9828C51.7628 51.1103 51.6844 51.1951 51.5616 51.237C51.4503 51.282 51.3309 51.2876 51.2033 51.2537C51.1221 51.2322 51.0513 51.1948 50.991 51.1415C50.7758 50.9231 50.6224 50.6589 50.5307 50.3491C50.4422 50.0276 50.4676 49.6743 50.607 49.2892C50.8657 48.5012 51.133 47.821 51.4089 47.2486C51.6996 46.6677 52.1681 45.8608 52.8144 44.828C52.8353 44.7963 53.0239 44.5297 53.3803 44.0284C54.0106 43.103 54.3613 42.6001 54.4323 42.5196C54.535 42.46 54.7171 42.2413 54.9787 41.8638C55.2549 41.4777 55.4053 41.2382 55.4299 41.1454C55.4545 41.0526 55.5008 40.9718 55.5687 40.9029C55.6513 40.8255 55.7015 40.7767 55.7192 40.7566C55.9237 40.5005 56.0724 40.3847 56.1652 40.4093C56.2696 40.437 56.4135 40.5497 56.597 40.7473C56.7951 40.9364 56.8962 41.0936 56.9002 41.2188C56.9438 41.429 56.944 41.6153 56.901 41.7777C56.8548 41.9517 56.7531 42.1482 56.5957 42.3671C56.4413 42.5745 56.1986 42.8577 55.8675 43.2168C55.3527 43.8004 54.835 44.4886 54.3143 45.2817C54.0766 45.6159 53.7685 46.0991 53.3898 46.7311C53.0111 47.3631 52.8048 47.743 52.771 47.8706C52.7495 47.9517 52.7793 48.0031 52.8605 48.0246C52.9533 48.0493 53.0703 48.0058 53.2116 47.8943C53.2649 47.8339 53.3634 47.7669 53.507 47.6933C53.6507 47.6197 53.7681 47.5515 53.8592 47.4888C54.1828 47.2518 54.5412 47.0241 54.9343 46.8055C55.3275 46.587 55.6052 46.4993 55.7676 46.5424C56.1852 46.6531 56.4292 46.9972 56.4995 47.5745C56.5336 47.6332 56.5561 47.6888 56.567 47.7414C56.5779 47.7939 56.5918 47.8349 56.6089 47.8642C56.6515 47.9376 56.642 48.0903 56.5805 48.3222C56.4759 48.7166 56.257 49.1676 55.9238 49.6751C55.6608 50.1516 55.5047 50.4827 55.4555 50.6682C55.4155 50.819 55.4361 50.9052 55.5173 50.9267C55.5583 50.9128 55.6386 50.8906 55.7584 50.8603C55.8782 50.83 56.0184 50.7927 56.1791 50.7484C56.4743 50.6653 56.6973 50.6438 56.8481 50.6838C56.9641 50.7145 57.0418 50.7724 57.0814 50.8574C57.124 50.9307 57.133 51.0138 57.1084 51.1066C57.0868 51.1878 57.0139 51.2988 56.8897 51.4397C56.777 51.5836 56.7176 51.6672 56.7114 51.6904L56.6884 51.7774C56.6761 51.8238 56.4795 51.933 56.0986 52.1051C55.7178 52.2772 55.4532 52.3622 55.3047 52.3601ZM62.4551 46.8076C62.4111 46.8332 62.3717 46.8414 62.3369 46.8321C62.2905 46.8198 62.2244 46.765 62.1384 46.6678C62.0255 46.6254 61.8951 46.4853 61.7471 46.2474C61.6107 46.0126 61.5502 45.8662 61.5656 45.8082C61.5909 45.6659 61.6548 45.4718 61.7573 45.2259C61.8629 44.9683 61.9897 44.7475 62.1379 44.5633C62.2977 44.3822 62.4603 44.3074 62.6257 44.3389C62.7039 44.372 62.8064 44.4302 62.9332 44.5135C63.0632 44.5852 63.2059 44.679 63.3615 44.7947C63.4649 45.2939 63.4752 45.7001 63.3921 46.0133C63.269 46.4772 62.9567 46.742 62.4551 46.8076ZM58.9395 53.6035C58.6611 53.5296 58.456 53.3201 58.3241 52.9747C58.2038 52.6324 58.1774 52.2406 58.2448 51.7991C58.4051 51.3822 58.5229 51.0783 58.5984 50.8873C58.8767 50.3528 59.2102 49.7273 59.5988 49.011C60.0021 48.2862 60.2319 47.8878 60.2883 47.8158C60.374 47.7268 60.4806 47.6992 60.6082 47.7331C60.7358 47.7669 60.8611 47.856 60.9842 48.0004C61.122 48.1363 61.22 48.305 61.2782 48.5067C61.3372 48.6589 61.3451 48.8162 61.3021 48.9786C61.2375 49.2222 60.9861 49.7018 60.548 50.4174C60.2318 50.9542 60.0182 51.3383 59.9072 51.5696C59.7962 51.8009 59.7096 52.0572 59.6474 52.3387C59.4626 52.8483 59.3208 53.1956 59.2221 53.3805C59.1234 53.5654 59.0292 53.6397 58.9395 53.6035ZM62.8049 54.7776C62.1901 54.6146 61.7901 54.2974 61.6047 53.8262C61.5665 53.6422 61.5721 53.4575 61.6213 53.2719C61.6582 53.1327 61.7122 53.0229 61.7832 52.9424C61.8542 52.8619 61.9303 52.8324 62.0115 52.854C62.0695 52.8693 62.1198 52.9137 62.1624 52.9871C62.2886 53.1199 62.4909 53.2232 62.7692 53.297C62.8852 53.3278 63.1435 53.3839 63.544 53.4653C63.7211 53.4998 63.8652 53.4946 63.9765 53.4496C64.1024 53.3961 64.1777 53.3229 64.2023 53.2302C64.2269 53.1374 64.2105 53.0585 64.1533 52.9937L64.1707 52.9983C63.7143 52.7531 63.3142 52.4359 62.9705 52.0468C62.6298 51.6461 62.4701 51.312 62.4914 51.0445C62.4997 50.8729 62.5223 50.7175 62.5592 50.5783C62.6422 50.2651 62.7891 49.9689 62.9997 49.6896C63.222 49.4133 63.4771 49.1768 63.7652 48.9801C63.8324 48.9607 63.9831 48.9075 64.2172 48.8206C64.466 48.7252 64.6398 48.6782 64.7388 48.6796L64.7342 48.697C65.0014 48.532 65.281 48.4138 65.5731 48.3422C65.8799 48.2622 66.2605 48.208 66.715 48.1795L67.0026 48.2186L67.3772 48.2807C67.3857 48.2953 67.4101 48.3204 67.4504 48.3559C67.5053 48.3829 67.5602 48.4099 67.6151 48.4369C67.6755 48.4901 67.7405 48.526 67.8101 48.5445C68.0413 48.6554 68.2229 48.8836 68.3548 49.229C68.5013 49.5658 68.5307 49.8529 68.4429 50.0903C68.3343 50.3595 68.1591 50.5986 67.9175 50.8076C67.6874 51.0197 67.4808 51.1201 67.2975 51.1088C67.3238 51.1033 67.2967 51.0651 67.2162 50.9941C67.1473 50.9262 67.1028 50.8833 67.0827 50.8656L67.0039 50.8819C67.007 50.8703 67.0058 50.8514 67.0003 50.8251C67.0096 50.7903 67.0087 50.7466 66.9978 50.6941C66.9566 50.5217 66.9726 50.3211 67.0457 50.0922L67.1267 49.9275C67.1359 49.8927 67.1188 49.8633 67.0755 49.8394C67.0469 49.807 66.9978 49.7816 66.9282 49.7631C66.8965 49.7423 66.84 49.7211 66.7588 49.6996C66.5964 49.6565 66.4074 49.6436 66.1918 49.6609C65.9877 49.6813 65.7949 49.7295 65.6134 49.8055C65.2155 49.9482 64.9505 50.058 64.8184 50.1347C64.701 50.2028 64.5578 50.3449 64.3888 50.5608C64.2267 50.704 64.1333 50.822 64.1087 50.9148C64.0779 51.0308 64.1342 51.1698 64.2774 51.332C64.4322 51.4972 64.7011 51.7237 65.0842 52.0115C65.3 52.1805 65.4387 52.36 65.5 52.5501C65.5644 52.7286 65.6056 52.9009 65.6236 53.0671C65.6447 53.2216 65.6591 53.331 65.6669 53.3951C65.6717 53.4709 65.6702 53.5698 65.6627 53.692C65.6551 53.8141 65.644 53.8795 65.6293 53.888L65.6457 53.9668L65.6503 53.9494C65.6666 54.0282 65.6656 54.1024 65.6471 54.172C65.5856 54.404 65.3717 54.6018 65.0055 54.7654C64.6394 54.929 64.2367 54.996 63.7976 54.9664L63.815 54.9711C63.4896 54.9344 63.1528 54.8699 62.8049 54.7776ZM79.8511 58.74C79.7003 58.7 79.5905 58.646 79.5216 58.5781C79.438 58.5187 79.3378 58.4052 79.2208 58.2376C79.1185 58.0615 79.0417 57.8363 78.9903 57.5619C78.9536 57.2791 78.9814 56.9637 79.0737 56.6157C79.1321 56.3953 79.1945 56.207 79.2608 56.0508C79.3417 55.886 79.3883 55.7804 79.4006 55.734C79.416 55.6761 79.4063 55.6424 79.3715 55.6332C79.0699 55.5532 78.2685 55.9304 76.9671 56.7646C76.9261 56.7786 76.8895 56.7999 76.857 56.8286C76.6902 56.896 76.5333 56.9724 76.3866 57.0576C76.1695 57.1738 75.9923 57.2572 75.8547 57.3076C75.7319 57.3495 75.6051 57.3594 75.4745 57.3371C75.3933 57.3156 75.3155 57.2577 75.2412 57.1635L75.0913 56.9562C75.0425 56.906 75.0073 56.8283 74.9855 56.7232C74.9637 56.6182 74.9636 56.525 74.9851 56.4438L74.999 56.3916L75.0082 56.3568L75.7175 55.2973C76.1767 54.7362 76.4217 54.3977 76.4524 54.2817C76.4586 54.2585 76.4558 54.2454 76.4442 54.2423C76.3429 54.203 76.1617 54.2543 75.9007 54.3961C75.6543 54.5294 75.2916 54.7498 74.8128 55.0573L73.813 55.6674C73.6956 55.7356 73.3724 55.9478 72.8434 56.3041C72.5051 56.5496 72.3302 56.6708 72.3186 56.6677C72.0634 56.6 71.8576 56.4399 71.7011 56.1874C71.5562 55.9379 71.5207 55.674 71.5945 55.3956C71.6314 55.2564 71.7039 55.077 71.8118 54.8573C71.9197 54.6376 72.0365 54.4079 72.1622 54.1681C72.21 54.0814 72.2609 53.9832 72.3148 53.8734C72.3804 53.7666 72.4506 53.6424 72.5254 53.5009C72.5793 53.3911 72.6363 53.2696 72.6965 53.1366C72.7682 53.0066 72.8797 52.8438 73.0309 52.648C73.1852 52.4406 73.4032 52.157 73.6849 51.7972C73.7712 51.6587 73.836 51.5083 73.879 51.3459C73.9006 51.2647 73.9148 51.1878 73.9216 51.1151C73.9316 51.0308 73.9396 50.9771 73.9458 50.9539C73.9919 50.7799 74.1115 50.6565 74.3047 50.5835C74.5125 50.5021 74.7208 50.4891 74.9296 50.5444C75.2312 50.6244 75.4281 50.7946 75.5205 51.055C75.6159 51.3037 75.6328 51.5441 75.5713 51.7761C75.519 51.9733 75.4219 52.1524 75.2798 52.3133L74.9639 52.7323C74.8898 52.8244 74.752 52.9927 74.5506 53.2373C74.3639 53.4733 74.2628 53.6203 74.2474 53.6783C74.2382 53.7131 74.2452 53.7336 74.2684 53.7397L74.2858 53.7443C74.3438 53.7597 74.4535 53.7205 74.6149 53.6268C75.0784 53.3772 75.6203 53.1361 76.2407 52.9034C76.8758 52.6621 77.3185 52.5375 77.5689 52.5294C77.6617 52.554 77.7712 52.6327 77.8974 52.7655C78.0236 52.8983 78.1231 53.0612 78.196 53.2544C78.272 53.4359 78.2854 53.6195 78.2362 53.8051L78.1819 53.9397C78.158 53.983 78.0535 54.1663 77.8684 54.4897C77.6949 54.8161 77.5773 55.0022 77.5155 55.0479C77.8036 54.8511 78.2694 54.6395 78.913 54.4129C79.5597 54.1747 80.0121 54.0837 80.2704 54.1397C80.6532 54.2413 80.861 54.464 80.8939 54.8079C80.9269 55.1519 80.8866 55.6316 80.773 56.247C80.6686 56.8277 80.6309 57.2273 80.6598 57.4461C80.6646 57.5218 80.7304 57.6013 80.8572 57.6846C80.9841 57.768 81.0789 57.8552 81.1417 57.9463C81.2191 58.0289 81.2332 58.163 81.184 58.3486C81.1163 58.6038 80.9526 58.7528 80.6929 58.7957C80.4449 58.8416 80.1643 58.823 79.8511 58.74ZM82.9802 60.1658C82.8379 60.1405 82.725 60.0981 82.6414 60.0387C82.5664 59.994 82.4615 59.8979 82.3268 59.7504C82.1239 59.4856 81.974 59.1851 81.8769 58.849C81.7914 58.5159 81.7806 58.2523 81.8445 58.0582C81.8653 58.0265 81.885 57.9759 81.9034 57.9063C81.9219 57.8367 81.9299 57.7829 81.9276 57.7451C81.9283 57.6956 81.9302 57.665 81.9333 57.6534C81.8961 57.6063 81.8732 57.5755 81.8647 57.5608C81.8709 57.5376 81.8828 57.5159 81.9006 57.4958C81.9299 57.4788 81.9535 57.4602 81.9712 57.4401C82.0207 57.4408 82.05 57.4237 82.0593 57.3889C82.0685 57.3541 82.0677 57.3104 82.0568 57.2579C82.0466 57.1559 82.1194 56.9517 82.2751 56.6454C82.4455 56.3306 82.633 56.0451 82.8374 55.7889C82.9887 55.5932 83.209 55.3474 83.4985 55.0518C83.7996 54.7592 84.0617 54.5432 84.2849 54.4037C84.6641 54.1443 84.968 53.9579 85.1967 53.8448C85.4369 53.7347 85.6912 53.6656 85.9594 53.6374C86.1781 53.6085 86.3918 53.6217 86.6006 53.6771C86.879 53.7509 87.101 53.8967 87.2667 54.1145C87.8787 54.4754 88.1835 54.9411 88.1811 55.5116C88.1861 55.7736 88.1486 56.0554 88.0686 56.357C87.8964 57.0065 87.5042 57.666 86.8921 58.3355C86.5548 58.7178 86.2376 59.0247 85.9403 59.2562C85.6577 59.4792 85.3317 59.6783 84.9625 59.8535C84.7075 59.9721 84.3861 60.0607 83.9981 60.1192C83.6249 60.1692 83.2855 60.1847 82.9802 60.1658ZM85.1906 57.9401C85.3999 57.7597 85.577 57.5832 85.7221 57.4106C85.8672 57.2381 86.0191 56.9928 86.178 56.6749C86.2797 56.4784 86.3583 56.2758 86.4137 56.067C86.5121 55.6959 86.5138 55.479 86.4186 55.4165C86.3466 55.3602 86.27 55.3213 86.1889 55.2998C85.9453 55.2351 85.6486 55.3241 85.2987 55.5665C84.955 55.7857 84.6825 56.0176 84.4811 56.2621C84.2797 56.5066 84.0162 56.9148 83.6908 57.4864C83.5952 57.6597 83.5228 57.8391 83.4735 58.0247C83.4243 58.2103 83.4133 58.3688 83.4406 58.5002C83.4709 58.6199 83.544 58.6952 83.66 58.726C83.9848 58.8121 84.495 58.5501 85.1906 57.9401ZM95.207 58.8834C95.1578 59.069 94.9389 59.5199 94.5503 60.2362C94.4994 60.3345 94.3872 60.5468 94.2137 60.8732C94.0549 61.1912 93.9466 61.4356 93.8889 61.6065C93.855 61.7341 93.8429 61.8736 93.8523 62.0251C93.8765 62.1681 93.8855 62.2511 93.8793 62.2743C93.8486 62.3903 93.7656 62.4925 93.6305 62.5808C93.4984 62.6575 93.3512 62.6743 93.1888 62.6312C92.8988 62.5543 92.6817 62.3664 92.5375 62.0675C92.3964 61.7569 92.3797 61.3986 92.4874 60.9927C92.5797 60.6447 92.8795 60.029 93.387 59.1456C93.444 59.0241 93.486 58.936 93.513 58.881C93.5547 58.8176 93.5816 58.7627 93.5939 58.7163C93.6093 58.6583 93.5996 58.6247 93.5648 58.6154C93.4836 58.5939 93.3523 58.6211 93.1707 58.6971C92.9922 58.7615 92.7976 58.8403 92.5867 58.9333L92.0548 59.1833C91.8384 59.2501 91.3653 59.466 90.6353 59.8311C90.5387 59.8675 90.2985 59.9776 89.9145 60.1613C89.5453 60.3365 89.3375 60.418 89.2911 60.4057C89.2447 60.3934 89.1495 60.3309 89.0056 60.2182C88.8763 60.097 88.7575 59.96 88.6491 59.8071C88.5522 59.6572 88.5238 59.5069 88.5638 59.3561C88.61 59.1822 88.8205 58.8097 89.1954 58.2387C89.5703 57.6677 89.9827 57.1191 90.4326 56.5929C90.4921 56.5093 90.5788 56.3461 90.6929 56.1032C90.85 55.698 90.9946 55.457 91.1267 55.3803C91.2271 55.2828 91.341 55.2509 91.4686 55.2848C91.7006 55.3463 91.8844 55.5192 92.0201 55.8035C92.1673 56.0908 92.204 56.3737 92.1302 56.6521C92.0779 56.8492 91.9507 57.0948 91.7486 57.3888C91.5611 57.6743 91.4365 57.8399 91.3747 57.8856C91.4157 57.8716 91.5007 57.8321 91.6297 57.767C91.7733 57.6934 91.9533 57.6232 92.1697 57.5564C92.644 57.3594 92.9937 57.2349 93.2185 57.1828C93.4465 57.1191 93.6087 57.069 93.7053 57.0326C93.7609 57.0101 93.8019 56.9961 93.8282 56.9907C93.8691 56.9767 93.8954 56.9712 93.907 56.9743C93.9448 56.9719 94.0148 56.9657 94.1168 56.9555C94.2335 56.9368 94.3209 56.9351 94.3789 56.9505C94.5528 56.9966 94.7157 57.1081 94.8674 57.2849C95.0339 57.4532 95.1002 57.6011 95.0663 57.7287C95.0571 57.7635 95.0808 57.8381 95.1373 57.9524C95.197 58.0551 95.2389 58.178 95.2631 58.321C95.2903 58.4523 95.2716 58.6398 95.207 58.8834ZM96.947 64.8198C96.4977 64.6883 96.2022 64.4919 96.0604 64.2309C95.9271 63.9845 95.9097 63.6757 96.0081 63.3045C96.0327 63.2117 96.0843 63.064 96.1629 62.8614C96.2524 62.7113 96.3302 62.5581 96.3965 62.4019C96.5222 62.1621 96.6201 62.0267 96.6904 61.9957C96.7051 61.9872 96.7229 61.967 96.7437 61.9353C96.7645 61.9036 96.7606 61.8715 96.732 61.8391C96.772 61.6883 96.8795 61.4934 97.0547 61.2543C97.0994 61.1792 97.1499 61.1057 97.2063 61.0338C97.2626 60.9618 97.2996 60.9158 97.3174 60.8956C97.3004 60.8663 97.298 60.8284 97.3103 60.782C97.3257 60.724 97.37 60.6737 97.4434 60.6311C97.5284 60.5916 97.5886 60.5517 97.6241 60.5114C97.6712 60.4743 97.6836 60.4279 97.6611 60.3723C97.6532 60.3081 97.8326 60.0764 98.1993 59.677C98.4301 59.4154 98.5558 59.2688 98.5767 59.237C98.5743 59.1992 98.7124 59.0061 98.991 58.6579C99.2812 58.3128 99.5046 58.0554 99.6613 57.8859C99.7811 57.8556 99.7512 57.8043 99.5718 57.7318C99.3924 57.6594 99.1677 57.5936 98.8979 57.5345C98.5182 57.4214 98.227 57.3255 98.0244 57.247C97.8248 57.1568 97.6705 57.06 97.5614 56.9566C97.5017 56.8538 97.4888 56.7387 97.5226 56.6111C97.5626 56.4603 97.6517 56.3349 97.79 56.235C97.9398 56.1382 98.0974 56.1055 98.2629 56.137C98.5676 56.2054 99.0423 56.2878 99.6871 56.3844L100.593 56.5501L100.724 56.2682C100.809 56.1792 100.884 56.106 100.949 56.0487C101.029 55.9829 101.082 55.9226 101.109 55.8676C101.148 55.8158 101.188 55.7334 101.23 55.6205C101.278 55.5833 101.366 55.4827 101.497 55.3187C101.639 55.1577 101.744 54.9933 101.814 54.8255C102 54.6389 102.171 54.4609 102.328 54.2914C102.499 54.1134 102.601 54.0101 102.634 53.9814C102.925 53.7236 103.199 53.6286 103.454 53.6962C103.593 53.7332 103.726 53.818 103.852 53.9508C103.975 54.0952 104.067 54.2187 104.126 54.3215C104.186 54.4242 104.197 54.5451 104.16 54.6843C104.133 54.7887 104.041 54.9257 103.884 55.0952C103.813 55.1756 103.694 55.3428 103.527 55.5965C103.419 55.6794 103.293 55.8013 103.151 55.9623C103.012 56.1117 102.904 56.2629 102.826 56.4161C102.787 56.4679 102.731 56.5399 102.657 56.632C102.586 56.7125 102.536 56.7612 102.506 56.7783C102.492 56.7868 102.467 56.7864 102.432 56.7772C102.425 56.8499 102.436 56.9024 102.465 56.9349C102.493 56.9673 102.548 56.9943 102.63 57.0158C102.688 57.0312 102.759 57.0438 102.843 57.0538C102.939 57.0668 103.051 57.0902 103.178 57.124C103.297 57.1432 103.4 57.152 103.488 57.1503C103.587 57.1517 103.677 57.1632 103.758 57.1847C103.804 57.197 103.869 57.2329 103.953 57.2923C103.992 57.3773 103.986 57.5183 103.934 57.7155C103.894 57.8663 103.832 58.0051 103.749 58.132C103.669 58.2473 103.589 58.3131 103.51 58.3295C103.449 58.3257 103.312 58.3266 103.1 58.3323C102.887 58.338 102.663 58.3159 102.428 58.266L101.483 58.1084L101.03 58.6215C100.912 58.7392 100.807 58.8541 100.716 58.9663C100.624 59.0785 100.563 59.1431 100.534 59.1602C100.518 59.2182 100.441 59.3219 100.302 59.4712C100.163 59.6206 100.057 59.7414 99.9828 59.8334C99.8817 59.9804 99.7691 60.1244 99.6448 60.2652C99.5236 60.3945 99.4453 60.4792 99.4098 60.5195C99.375 60.5102 99.3487 60.5157 99.3309 60.5358C99.3279 60.5474 99.3217 60.5706 99.3125 60.6054L99.3104 60.7538C99.295 60.8118 99.2506 60.8621 99.1772 60.9047C99.1247 60.9156 99.0675 60.9439 99.0057 60.9896C98.9556 61.0384 98.9216 61.0728 98.9038 61.0929C98.9209 61.1223 98.9248 61.1544 98.9156 61.1892C98.894 61.2703 98.8257 61.364 98.7107 61.47C98.6584 61.6672 98.4988 61.9414 98.2318 62.2927C98.188 62.5046 98.1642 62.6411 98.1605 62.7021C98.1567 62.7632 98.1795 62.7941 98.229 62.7948L98.316 62.8179L98.7034 62.902C98.7938 62.8887 98.7881 62.9803 98.6864 63.1768C98.5962 63.3764 98.413 63.6692 98.1368 64.0553C97.892 64.2759 97.6449 64.4587 97.3955 64.6036C97.1545 64.7631 97.005 64.8352 96.947 64.8198ZM102.202 64.3886C102.003 64.2985 101.842 64.1317 101.72 63.8884C101.599 63.645 101.572 63.3958 101.639 63.1406C101.713 62.8622 102.076 62.1951 102.729 61.139C102.867 60.8528 103.097 60.4981 103.421 60.0749C103.543 59.8961 103.614 59.7909 103.635 59.7592C104.028 59.1186 104.538 58.3415 105.166 57.4277L105.433 57.0517C106.131 56.0575 106.553 55.4493 106.699 55.2273L107.18 54.5356C107.205 54.4428 107.292 54.3727 107.441 54.3254C107.605 54.2695 107.733 54.2538 107.826 54.2785C108.012 54.3277 108.159 54.4971 108.268 54.7869C108.378 55.0766 108.403 55.3564 108.344 55.6262C108.307 55.7654 108.244 55.8853 108.155 55.9859C107.735 56.4951 107.166 57.3064 106.448 58.4197C106.139 58.8839 105.836 59.3249 105.539 59.7427C105.245 60.1489 105.019 60.4368 104.863 60.6063L104.57 60.9383L104.082 61.7958C104.072 61.8306 104.059 61.8581 104.041 61.8782C104.023 61.8983 104.013 61.9142 104.01 61.9258C104.001 61.9606 104.002 61.9795 104.014 61.9826L104.388 61.7652C104.813 61.5181 105.304 61.282 105.86 61.0571C106.314 60.8919 106.551 60.7934 106.572 60.7617C106.593 60.7299 106.653 60.69 106.753 60.642L106.964 60.5489C107.406 60.3806 107.841 60.3534 108.27 60.4672C108.398 60.501 108.532 60.6048 108.672 60.7785C108.812 60.9523 108.909 61.1705 108.964 61.4332C109.033 61.6875 109.034 61.9422 108.966 62.1973L108.929 62.3365L108.897 62.4583C108.82 62.7483 108.66 63.1157 108.418 63.5605C108.191 63.9967 108.062 64.2481 108.032 64.3147C108.09 64.33 108.18 64.3415 108.302 64.3491C108.476 64.3952 108.593 64.4449 108.654 64.4982C108.726 64.5545 108.783 64.6194 108.826 64.6927C108.868 64.7661 108.911 64.8148 108.954 64.8387C108.971 64.868 108.974 64.9059 108.962 64.9523C108.891 65.2191 108.684 65.4126 108.342 65.5329C108 65.6531 107.692 65.6895 107.419 65.6419C107.094 65.5558 106.866 65.3648 106.733 65.0689C106.601 64.773 106.58 64.4511 106.673 64.1032C106.71 63.964 106.752 63.8263 106.801 63.6902C106.849 63.5541 106.893 63.4354 106.933 63.3341C107.029 63.1113 107.096 62.9303 107.132 62.7912C107.172 62.6404 107.181 62.5372 107.159 62.4815C107.151 62.4174 107.112 62.3761 107.043 62.3576C106.811 62.2961 106.348 62.403 105.654 62.6784C104.975 62.9452 104.25 63.3365 103.48 63.8524C102.965 64.2991 102.539 64.4778 102.202 64.3886Z" fill="#DEDEDE"/>
<path d="M3.9662 88.1467L4.37631 87.2347L4.37631 87.2347L3.9662 88.1467ZM0.645084 85.878C0.128755 86.074 -0.130918 86.6515 0.0650945 87.1678L3.25929 95.5819C3.4553 96.0983 4.03277 96.3579 4.5491 96.1619C5.06543 95.9659 5.3251 95.3885 5.12909 94.8721L2.2898 87.3929L9.76901 84.5536C10.2853 84.3576 10.545 83.7802 10.349 83.2638C10.153 82.7475 9.57552 82.4878 9.05919 82.6838L0.645084 85.878ZM4.37631 87.2347L1.41011 85.9009L0.589883 87.725L3.55609 89.0588L4.37631 87.2347ZM49.6451 66.7025C43.8149 85.7801 22.5701 95.4159 4.37631 87.2347L3.55609 89.0588C22.8482 97.7339 45.3756 87.5163 51.5578 67.287L49.6451 66.7025Z" fill="#E6E6E6"/>
</svg>
