<svg width="110" height="127" viewBox="0 0 110 127" fill="none" xmlns="http://www.w3.org/2000/svg">
<path d="M57.8355 26.7036L57.4252 27.6155L57.4252 27.6155L57.8355 26.7036ZM61.1562 28.9729C61.6726 28.777 61.9324 28.1996 61.7365 27.6832L58.5439 19.2685C58.348 18.7521 57.7706 18.4923 57.2542 18.6882C56.7378 18.8842 56.478 19.4616 56.6739 19.9779L59.5118 27.4577L52.032 30.2955C51.5157 30.4914 51.2559 31.0689 51.4518 31.5852C51.6477 32.1016 52.2251 32.3614 52.7415 32.1655L61.1562 28.9729ZM57.4252 27.6155L60.3912 28.9499L61.2118 27.126L58.2458 25.7916L57.4252 27.6155ZM12.1525 48.1389C17.9864 29.0625 39.2331 19.4308 57.4252 27.6155L58.2458 25.7916C38.9554 17.1128 16.426 27.326 10.2399 47.554L12.1525 48.1389Z" fill="#181818"/>
<path d="M27.4745 79.5804L27.5057 79.5328C27.5365 79.4169 27.4548 79.3269 27.2607 79.263C27.0571 79.0476 26.8638 78.7232 26.6808 78.2898C26.5009 77.8448 26.4022 77.5145 26.3849 77.2989C26.3748 77.1969 26.3743 77.1284 26.3835 77.0936C26.3989 77.0357 26.4329 77.0012 26.4854 76.9903C26.541 76.9678 26.6067 76.9542 26.6825 76.9495C26.7613 76.9331 26.8196 76.9238 26.8575 76.9214C27.1032 76.8376 27.2782 76.8095 27.3826 76.8372C27.4986 76.868 27.5772 76.9695 27.6184 77.1418C27.7039 77.4749 27.9003 77.7877 28.2075 78.0802C28.5179 78.3612 28.8934 78.5601 29.3342 78.677C29.7286 78.7816 30.1008 78.8058 30.4509 78.7497C30.7894 78.6905 30.994 78.5275 31.0648 78.2607C31.1171 78.0635 31.0931 77.8027 30.993 77.4782C30.9882 77.4024 30.9646 77.3279 30.9219 77.2545C30.8793 77.1811 30.8251 77.1047 30.7593 77.0251C30.6106 76.8367 30.4553 76.6031 30.2934 76.3243C30.1263 76.2055 29.9595 76.0619 29.7931 75.8936L29.4739 75.6227C29.2208 75.4066 28.9545 75.1001 28.6749 74.7032C28.3984 74.2946 28.2259 73.9385 28.1575 73.6348C27.9669 73.3236 27.9378 72.9186 28.07 72.4198C28.2146 71.8747 28.4776 71.3981 28.8589 70.9903C29.0811 70.714 29.5452 70.3219 30.251 69.8138C30.9568 69.3058 31.4589 69.0044 31.7571 68.9097L32.3248 68.5947C32.3487 68.5514 32.3723 68.5328 32.3955 68.539C32.4217 68.5335 32.4407 68.5324 32.4523 68.5354C32.4932 68.5215 32.6289 68.5016 32.8592 68.4757C33.0926 68.4383 33.3545 68.3402 33.6449 68.1813C34.4447 68.021 35.1357 67.9436 35.7178 67.949C36.3145 67.9458 36.7985 67.9935 37.1696 68.0919C37.6158 68.2351 37.9903 68.5082 38.2931 68.9113C38.6075 69.3175 38.7414 69.7255 38.6948 70.1352C38.6872 70.2573 38.6742 70.3532 38.6557 70.4228C38.5419 70.852 38.2403 71.2872 37.7508 71.7284C37.2613 72.1697 36.7902 72.4482 36.3374 72.564C36.1418 72.5991 35.9629 72.5951 35.8005 72.552C35.6033 72.4997 35.4548 72.4044 35.3549 72.2662C35.2666 72.131 35.2497 71.9838 35.3044 71.8245C35.3321 71.7201 35.3977 71.6134 35.5011 71.5042C35.6192 71.3866 35.8516 71.2123 36.1984 70.9815C36.7466 70.5062 37.0545 70.1409 37.1222 69.8857C37.1683 69.7117 37.0916 69.5797 36.8921 69.4895C36.7737 69.4208 36.4119 69.3808 35.8066 69.3692C35.216 69.3491 34.9131 69.3681 34.8977 69.4261C34.8946 69.4377 34.8826 69.4593 34.8618 69.4911C34.8557 69.5143 34.8367 69.5154 34.805 69.4946C34.7617 69.4707 34.3804 69.5744 33.661 69.8057C32.9533 70.0401 32.5801 70.1833 32.5415 70.2351C32.5146 70.29 32.4512 70.3415 32.3516 70.3896C32.2666 70.4291 32.1658 70.4582 32.0491 70.4769C31.8065 70.5492 31.5689 70.6724 31.3365 70.8466C31.1157 71.0239 30.8088 71.315 30.4159 71.7198C30.2244 71.8801 30.0515 72.0639 29.8972 72.2713C29.7545 72.4817 29.6585 72.6797 29.6093 72.8653C29.5754 72.9929 29.5636 73.1077 29.5738 73.2097C29.574 73.396 29.6528 73.5907 29.81 73.7938C29.9818 73.9883 30.3116 74.3365 30.7993 74.8383C31.3016 75.3316 31.7398 75.8326 32.1138 76.3415C32.4909 76.8388 32.7025 77.2115 32.7484 77.4596C32.8632 77.7756 32.8637 78.1481 32.7499 78.5773C32.6607 78.9137 32.5297 79.2203 32.3569 79.4973C32.1941 79.69 32.0069 79.8576 31.7953 80.0001C31.5806 80.1542 31.411 80.2086 31.2865 80.1631C31.1612 80.1672 31.0519 80.1816 30.9584 80.2065C30.8618 80.2429 30.7815 80.2651 30.7173 80.2729C30.5566 80.3172 30.1755 80.303 29.574 80.2304C28.981 80.1724 28.4947 80.0869 28.115 79.9738L27.4745 79.5804ZM35.1609 80.8369C35.123 80.8393 35.0751 80.8328 35.0171 80.8174C34.7735 80.7528 34.6074 80.5598 34.5189 80.2383C34.4303 79.9169 34.443 79.5416 34.5568 79.1124C34.6183 78.8804 34.7015 78.6604 34.8063 78.4523C35.0232 78.1498 35.1515 77.9231 35.1915 77.7723C35.2848 77.5612 35.5054 77.1976 35.8533 76.6815C36.2159 76.157 36.4416 75.8444 36.5303 75.7438C36.5767 75.7561 36.6265 75.732 36.6798 75.6717C36.7361 75.5997 36.7766 75.5173 36.8012 75.4245C36.8289 75.3201 36.874 75.2204 36.9365 75.1252C37.0136 75.0215 37.0816 74.9526 37.1403 74.9185C37.1495 74.8837 37.178 74.823 37.2258 74.7364C37.2852 74.6528 37.3195 74.5936 37.3288 74.5588C37.3349 74.5356 37.3573 74.4981 37.3959 74.4463C37.4491 74.3859 37.4804 74.3383 37.4896 74.3035C37.7705 73.9932 38.3091 73.2732 39.1053 72.1436C39.9046 71.0023 40.3227 70.3621 40.3596 70.2229C40.3842 70.1301 40.4421 70.0524 40.5332 69.9896C40.6243 69.9269 40.7163 69.9078 40.8091 69.9324C40.8531 69.9069 40.9347 69.9037 41.0537 69.9228C41.1759 69.9304 41.2717 69.9434 41.3413 69.9619L41.5459 70.3141C41.6427 70.4639 41.7136 70.5944 41.7586 70.7057C41.8036 70.8169 41.8091 70.9364 41.7753 71.064C41.7199 71.2727 41.624 71.4708 41.4874 71.658C41.3655 71.8367 41.0248 72.2554 40.4653 72.9139C40.4267 72.9658 40.2785 73.15 40.0208 73.4665C39.8433 73.6677 39.7499 73.7857 39.7407 73.8205C39.7314 73.8553 39.6882 73.9245 39.6111 74.0282C39.537 74.1203 39.4672 74.2197 39.4016 74.3265C39.2596 74.4874 39.0211 74.778 38.6862 75.1982C38.366 75.6099 38.1997 75.8389 38.1874 75.8853C38.1536 76.0129 38.1 76.098 38.0266 76.1406C37.9918 76.1314 37.9609 76.1542 37.9339 76.2091C37.91 76.2524 37.895 76.2857 37.8888 76.3089C37.8581 76.4249 37.6838 76.7077 37.3659 77.1572L37.0755 77.6202C36.6552 78.3157 36.3524 78.8251 36.1674 79.1485C35.9939 79.4749 35.8748 79.7599 35.8102 80.0035C35.7426 80.2587 35.6466 80.4567 35.5223 80.5976C35.3981 80.7384 35.2776 80.8182 35.1609 80.8369ZM41.6885 82.3261C41.6118 82.194 41.5602 82.0375 41.5336 81.8567C41.5218 81.6673 41.5156 81.3863 41.5151 81.0138C41.5104 80.938 41.5249 80.8363 41.5588 80.7088C41.5957 80.5696 41.6218 80.471 41.6372 80.413C41.5631 80.5051 41.4744 80.6057 41.3709 80.7148C41.2706 80.8123 41.1795 80.8751 41.0976 80.903C40.76 81.099 40.4409 81.2255 40.1403 81.2823C39.7076 81.4158 39.3579 81.4472 39.0911 81.3765C38.7664 81.2903 38.528 81.0657 38.376 80.7026C38.0848 80.3026 37.9946 79.8938 38.1053 79.4762C38.1207 79.4183 38.1615 79.3111 38.2278 79.1549C38.3648 78.7319 38.532 78.3355 38.7294 77.9658C38.9384 77.5991 39.2636 77.1453 39.705 76.6044L40.5038 75.6989L40.9253 75.2334C40.9894 75.2256 41.0853 75.2386 41.2129 75.2724C41.3984 75.3216 41.5632 75.4026 41.7071 75.5152C41.8511 75.6279 41.9134 75.7438 41.8943 75.8628C41.9168 75.9184 41.9111 76.0101 41.8772 76.1376C41.7788 76.5088 41.4915 76.9602 41.0153 77.4919L40.7884 77.7856C40.4473 78.229 40.1935 78.5775 40.0269 78.8313C39.8602 79.0851 39.7523 79.3047 39.7031 79.4903C39.6539 79.6759 39.6912 79.8162 39.815 79.9111C39.8638 79.9612 39.9287 79.9971 40.0099 80.0186C40.2419 80.0802 40.568 79.9742 40.9881 79.7008C41.4198 79.4304 41.922 78.918 42.4945 78.1636C42.7615 77.8123 42.9678 77.4325 43.1133 77.0241C43.1239 76.8904 43.1956 76.7604 43.3284 76.6343C43.4612 76.5081 43.6153 76.4186 43.7907 76.3658C43.8556 76.3085 43.9332 76.2732 44.0236 76.26C44.1171 76.2351 44.1693 76.249 44.1802 76.3015L44.4632 76.3579C44.5011 76.3556 44.5394 76.4216 44.5782 76.556C44.6287 76.6936 44.6682 76.7785 44.6969 76.811C44.7882 76.9345 44.797 77.1355 44.7232 77.4139C44.6217 77.7966 44.3425 78.2875 43.8857 78.8864C43.5423 79.2919 43.2961 79.6115 43.1472 79.8451C43.0131 80.0702 42.9094 80.2972 42.8363 80.5262C42.7717 80.7697 42.7383 80.9657 42.7362 81.1141C42.7487 81.254 42.8178 81.4151 42.9432 81.5974C43.095 81.7742 43.0904 82.0957 42.9295 82.5621C42.8847 82.6371 42.804 82.684 42.6873 82.7027C42.5706 82.7214 42.4369 82.7108 42.2861 82.6708C42.0309 82.6031 41.8317 82.4882 41.6885 82.3261ZM46.2468 83.684C46.0101 83.5467 45.7364 83.2445 45.4258 82.7772C45.2963 82.4698 45.2403 82.2128 45.2578 82.0064C45.2784 81.7884 45.3687 81.3778 45.5286 80.7747C45.6025 80.4963 45.9262 79.8373 46.4999 78.7976C46.5238 78.7543 46.606 78.6085 46.7463 78.3601C46.815 78.2418 46.7901 78.1483 46.6717 78.0796C46.5534 78.011 46.3782 77.9459 46.1462 77.8844C45.949 77.8321 45.8361 77.7897 45.8075 77.7573C45.7758 77.7365 45.7664 77.6781 45.7794 77.5823C45.804 77.4895 45.8209 77.4257 45.8302 77.3909C45.8394 77.3561 45.8196 77.3136 45.7709 77.2634C45.7337 77.2163 45.7081 77.1723 45.6942 77.1313C45.6717 77.0757 45.7237 76.9964 45.8504 76.8934C45.977 76.7905 46.1014 76.7428 46.2235 76.7503C46.2962 76.7572 46.4516 76.7798 46.6897 76.8181C46.9279 76.8564 47.1606 76.8685 47.3878 76.8543C47.6266 76.8431 47.8152 76.7876 47.9534 76.6877C48.2088 76.3333 48.4935 75.9619 48.8076 75.5734C49.1333 75.188 49.3475 74.9655 49.4502 74.9059C49.6604 74.8623 49.8409 74.8605 49.9917 74.9005C50.2469 74.9682 50.4164 75.1249 50.5002 75.3706C50.5227 75.4262 50.5509 75.4833 50.585 75.542C50.6191 75.6008 50.6285 75.6591 50.6131 75.7171C50.5916 75.7983 50.5171 75.9151 50.3898 76.0676C50.2741 76.2231 50.0537 76.4688 49.7287 76.8047L49.3872 77.1797C49.4189 77.2005 49.4986 77.2279 49.6262 77.2617C49.7537 77.2955 49.8597 77.3174 49.9439 77.3274C50.2114 77.3486 50.4148 77.3777 50.5539 77.4147C50.6583 77.4423 50.7322 77.4681 50.7755 77.492C51.2627 77.6212 51.4587 77.9588 51.3636 78.5046C51.3499 78.65 51.2669 78.7521 51.1147 78.8111C50.9772 78.8615 50.7576 78.8467 50.4561 78.7667C49.2491 78.4963 48.6321 78.3885 48.6051 78.4434C48.5379 78.4628 48.3974 78.618 48.1837 78.909C47.9699 79.1999 47.784 79.4796 47.6259 79.748C47.3268 80.3142 47.1064 80.8641 46.9649 81.3977C46.8296 81.908 46.8173 82.2586 46.9281 82.4494C46.9622 82.5081 47.0198 82.5482 47.101 82.5697C47.3098 82.6251 47.6471 82.547 48.1129 82.3353C48.2713 82.2532 48.4258 82.2321 48.5766 82.2721C48.7042 82.3059 48.7905 82.3785 48.8355 82.4897C48.8921 82.604 48.9004 82.7366 48.8604 82.8874C48.8142 83.0614 48.7116 83.2142 48.5526 83.3458C48.3078 83.5664 47.9884 83.7176 47.5943 83.7993C47.2002 83.881 46.8465 83.8803 46.5334 83.7972C46.3942 83.7603 46.2987 83.7226 46.2468 83.684ZM54.5281 78.0218C54.4841 78.0473 54.4447 78.0555 54.4099 78.0463C54.3635 78.034 54.2973 77.9792 54.2114 77.8819C54.0985 77.8395 53.968 77.6994 53.8201 77.4615C53.6837 77.2267 53.6232 77.0803 53.6386 77.0223C53.6639 76.8801 53.7278 76.6859 53.8303 76.44C53.9358 76.1825 54.0627 75.9616 54.2109 75.7774C54.3706 75.5963 54.5332 75.5215 54.6987 75.553C54.7768 75.5861 54.8793 75.6443 55.0062 75.7276C55.1361 75.7994 55.2789 75.8931 55.4344 76.0088C55.5379 76.508 55.5481 76.9142 55.4651 77.2274C55.342 77.6914 55.0297 77.9561 54.5281 78.0218ZM51.0124 84.8176C50.7341 84.7438 50.5289 84.5342 50.3971 84.1888C50.2768 83.8466 50.2504 83.4547 50.3178 83.0132C50.478 82.5964 50.5959 82.2924 50.6714 82.1014C50.9497 81.5669 51.2832 80.9415 51.6718 80.2251C52.0751 79.5003 52.3049 79.1019 52.3612 79.0299C52.4469 78.9409 52.5535 78.9134 52.6811 78.9472C52.8087 78.981 52.9341 79.0701 53.0572 79.2145C53.1949 79.3504 53.293 79.5192 53.3512 79.7208C53.4102 79.873 53.4181 80.0303 53.375 80.1927C53.3104 80.4363 53.0591 80.9159 52.621 81.6315C52.3048 82.1684 52.0912 82.5524 51.9802 82.7837C51.8692 83.015 51.7826 83.2713 51.7203 83.5528C51.5355 84.0624 51.3938 84.4097 51.2951 84.5946C51.1964 84.7795 51.1022 84.8538 51.0124 84.8176ZM54.8512 86.0219C54.7089 85.9966 54.596 85.9543 54.5125 85.8948C54.4374 85.8501 54.3325 85.754 54.1978 85.6066C53.995 85.3417 53.845 85.0412 53.7479 84.7051C53.6624 84.372 53.6516 84.1085 53.7155 83.9144C53.7364 83.8826 53.756 83.832 53.7745 83.7624C53.7929 83.6928 53.801 83.6391 53.7986 83.6012C53.7993 83.5517 53.8012 83.5212 53.8043 83.5096C53.7671 83.4625 53.7443 83.4316 53.7357 83.4169C53.7419 83.3937 53.7538 83.3721 53.7716 83.3519C53.8009 83.3349 53.8245 83.3163 53.8422 83.2962C53.8917 83.2969 53.9211 83.2798 53.9303 83.2451C53.9395 83.2103 53.9387 83.1666 53.9278 83.114C53.9176 83.012 53.9904 82.8078 54.1461 82.5015C54.3165 82.1867 54.504 81.9012 54.7085 81.6451C54.8597 81.4493 55.0801 81.2036 55.3695 80.9079C55.6706 80.6153 55.9327 80.3993 56.1559 80.2599C56.5351 80.0004 56.8391 79.8141 57.0677 79.7009C57.308 79.5908 57.5622 79.5217 57.8304 79.4935C58.0491 79.4646 58.2628 79.4778 58.4716 79.5332C58.75 79.607 58.972 79.7528 59.1377 79.9706C59.7497 80.3315 60.0545 80.7972 60.0521 81.3677C60.0571 81.6297 60.0196 81.9115 59.9397 82.2131C59.7674 82.8627 59.3752 83.5222 58.7631 84.1916C58.4259 84.5739 58.1086 84.8809 57.8113 85.1124C57.5287 85.3354 57.2027 85.5345 56.8335 85.7097C56.5786 85.8283 56.2571 85.9168 55.8692 85.9753C55.4959 86.0253 55.1566 86.0408 54.8512 86.0219ZM57.0616 83.7962C57.2709 83.6158 57.448 83.4393 57.5931 83.2668C57.7382 83.0942 57.8902 82.849 58.049 82.531C58.1507 82.3346 58.2293 82.1319 58.2847 81.9232C58.3831 81.552 58.3848 81.3352 58.2896 81.2727C58.2176 81.2164 58.1411 81.1774 58.0599 81.1559C57.8163 81.0913 57.5196 81.1802 57.1697 81.4226C56.8261 81.6418 56.5535 81.8737 56.3521 82.1182C56.1507 82.3628 55.8872 82.7709 55.5618 83.3426C55.4662 83.5158 55.3938 83.6953 55.3446 83.8809C55.2953 84.0664 55.2843 84.2249 55.3116 84.3563C55.3419 84.4761 55.415 84.5513 55.531 84.5821C55.8558 84.6682 56.366 84.4063 57.0616 83.7962ZM65.058 88.0027C64.884 87.9566 64.7223 87.864 64.5729 87.7251C64.4236 87.5862 64.3213 87.4101 64.2661 87.1968L64.2253 86.9997C64.1907 86.5684 64.2226 86.1672 64.321 85.7961L64.5241 85.0305C64.5579 84.9029 64.5632 84.8361 64.54 84.8299C64.4473 84.8053 63.9471 85.0761 63.0396 85.6424C62.4024 86.0321 61.8598 86.3227 61.4117 86.5142C60.9783 86.6972 60.692 86.7703 60.5528 86.7334C60.5064 86.7211 60.407 86.6512 60.2546 86.5239C60.1052 86.385 60.0135 86.2861 59.9794 86.2274C59.9197 86.1247 59.8937 86.0123 59.9012 85.8901C59.9088 85.768 59.9556 85.5445 60.0418 85.2198C60.1402 84.8486 60.3264 84.451 60.6002 84.0271C60.8771 83.5915 61.2999 83.027 61.8687 82.3337C62.0046 82.1959 62.1497 82.0233 62.304 81.816C62.7307 81.2836 63.0908 80.9321 63.3843 80.7617C63.4771 80.7863 63.5394 80.809 63.5711 80.8298C63.7188 80.8814 63.8744 80.9972 64.0377 81.1771C64.2126 81.36 64.2956 81.562 64.2866 81.7831C64.2343 81.9803 64.1531 82.1698 64.0428 82.3516C63.9325 82.5334 63.7345 82.7416 63.4488 82.9762C63.2751 83.1164 63.0069 83.4487 62.6443 83.9733C62.5617 84.0507 62.442 84.1742 62.2854 84.3437C62.1433 84.5046 62.0693 84.5967 62.0631 84.6199C62.0716 84.6346 62.1126 84.6206 62.186 84.578C62.2624 84.5238 62.3373 84.4754 62.4107 84.4328L63.005 84.0876C64.1644 83.4143 64.9965 83.1322 65.5014 83.2413C65.7566 83.309 65.9474 83.5023 66.0738 83.8214C66.2003 84.1405 66.2143 84.4856 66.1158 84.8568C66.0974 84.9264 66.0335 85.1205 65.9241 85.4391L65.6611 86.4308C65.9463 86.432 66.1662 86.422 66.3208 86.4009C66.6385 86.3734 66.957 86.3896 67.2763 86.4495C67.2008 86.6405 67.0214 86.8723 66.7381 87.1447C66.4664 87.4203 66.1706 87.646 65.8508 87.8219C65.531 87.9978 65.2668 88.0581 65.058 88.0027ZM71.9499 92.6426C71.868 92.6705 71.721 92.5694 71.5089 92.3394C71.3053 92.124 71.1469 91.902 71.0338 91.6733C70.9826 91.5853 70.9547 91.5034 70.95 91.4276C70.9422 91.3635 70.9521 91.2792 70.9798 91.1748L71.1299 90.7491C71.2341 90.5905 71.3169 90.3952 71.3784 90.1632C71.403 90.0704 71.5205 89.7912 71.7309 89.3256C71.9444 88.8484 72.1036 88.5057 72.2084 88.2976L72.316 88.1027C72.5103 87.7445 72.6737 87.4092 72.8063 87.0968C72.976 86.8314 73.1267 86.5672 73.2585 86.3042C73.405 86.0327 73.4921 85.8448 73.5198 85.7404C73.5752 85.5316 73.6964 85.4023 73.8834 85.3526C73.9196 85.2629 74.0573 85.0946 74.2966 84.8477C74.7842 84.1328 75.1364 83.6241 75.3532 83.3215C75.5847 83.0105 75.8096 82.7474 76.0281 82.5322C76.3907 82.0076 76.6558 81.6868 76.8234 81.5699C76.9568 81.3942 77.2541 81.1627 77.7152 80.8753C78.1763 80.5879 78.5768 80.3651 78.9167 80.207C79.5766 80.0592 80.1038 80.0376 80.4981 80.1422C80.8345 80.2315 81.1677 80.5433 81.4977 81.0778C81.614 81.2948 81.676 81.4354 81.6838 81.4996C81.6916 81.5637 81.674 81.677 81.6309 81.8394C81.5261 82.0474 81.2201 82.3822 80.7128 82.8435C80.2056 83.3049 79.904 83.5291 79.8082 83.5161C79.6567 83.5256 79.5577 83.5242 79.5113 83.5119C79.4069 83.4842 79.3292 83.4263 79.278 83.3383C79.2269 83.2502 79.2198 83.1366 79.2567 82.9974C79.3152 82.777 79.4524 82.5403 79.6685 82.2872C79.8569 82.1386 79.9696 81.9946 80.0065 81.8555C80.0588 81.6583 79.9284 81.5182 79.6152 81.4351C79.5101 81.4569 79.2799 81.5758 78.9246 81.792C78.584 81.9996 78.4045 82.1382 78.386 82.2078C78.3683 82.2279 78.3166 82.2825 78.2309 82.3715C78.1599 82.452 78.0553 82.5422 77.917 82.6421C77.6313 82.8767 77.4793 83.0288 77.4608 83.0984C77.4208 83.2492 77.366 83.3153 77.2964 83.2969C77.2787 83.317 77.2312 83.3789 77.1541 83.4826C77.0916 83.5777 77.0086 83.6799 76.9052 83.789C76.8311 83.8811 76.7424 83.9817 76.6389 84.0909C76.5355 84.2 76.4544 84.2716 76.3957 84.3057L76.4131 84.3103C76.3568 84.3823 76.2515 84.5219 76.0971 84.7293C75.9459 84.9251 75.8657 85.0404 75.8564 85.0752C75.8441 85.1215 75.9076 85.1632 76.0468 85.2001C76.3019 85.2678 76.6784 85.2994 77.1762 85.2948C77.3393 85.2884 77.4557 85.2945 77.5253 85.3129C77.6065 85.3344 77.7163 85.3884 77.8548 85.4748C77.9608 85.5898 78.0175 85.7973 78.0249 86.0972C78.0323 86.3971 78.0035 86.5757 77.9387 86.633C77.9148 86.6763 77.7702 86.7063 77.5051 86.7229C77.2516 86.7425 76.9911 86.7417 76.7236 86.7204L75.9688 86.6878C75.2707 86.6517 74.9155 86.6568 74.9032 86.7032C74.8568 86.6909 74.8101 86.7033 74.763 86.7405C74.7159 86.7777 74.6862 86.8194 74.6739 86.8658C74.6308 87.0282 74.5753 87.1439 74.5074 87.2127C74.4063 87.3597 74.2047 87.7222 73.9024 88.3C73.6118 88.8809 73.448 89.2409 73.4111 89.3801C73.2876 89.4715 73.1858 89.668 73.1058 89.9696C73.0024 90.0787 72.9291 90.2145 72.886 90.3768C72.8676 90.4464 72.8464 90.5029 72.8225 90.5462C72.8071 90.6042 72.7586 90.7403 72.677 90.9545C72.5953 91.1688 72.5299 91.3687 72.4807 91.5543L72.2946 92.045C72.2461 92.1811 72.1949 92.3041 72.1409 92.4139C72.087 92.5237 72.0233 92.6 71.9499 92.6426ZM78.1221 91.8959C77.9829 91.859 77.8789 91.8066 77.81 91.7386C77.7411 91.6707 77.6482 91.5529 77.5312 91.3854C77.3638 91.0803 77.2502 90.7832 77.1903 90.4942C77.1335 90.1936 77.1486 89.9493 77.2357 89.7613C77.292 89.6894 77.3251 89.6113 77.3351 89.527C77.3566 89.4458 77.3705 89.3936 77.3766 89.3704C77.3425 89.3117 77.327 89.2765 77.3301 89.2649C77.3362 89.2417 77.3525 89.2274 77.3787 89.222C77.4081 89.2049 77.4316 89.1863 77.4494 89.1662C77.519 89.1847 77.5591 89.127 77.5697 88.9933C77.5711 88.8944 77.6656 88.7021 77.853 88.4167C78.0405 88.1312 78.2508 87.8766 78.4839 87.6529C78.6669 87.4779 78.9217 87.2662 79.2483 87.0176C79.5866 86.7721 79.8758 86.5943 80.116 86.4842C80.8283 86.1393 81.4302 85.9761 81.9219 85.9948C82.1692 85.9983 82.4031 86.0293 82.6235 86.0878C82.9598 86.177 83.1962 86.339 83.3326 86.5738C83.5601 86.7459 83.7057 86.9459 83.7693 87.1738C83.833 87.4018 83.8392 87.6827 83.7879 88.0167C83.781 88.0894 83.7561 88.2069 83.713 88.3693C83.4853 89.2276 82.9237 90.0346 82.0281 90.7903C81.6598 91.1023 81.3115 91.3389 80.9832 91.5001C80.6549 91.6614 80.2686 91.8072 79.8243 91.9377C79.5786 92.0215 79.3336 92.0558 79.0893 92.0407C78.845 92.0256 78.5226 91.9773 78.1221 91.8959ZM80.4597 90.244C80.7324 90.1052 80.9413 89.9496 81.0863 89.777C81.2461 89.5959 81.4865 89.2748 81.8074 88.8137C81.9047 88.7277 81.9949 88.5282 82.0779 88.215C82.1517 87.9366 82.1527 87.7693 82.0807 87.7129C82.035 87.6512 81.9716 87.6095 81.8904 87.588C81.786 87.5603 81.5963 87.5969 81.3212 87.6977C80.823 87.938 80.3839 88.2126 80.004 88.5216C79.6388 88.822 79.3394 89.2019 79.1058 89.6614C79.0819 89.7047 79.0576 89.7728 79.033 89.8656C78.9284 90.2599 79.0153 90.494 79.2937 90.5679C79.5605 90.6386 79.9491 90.5307 80.4597 90.244ZM84.6468 93.3657C84.554 93.3411 84.4268 93.2825 84.2651 93.19C84.115 93.1005 84.0272 93.0338 84.0016 92.9897C83.9474 92.9133 83.9009 92.8078 83.8621 92.6734C83.8263 92.5273 83.83 92.3731 83.873 92.2107C83.9407 91.9555 84.1043 91.7134 84.3637 91.4842C84.4702 91.3635 84.7718 90.9283 85.2686 90.1786L85.8704 89.314C85.9459 89.1229 85.9712 88.9807 85.9464 88.8872C85.9246 88.7821 85.8398 88.7037 85.6921 88.6521C85.5645 88.6183 85.4825 88.5531 85.446 88.4565C85.4127 88.3483 85.4221 88.1957 85.4744 87.9985C85.5984 87.6713 85.7964 87.4631 86.0684 87.3739C86.2786 87.3303 86.5461 87.3516 86.8708 87.4377C87.1608 87.5146 87.3414 87.606 87.4127 87.7118C87.487 87.806 87.5267 87.9841 87.5317 88.2462C87.5367 88.5082 87.5289 88.7482 87.5083 88.9662C87.5755 88.9468 87.7678 88.8302 88.0852 88.6164L88.5741 88.3178C88.8082 88.2309 89.0698 88.1575 89.3588 88.0976C89.6478 88.0377 89.8445 88.0216 89.9489 88.0493C90.0649 88.08 90.2003 88.178 90.3551 88.3432C90.51 88.5084 90.6025 88.6509 90.6328 88.7707C90.7207 89.1416 90.7369 89.4315 90.6815 89.6402C90.6385 89.8026 90.564 89.9194 90.4582 89.9907C90.0405 90.302 89.6402 90.4069 89.2574 90.3054C89.1646 90.2808 89.0908 90.255 89.0359 90.228C88.9809 90.201 88.9329 90.1014 88.8917 89.929C88.8505 89.7567 88.8349 89.6284 88.8448 89.5442C88.854 89.5094 88.7486 89.5559 88.5284 89.6837C88.323 89.803 88.1909 89.8797 88.1322 89.9138L87.7534 90.1486C87.5093 90.3197 87.241 90.5589 86.9485 90.8662C86.6676 91.1766 86.2446 91.6479 85.6796 92.2802L85.3104 92.7595C85.1236 92.9956 84.9859 93.1639 84.8971 93.2645C84.8115 93.3535 84.728 93.3872 84.6468 93.3657ZM8.13495 97.6132C7.97493 97.608 7.83918 97.5348 7.72767 97.3935C7.61617 97.2522 7.54408 97.1027 7.51141 96.945C7.49648 96.7673 7.49741 96.5999 7.51421 96.443C7.53408 96.2744 7.57359 96.0552 7.63274 95.7854L7.77224 95.1892L6.88817 95.6438C5.97593 96.1343 5.20664 96.2965 4.58029 96.1304C4.40394 96.0464 4.20769 95.8267 3.99154 95.4714C3.787 95.1192 3.67028 94.8338 3.64138 94.6151C3.6196 94.51 3.63485 94.3588 3.68715 94.1616C3.80405 93.7209 4.06001 93.2239 4.45503 92.6707C4.85313 92.1058 5.27693 91.6782 5.72641 91.3877C6.08311 91.0726 6.46739 90.8642 6.87926 90.7624C7.29112 90.6605 7.68264 90.6589 8.05381 90.7573C8.40178 90.8496 8.68915 91.0065 8.91594 91.228C9.05679 91.3523 9.17941 91.4283 9.2838 91.456C9.39979 91.4867 9.49518 91.4313 9.56997 91.2898C9.59695 91.2349 9.72807 91.0213 9.96333 90.6492L10.3024 90.1432C10.7606 89.4454 11.144 88.8891 11.4526 88.4743C11.7613 88.0596 12.1228 87.6092 12.5373 87.1232C12.7178 86.9104 12.8873 86.7629 13.0457 86.6808C13.204 86.5986 13.3339 86.5772 13.4352 86.6165C13.586 86.6565 13.7345 86.7517 13.8808 86.9023C14.0418 87.0443 14.1313 87.1984 14.1493 87.3645C14.1625 87.455 14.1538 87.5582 14.123 87.6742C14.0892 87.8017 14.019 87.9259 13.9125 88.0466C13.4725 88.4886 12.8752 89.2427 12.1207 90.3089C11.3661 91.3751 10.7517 92.3108 10.2774 93.1162C10.1015 93.4047 9.91659 93.8212 9.72254 94.3657C9.54008 94.9132 9.37809 95.4537 9.23658 95.9873C9.10123 96.4976 9.03403 96.8212 9.03498 96.958C9.03972 97.0338 9.02671 97.1297 8.99595 97.2457C8.94365 97.4428 8.83868 97.5578 8.68104 97.5904C8.53191 97.6378 8.34988 97.6454 8.13495 97.6132ZM5.82255 94.7466C6.11701 94.713 6.45893 94.6174 6.8483 94.46C7.26395 94.2971 7.57332 94.1371 7.7764 93.9799C7.99108 93.8258 8.18481 93.6102 8.35759 93.3333C8.39617 93.2814 8.4293 93.2033 8.45699 93.0989C8.51236 92.8901 8.46453 92.6726 8.31349 92.4463C8.22211 92.3228 8.10103 92.241 7.95024 92.201C7.70666 92.1364 7.41765 92.1963 7.08319 92.3807C6.70779 92.5791 6.38115 92.8277 6.10328 93.1264C5.82848 93.4136 5.54884 93.836 5.26436 94.3937C5.21963 94.4688 5.21277 94.5414 5.24378 94.6117C5.27788 94.6704 5.34712 94.7136 5.45151 94.7413C5.5327 94.7629 5.65638 94.7646 5.82255 94.7466ZM14.3157 91.1145C14.2212 91.0026 14.1561 90.8736 14.1204 90.7275C14.0846 90.5815 14.0763 90.4489 14.0955 90.3298C14.1146 90.2108 14.1447 90.1443 14.1856 90.1303C14.2768 90.0676 14.3756 89.9758 14.4821 89.8551C14.5886 89.7344 14.667 89.6496 14.7171 89.6008C14.8653 89.4167 14.9807 89.2859 15.0633 89.2085C15.1875 89.0676 15.286 89.0006 15.3587 89.0075C15.4638 88.9857 15.5453 88.9825 15.6033 88.9979C15.7541 89.0379 15.9027 89.1331 16.049 89.2837C16.2068 89.4373 16.3137 89.596 16.3696 89.7598C16.4016 89.9669 16.3991 90.1401 16.3622 90.2792C16.2884 90.5576 16.0735 90.8296 15.7175 91.0952C15.5615 91.2153 15.3915 91.2943 15.2076 91.3325C15.0237 91.3706 14.8505 91.3681 14.6882 91.325C14.5258 91.282 14.4016 91.2118 14.3157 91.1145ZM10.5863 97.5929C10.4669 97.3875 10.4626 97.076 10.5734 96.6584C10.6318 96.438 10.7054 96.2775 10.7942 96.1769C10.8096 96.1189 10.8396 96.0524 10.8844 95.9774C10.9291 95.9023 10.9545 95.8532 10.9607 95.83C10.9676 95.7574 11.0647 95.5783 11.2522 95.2928C11.4744 95.0165 11.7761 94.5813 12.1571 93.9872C12.5498 93.3961 12.8236 92.9721 12.9786 92.7152C12.994 92.6573 13.0295 92.617 13.0851 92.5945C13.1438 92.5604 13.2211 92.5499 13.317 92.5629C13.4569 92.5503 13.6039 92.6514 13.758 92.8661C13.9152 93.0692 14.0314 93.2862 14.1067 93.5172C14.1579 93.6053 14.1681 93.7073 14.1373 93.8233C14.0912 93.9973 13.9512 94.2209 13.7173 94.4941C13.6255 94.6063 13.5259 94.7475 13.4187 94.9177C13.3231 95.091 13.2364 95.2542 13.1585 95.4073C12.9363 95.6836 12.7492 95.9443 12.5972 96.1896C12.5224 96.3311 12.4685 96.441 12.4353 96.5191C12.2403 96.9267 12.0911 97.1851 11.9877 97.2942C11.8412 97.5657 11.6841 97.76 11.5165 97.8769C11.352 97.9823 11.1886 98.0134 11.0262 97.9703C10.829 97.918 10.6824 97.7922 10.5863 97.5929ZM15.4785 99.3188C15.1189 99.2234 14.8041 99.053 14.534 98.8076C14.2639 98.5621 14.0684 98.293 13.9474 98.0002C13.8295 97.6958 13.8028 97.4218 13.8674 97.1782C13.9197 96.9811 14.0271 96.904 14.1894 96.9471C14.2877 96.998 14.3925 97.094 14.5041 97.2354C14.6503 97.3859 14.7738 97.5055 14.8744 97.5943C14.9866 97.6861 15.1065 97.749 15.2341 97.7828C15.4313 97.8351 15.6072 97.8507 15.7617 97.8296C15.931 97.8 16.0441 97.7245 16.1012 97.6031C16.1135 97.5567 16.1164 97.4519 16.11 97.2888C16.1067 97.1141 16.0871 96.9538 16.0514 96.8077C15.8977 96.3573 15.8222 95.94 15.8248 95.5558C15.842 95.1631 15.9036 94.7201 16.0096 94.2268C16.0804 93.96 16.3564 93.6918 16.8376 93.4221C17.3304 93.1556 17.8704 92.945 18.4577 92.7904C19.0565 92.6388 19.523 92.5887 19.857 92.6401C20.4949 92.8092 20.8638 92.963 20.9637 93.1012C21.0923 93.2718 21.1877 93.5206 21.25 93.8475C21.3123 94.1744 21.3173 94.4364 21.265 94.6336C21.2434 94.7148 21.1751 94.8084 21.0601 94.9145C20.9598 95.012 20.8934 95.0751 20.8609 95.1038L20.6397 95.3058L20.4487 95.5345C20.4102 95.5863 20.3465 95.6625 20.2577 95.7632C20.1806 95.8668 20.1157 95.9241 20.0632 95.935C20.0222 95.949 19.9627 95.9394 19.8846 95.9063C19.6874 95.854 19.5307 95.7193 19.4144 95.5023C19.2982 95.2852 19.2678 95.0723 19.3231 94.8635C19.3631 94.7127 19.4553 94.5758 19.5997 94.4527C19.7441 94.3296 19.8194 94.2564 19.8255 94.2332C19.8378 94.1868 19.7918 94.1498 19.6874 94.1221C19.5366 94.0821 19.2846 94.096 18.9314 94.1637C18.5783 94.2314 18.2461 94.3606 17.9348 94.5512C17.6266 94.7301 17.4326 94.9704 17.3526 95.272C17.3095 95.4344 17.2877 95.6334 17.2873 95.8692C17.3015 96.0964 17.3308 96.2904 17.375 96.4511C17.4432 96.5685 17.5028 96.8823 17.5537 97.3924C17.6193 97.894 17.6167 98.2782 17.546 98.5449C17.4383 98.9509 17.2002 99.2167 16.8317 99.3425C16.4747 99.4713 16.0237 99.4634 15.4785 99.3188ZM22.5699 100.92C22.4153 100.941 22.2627 100.932 22.1119 100.892C21.8683 100.827 21.5894 100.685 21.2753 100.465C21.2289 100.453 21.1016 100.301 20.8932 100.01C20.6996 99.7103 20.5907 99.489 20.5665 99.3461C20.4796 99.112 20.4793 98.8325 20.5654 98.5077C20.7131 97.951 21.1117 97.2436 21.7614 96.3854C21.9598 96.1525 22.2608 95.8599 22.6646 95.5076C23.0831 95.1469 23.3522 94.9513 23.472 94.921C23.5099 94.9186 23.5988 94.9112 23.7387 94.8986C23.8816 94.8745 24.0451 94.8433 24.229 94.8052C24.3194 94.7919 24.4984 94.796 24.7659 94.8172C25.0364 94.8269 25.2239 94.8456 25.3283 94.8733C25.5487 94.9317 25.7707 95.0775 25.9944 95.3107C26.2212 95.5322 26.3823 95.7674 26.4777 96.0162C26.5847 96.268 26.595 96.4632 26.5086 96.6016C26.4847 96.645 26.384 96.7672 26.2065 96.9685C26.0321 97.1581 25.9008 97.2784 25.8128 97.3296C25.751 97.3753 25.6563 97.3812 25.5287 97.3474C25.3779 97.3074 25.2495 97.2299 25.1435 97.1148C25.0374 96.9998 24.9986 96.8653 25.027 96.7115C25.0222 96.6357 24.9668 96.5403 24.8608 96.4253C24.7663 96.3134 24.699 96.2396 24.6587 96.2041C24.5775 96.1826 24.4458 96.2346 24.2636 96.36C24.0844 96.4739 23.8577 96.6497 23.5837 96.8874C23.3048 97.0493 23.0852 97.2455 22.9247 97.4761C22.7789 97.6981 22.6609 97.9089 22.5708 98.1085C22.4953 98.2995 22.4367 98.4268 22.395 98.4902C22.3534 98.5536 22.3233 98.6202 22.3049 98.6898C22.2741 98.8057 22.2665 98.9279 22.2822 99.0562C22.3009 99.1729 22.3319 99.2432 22.3752 99.2671C22.5809 99.3341 22.918 99.3738 23.3864 99.3863C23.8696 99.3903 24.3036 99.3688 24.6885 99.3219C24.8785 99.2606 25.0664 99.2546 25.2519 99.3038C25.3331 99.3253 25.4112 99.3584 25.4863 99.4032C25.5644 99.4363 25.6193 99.4633 25.651 99.4841C25.7547 99.5613 25.785 99.6811 25.742 99.8434C25.702 99.9942 25.6082 100.137 25.4608 100.272C25.3133 100.406 25.133 100.501 24.9197 100.556C24.6948 100.609 24.499 100.668 24.3321 100.736C24.1652 100.803 24.0741 100.866 24.0587 100.924C24.0355 100.918 23.9845 100.923 23.9057 100.939C23.8299 100.944 23.782 100.938 23.7619 100.92C23.6312 100.898 23.4232 100.886 23.138 100.885C22.8528 100.884 22.6634 100.895 22.5699 100.92ZM28.2865 102.455C28.2255 102.451 28.1485 102.437 28.0557 102.412C27.905 102.372 27.7893 102.317 27.7088 102.246C27.6314 102.163 27.5458 102.041 27.4521 101.88C27.2192 101.682 27.0441 101.405 26.9269 101.052C26.8097 100.698 26.7858 100.437 26.8551 100.269C27.0608 99.7277 27.3773 99.166 27.8048 98.5842C28.2353 97.9907 28.7228 97.4868 29.2672 97.0726C29.8262 96.6497 30.3654 96.3955 30.8848 96.3097C31.1151 96.2839 31.3172 96.2941 31.4912 96.3402C31.8508 96.4356 32.0578 96.6147 32.1123 96.8774C32.1504 97.0613 32.1587 97.1939 32.1371 97.2751C32.1002 97.4143 31.9944 97.4855 31.8197 97.4888C31.7849 97.4796 31.7397 97.4862 31.6841 97.5087C31.6285 97.5312 31.5961 97.5599 31.5868 97.5947C31.5953 97.6093 31.646 97.629 31.7388 97.6536C31.936 97.7059 32.1873 97.7415 32.4926 97.7604C32.798 97.7793 33.0005 97.7647 33.1001 97.7167C33.1789 97.7003 33.2415 97.6983 33.2879 97.7106L33.5223 97.81C33.7041 97.9203 33.7842 98.0161 33.7627 98.0973C33.7473 98.1553 33.7447 98.2353 33.7549 98.3373C33.7767 98.4424 33.805 98.4995 33.8398 98.5088C33.8978 98.5242 33.916 98.5724 33.8945 98.6536C33.876 98.7232 33.8108 98.8053 33.6988 98.8997C33.6016 98.9856 33.4695 99.0623 33.3026 99.1298C33.2354 99.1492 33.1346 99.1784 33.0001 99.2172C32.8773 99.2591 32.7981 99.3002 32.7626 99.3404C32.7387 99.3837 32.7276 99.4491 32.7292 99.5364C32.751 99.6415 32.7434 99.7637 32.7065 99.9028C32.6019 100.297 32.2875 100.71 31.7632 101.142C31.242 101.563 30.6492 101.902 29.9848 102.161C29.332 102.422 28.7659 102.52 28.2865 102.455ZM28.7264 101.007C28.7959 101.026 28.9884 101.002 29.3037 100.937C29.4945 100.826 29.6409 100.766 29.7429 100.756C29.7777 100.765 29.8144 100.744 29.8529 100.692C29.9062 100.631 29.9845 100.547 30.088 100.437C30.2061 100.32 30.3814 100.174 30.6138 99.9996C30.8547 99.84 31.0269 99.7057 31.1304 99.5965C31.2454 99.4905 31.3198 99.3737 31.3537 99.2461C31.366 99.1997 31.3759 99.1154 31.3835 98.9933C31.3811 98.9554 31.3482 98.9156 31.2848 98.874C31.236 98.8238 31.1857 98.7794 31.1339 98.7408C31.0759 98.7255 31.0133 98.7275 30.946 98.7469C30.8819 98.7547 30.8382 98.7555 30.815 98.7494C30.757 98.734 30.7009 98.6881 30.6467 98.6116L30.4606 98.1898L30.0864 98.4072C29.7489 98.6032 29.4273 98.9028 29.1218 99.3059C28.8278 99.7121 28.6142 100.096 28.481 100.458C28.4263 100.617 28.4187 100.74 28.4583 100.825C28.5125 100.901 28.6018 100.962 28.7264 101.007ZM34.5194 103.27C34.4164 103.143 34.347 102.703 34.3112 101.949C34.2754 101.194 34.2911 100.503 34.3583 99.8754C34.3765 99.6195 34.3713 99.2643 34.3429 98.8098C34.3443 98.7109 34.3527 98.6324 34.3681 98.5744C34.4142 98.4004 34.5068 98.2387 34.6457 98.0894C34.7877 97.9284 34.926 97.8285 35.0604 97.7897C35.116 97.7672 35.2208 97.7701 35.3746 97.7985C35.5432 97.8184 35.6549 97.8418 35.7098 97.8688C35.9404 98.0293 35.9847 98.7983 35.8428 100.176C35.7938 100.548 35.7594 100.818 35.7395 100.987C35.7313 101.158 35.7194 101.273 35.7041 101.331C35.7088 101.407 35.7105 101.494 35.7091 101.593C35.7076 101.692 35.7139 101.762 35.7279 101.803C35.7419 101.844 35.7855 101.843 35.8589 101.8C36.0203 101.707 36.2732 101.525 36.6176 101.257C36.7883 101.128 37.0504 100.912 37.404 100.609L38.0886 100.064C38.277 99.9153 38.5164 99.7615 38.8068 99.6027C39.0973 99.4438 39.3109 99.3639 39.4477 99.363C39.6162 99.3828 39.7346 99.4515 39.8028 99.5689C39.8856 99.6777 39.9071 99.8076 39.8671 99.9584C39.8086 100.179 39.6528 100.392 39.3995 100.598C39.3053 100.672 39.1961 100.78 39.0718 100.921C38.9622 101.053 38.8927 101.128 38.8634 101.145C38.6681 101.366 38.335 101.663 37.864 102.034C37.4045 102.409 37.1015 102.639 36.9547 102.724C36.9254 102.741 36.8052 102.796 36.5943 102.889C36.395 102.985 36.1996 103.114 36.0081 103.274C35.5563 103.526 35.1738 103.611 34.8606 103.528C34.7098 103.488 34.5961 103.402 34.5194 103.27ZM39.8674 105.508C39.5246 105.256 39.302 104.948 39.1994 104.586C39.1116 104.215 39.1354 103.774 39.2707 103.264C39.3015 103.148 39.3684 102.942 39.4716 102.647C39.5078 102.557 39.5429 102.448 39.5767 102.321C39.629 102.124 39.6443 101.973 39.6225 101.867C39.6038 101.751 39.5503 101.625 39.4619 101.49C39.4364 101.446 39.3752 101.349 39.2784 101.199C39.1815 101.049 39.1466 100.947 39.1736 100.892L39.1874 100.84C39.209 100.758 39.2494 100.676 39.3088 100.592C39.3829 100.5 39.4404 100.447 39.4814 100.433C39.5193 100.431 39.5981 100.415 39.7179 100.384C39.8376 100.354 39.9234 100.358 39.9753 100.397C40.0217 100.409 40.0836 100.457 40.161 100.539C40.25 100.625 40.2884 100.691 40.2761 100.737C40.3087 100.895 40.5485 100.716 40.9954 100.202C41.2224 100.001 41.5058 99.8219 41.8457 99.6638C42.1887 99.494 42.4931 99.3761 42.7589 99.31C42.8493 99.2968 43.0414 99.2981 43.3352 99.3139C43.6436 99.3212 43.879 99.3464 44.0414 99.3895C44.227 99.4387 44.4216 99.571 44.6251 99.7864C44.8403 100.005 45.006 100.223 45.1223 100.44C45.3197 100.678 45.3538 101.041 45.2246 101.528C45.1477 101.818 45.0352 102.055 44.887 102.239C44.7945 102.401 44.4917 102.606 43.9788 102.855C43.4806 103.096 43.09 103.234 42.8071 103.271C42.5366 103.261 42.2447 103.215 41.9315 103.132C41.6184 103.049 41.4115 102.963 41.3109 102.874C41.242 102.806 41.1662 102.811 41.0836 102.888C41.0157 102.957 40.9244 103.138 40.8096 103.43L40.746 103.599C40.7122 103.727 40.7089 103.856 40.7361 103.988C40.7804 104.149 40.8296 104.267 40.8839 104.344C40.9381 104.42 41.0348 104.477 41.174 104.514L41.3352 104.538C41.4658 104.56 41.6161 104.532 41.7861 104.452C41.9676 104.376 42.1831 104.266 42.4326 104.121C42.6937 103.979 42.8463 103.896 42.8903 103.87C42.979 103.769 43.151 103.753 43.4062 103.821C43.5106 103.848 43.6393 103.901 43.7925 103.979C43.8839 104.103 43.9111 104.234 43.8742 104.373C43.8219 104.57 43.6584 104.813 43.3836 105.1C43.2948 105.2 43.0627 105.35 42.6873 105.548C42.3235 105.75 42.0408 105.879 41.8391 105.938C41.4798 106.029 41.1087 106.023 40.726 105.922C40.436 105.845 40.1498 105.707 39.8674 105.508ZM42.1931 101.935C42.49 101.939 42.7261 101.915 42.9015 101.862C43.0916 101.801 43.3294 101.653 43.6151 101.418C43.7817 101.164 43.8437 101.001 43.8011 100.927C43.75 100.839 43.678 100.783 43.5852 100.758C43.4693 100.728 43.3131 100.754 43.1169 100.839C42.9917 100.843 42.8001 100.91 42.5421 101.04C42.2988 101.162 42.0844 101.291 41.8991 101.428C41.7168 101.554 41.6501 101.642 41.6989 101.692C41.6664 101.721 41.7167 101.765 41.8498 101.825C41.9859 101.874 42.1003 101.91 42.1931 101.935ZM45.9076 106.886C45.8148 106.862 45.6875 106.803 45.5259 106.711C45.3758 106.621 45.288 106.554 45.2624 106.51C45.2082 106.434 45.1617 106.329 45.1228 106.194C45.0871 106.048 45.0907 105.894 45.1338 105.731C45.2015 105.476 45.365 105.234 45.6244 105.005C45.7309 104.884 46.0326 104.449 46.5294 103.699L47.1312 102.835C47.2066 102.644 47.232 102.501 47.2071 102.408C47.1853 102.303 47.1006 102.224 46.9529 102.173C46.8253 102.139 46.7432 102.074 46.7068 101.977C46.6734 101.869 46.6829 101.716 46.7352 101.519C46.8592 101.192 47.0572 100.984 47.3291 100.895C47.5393 100.851 47.8068 100.872 48.1316 100.958C48.4215 101.035 48.6022 101.127 48.6734 101.233C48.7478 101.327 48.7874 101.505 48.7924 101.767C48.7974 102.029 48.7896 102.269 48.769 102.487C48.8363 102.468 49.0286 102.351 49.346 102.137L49.8349 101.839C50.069 101.752 50.3305 101.678 50.6196 101.618C50.9086 101.558 51.1053 101.542 51.2097 101.57C51.3257 101.601 51.4611 101.699 51.6159 101.864C51.7707 102.029 51.8633 102.172 51.8936 102.291C51.9814 102.662 51.9977 102.952 51.9423 103.161C51.8992 103.323 51.8248 103.44 51.719 103.511C51.3012 103.823 50.901 103.928 50.5182 103.826C50.4254 103.801 50.3515 103.776 50.2966 103.749C50.2417 103.722 50.1936 103.622 50.1524 103.45C50.1112 103.277 50.0956 103.149 50.1055 103.065C50.1148 103.03 50.0093 103.077 49.7892 103.204C49.5837 103.324 49.4517 103.4 49.393 103.435L49.0141 103.669C48.7701 103.84 48.5018 104.08 48.2093 104.387C47.9283 104.697 47.5053 105.169 46.9404 105.801L46.5711 106.28C46.3844 106.516 46.2466 106.685 46.1579 106.785C46.0722 106.874 45.9888 106.908 45.9076 106.886ZM55.4687 109.422C55.4524 109.343 55.3784 109.224 55.2468 109.065C55.1151 108.906 55.0524 108.815 55.0586 108.792C55.0709 108.746 55.0588 108.674 55.0223 108.578C55.0005 108.472 54.9757 108.379 54.9477 108.297C54.8796 108.18 55.0233 107.895 55.3791 107.443C55.7348 106.991 56.1906 106.467 56.7463 105.869C56.8344 105.818 56.9537 105.719 57.1042 105.573C57.2663 105.43 57.3679 105.351 57.4088 105.337C57.4211 105.291 57.4493 105.255 57.4933 105.229C57.5404 105.192 57.5872 105.18 57.6336 105.192L57.8466 104.95C57.9207 104.858 58.213 104.669 58.7235 104.382C59.2341 104.096 59.6238 103.913 59.8927 103.836C60.1531 103.743 60.4109 103.731 60.666 103.799C60.9444 103.873 61.1607 104.017 61.3148 104.231L61.6784 104.756C61.9495 105.138 62.102 105.359 62.1361 105.418L62.6276 106.163L62.1011 106.954C61.9137 107.239 61.783 107.521 61.7092 107.8C61.5923 108.241 61.6049 108.685 61.7469 109.132C61.7711 109.275 61.8203 109.394 61.8947 109.488C61.9806 109.585 62.1017 109.667 62.2579 109.733C62.5008 109.847 62.5945 110.009 62.5392 110.217C62.4715 110.473 62.3743 110.652 62.2477 110.755C62.1211 110.858 61.9893 110.91 61.8525 110.911C61.6608 110.884 61.5301 110.862 61.4605 110.844C61.1242 110.755 60.8399 110.586 60.6076 110.338C60.3754 110.09 60.2103 109.73 60.1122 109.257C60.0843 109.175 60.0543 109.031 60.0224 108.824C60.002 108.62 59.9952 108.481 60.0021 108.409C59.8901 108.503 59.7167 108.618 59.4819 108.755C57.9673 109.644 56.8388 109.99 56.0965 109.794C55.8413 109.726 55.6321 109.602 55.4687 109.422ZM56.8086 108.232C56.9881 108.304 57.403 108.191 58.0535 107.892C58.1238 107.861 58.2014 107.825 58.2864 107.786C58.3744 107.735 58.4683 107.685 58.5679 107.637C58.9634 107.456 59.2713 107.302 59.4914 107.174C59.7262 107.038 59.9702 106.867 60.2235 106.661L60.7724 106.136C60.7241 105.85 60.6643 105.654 60.593 105.548C60.5249 105.431 60.4444 105.36 60.3516 105.335C60.1196 105.274 59.7743 105.406 59.3155 105.731C58.8599 106.045 58.2777 106.555 57.5691 107.26C57.3861 107.435 57.2233 107.628 57.0806 107.839C56.9409 108.037 56.8503 108.169 56.8086 108.232ZM68.2739 114.327C67.8246 114.195 67.5291 113.999 67.3872 113.738C67.254 113.491 67.2365 113.183 67.335 112.812C67.3596 112.719 67.4112 112.571 67.4897 112.368C67.5792 112.218 67.6571 112.065 67.7233 111.909C67.849 111.669 67.947 111.534 68.0173 111.503C68.032 111.494 68.0497 111.474 68.0706 111.442C68.0914 111.411 68.0875 111.379 68.0588 111.346C68.0988 111.195 68.2064 111 68.3815 110.761C68.4263 110.686 68.4768 110.613 68.5331 110.541C68.5895 110.469 68.6265 110.423 68.6443 110.403C68.6272 110.373 68.6248 110.335 68.6371 110.289C68.6525 110.231 68.6969 110.181 68.7703 110.138C68.8553 110.099 68.9155 110.059 68.951 110.018C68.9981 109.981 69.0104 109.935 68.9879 109.879C68.9801 109.815 69.1595 109.583 69.5261 109.184C69.7569 108.922 69.8827 108.776 69.9035 108.744C69.9012 108.706 70.0393 108.513 70.3178 108.165C70.608 107.82 70.8315 107.562 70.9881 107.393C71.1079 107.363 71.0781 107.311 70.8987 107.239C70.7192 107.166 70.4946 107.101 70.2247 107.041C69.845 106.928 69.5539 106.833 69.3513 106.754C69.1517 106.664 68.9974 106.567 68.8882 106.464C68.8286 106.361 68.8157 106.246 68.8495 106.118C68.8895 105.967 68.9786 105.842 69.1168 105.742C69.2667 105.645 69.4243 105.613 69.5898 105.644C69.8944 105.712 70.3691 105.795 71.0139 105.891L71.9197 106.057L72.0504 105.775C72.136 105.686 72.2113 105.613 72.2762 105.556C72.3557 105.49 72.409 105.43 72.4359 105.375C72.4745 105.323 72.515 105.24 72.5573 105.128C72.6044 105.09 72.6932 104.99 72.8236 104.826C72.9656 104.665 73.0713 104.5 73.1407 104.332C73.3267 104.146 73.4981 103.968 73.6547 103.798C73.8261 103.62 73.928 103.517 73.9604 103.488C74.2523 103.231 74.5258 103.136 74.781 103.203C74.9201 103.24 75.0528 103.325 75.179 103.458C75.3021 103.602 75.3935 103.726 75.4531 103.828C75.5128 103.931 75.5242 104.052 75.4873 104.191C75.4596 104.296 75.3674 104.433 75.2107 104.602C75.1397 104.683 75.0209 104.85 74.8542 105.104C74.7454 105.186 74.6199 105.308 74.4779 105.469C74.339 105.619 74.2306 105.77 74.1527 105.923C74.1141 105.975 74.0578 106.047 73.9837 106.139C73.9127 106.219 73.8625 106.268 73.8332 106.285C73.8185 106.294 73.7938 106.293 73.759 106.284C73.7521 106.357 73.763 106.409 73.7917 106.442C73.8203 106.474 73.8752 106.501 73.9564 106.523C74.0144 106.538 74.0855 106.551 74.1698 106.561C74.2657 106.574 74.3774 106.597 74.505 106.631C74.6241 106.65 74.7273 106.659 74.8146 106.657C74.9136 106.659 75.0036 106.67 75.0848 106.692C75.1312 106.704 75.1962 106.74 75.2798 106.799C75.3193 106.884 75.3129 107.025 75.2606 107.223C75.2206 107.373 75.159 107.512 75.0757 107.639C74.9954 107.754 74.9159 107.82 74.8371 107.836C74.776 107.833 74.6392 107.834 74.4266 107.839C74.2141 107.845 73.9902 107.823 73.7552 107.773L72.81 107.615L72.3573 108.129C72.2392 108.246 72.1342 108.361 72.0424 108.473C71.9506 108.586 71.89 108.65 71.8606 108.667C71.8453 108.725 71.7681 108.829 71.6292 108.978C71.4902 109.128 71.3837 109.248 71.3096 109.34C71.2086 109.487 71.0959 109.631 70.9716 109.772C70.8505 109.901 70.7721 109.986 70.7366 110.026C70.7018 110.017 70.6755 110.023 70.6578 110.043C70.6547 110.054 70.6486 110.078 70.6393 110.112L70.6372 110.261C70.6218 110.319 70.5775 110.369 70.5041 110.412C70.4515 110.423 70.3944 110.451 70.3326 110.497C70.2824 110.545 70.2484 110.58 70.2307 110.6C70.2477 110.629 70.2516 110.661 70.2424 110.696C70.2209 110.777 70.1526 110.871 70.0376 110.977C69.9853 111.174 69.8256 111.448 69.5587 111.8C69.5149 112.012 69.4911 112.148 69.4873 112.209C69.4835 112.27 69.5064 112.301 69.5559 112.302L69.6428 112.325L70.0302 112.409C70.1207 112.396 70.115 112.487 70.0132 112.684C69.923 112.883 69.7398 113.176 69.4636 113.562C69.2189 113.783 68.9718 113.966 68.7223 114.111C68.4814 114.27 68.3319 114.342 68.2739 114.327ZM73.1477 113.999C73.0192 113.829 72.9239 113.673 72.8618 113.532C72.7998 113.392 72.8139 113.222 72.904 113.022C73.0434 112.637 73.2519 112.202 73.5296 111.717L73.7088 111.392C73.8267 111.088 74.1695 110.521 74.7373 109.691C75.3198 108.852 75.7643 108.3 76.0708 108.033C76.2176 107.948 76.4301 107.942 76.7085 108.016C76.9405 108.078 77.0906 108.167 77.1588 108.285C77.2331 108.379 77.2487 108.507 77.2056 108.67C77.1349 108.936 76.8421 109.361 76.3273 109.945L76.0564 110.264C75.9353 110.393 75.8287 110.514 75.7369 110.626C75.6567 110.742 75.6471 110.801 75.7082 110.805C75.8942 110.618 76.2816 110.398 76.8702 110.145C77.4705 109.894 77.8757 109.747 78.0859 109.704C78.1794 109.679 78.2961 109.66 78.436 109.648C78.5759 109.635 78.6721 109.623 78.7247 109.612C78.9612 109.563 79.2128 109.574 79.4796 109.645C79.6651 109.694 79.814 109.765 79.9262 109.857C80.0531 109.94 80.1259 110.04 80.1446 110.157C80.1347 110.241 80.1468 110.312 80.1809 110.371C80.2266 110.433 80.2595 110.473 80.2796 110.49C80.3144 110.5 80.333 110.523 80.3353 110.561C80.3408 110.587 80.342 110.606 80.3389 110.618C80.3143 110.711 80.2008 110.811 79.9984 110.919C79.7991 111.015 79.6109 111.046 79.4339 111.011C79.3032 110.989 79.1621 110.982 79.0106 110.992C78.8591 111.001 78.7046 111.022 78.5469 111.055L78.0253 111.196C77.5787 111.289 77.19 111.397 76.8593 111.52C76.5433 111.635 76.2062 111.806 75.8478 112.034C75.7744 112.076 75.6659 112.135 75.5222 112.208C75.3901 112.285 75.265 112.382 75.1469 112.5C75.0442 112.559 74.9003 112.751 74.7152 113.074C74.5448 113.389 74.4489 113.587 74.4273 113.668C74.4065 113.7 74.3648 113.763 74.3024 113.859C74.2399 113.954 74.1631 114.033 74.0719 114.095C73.9337 114.195 73.8221 114.265 73.7371 114.305C73.6522 114.344 73.5691 114.353 73.4879 114.332C73.3719 114.301 73.2585 114.19 73.1477 113.999ZM80.6363 116.823C79.314 116.473 78.8528 115.543 79.2527 114.036C79.3973 113.49 79.6938 112.911 80.142 112.298C80.605 111.675 81.1117 111.146 81.6623 110.708C82.2275 110.262 82.7377 110 83.1929 109.922C83.4441 109.865 83.7146 109.874 84.0046 109.951C84.5265 110.09 84.9481 110.326 85.2694 110.659C85.6053 110.984 85.6902 111.46 85.5241 112.086C85.4287 112.446 85.2023 112.808 84.8449 113.172C84.4875 113.537 84.0832 113.821 83.6321 114.024C83.1956 114.219 82.8034 114.27 82.4554 114.177C81.9335 114.039 81.5373 113.754 81.267 113.322C80.9652 113.664 80.7666 114.015 80.6712 114.375C80.5943 114.665 80.5691 114.9 80.5957 115.081C80.6253 115.25 80.7677 115.369 81.0228 115.436C81.2664 115.501 81.4728 115.518 81.6421 115.489C81.8113 115.459 81.972 115.415 82.1242 115.356C82.2764 115.297 82.3935 115.253 82.4754 115.226L82.5542 115.209L82.5368 115.205C82.7764 115.144 82.9502 115.097 83.0584 115.064C83.1812 115.022 83.2805 114.998 83.3563 114.994C83.5303 115.04 83.6788 115.135 83.8019 115.279C83.925 115.424 83.9666 115.571 83.9266 115.722C83.8958 115.838 83.7407 116.002 83.4611 116.213C83.1847 116.413 82.9224 116.536 82.6743 116.582L82.4379 116.631L82.4553 116.635C82.314 116.747 82.1911 116.789 82.0867 116.761L81.9475 116.724C81.8765 116.805 81.6953 116.856 81.4039 116.878C81.1242 116.903 80.8683 116.885 80.6363 116.823ZM82.6531 112.87C82.9779 112.957 83.2816 112.888 83.5642 112.665C83.8584 112.445 84.0424 112.196 84.1162 111.918C84.1501 111.79 84.146 111.665 84.1041 111.542C84.0738 111.422 84.0065 111.348 83.9021 111.321C83.7049 111.268 83.4599 111.303 83.1671 111.424C82.8743 111.545 82.5951 111.731 82.3296 111.984L82.0065 112.289C82.059 112.278 82.0969 112.276 82.1201 112.282C82.2129 112.307 82.2717 112.366 82.2966 112.459C82.3214 112.553 82.3552 112.636 82.3978 112.71C82.4404 112.783 82.5255 112.837 82.6531 112.87ZM92.3597 115.24C92.3105 115.426 92.0916 115.876 91.703 116.593C91.6521 116.691 91.5399 116.903 91.3664 117.23C91.2076 117.548 91.0993 117.792 91.0416 117.963C91.0078 118.091 90.9956 118.23 91.0051 118.382C91.0292 118.525 91.0382 118.608 91.0321 118.631C91.0013 118.747 90.9183 118.849 90.7832 118.937C90.6511 119.014 90.5039 119.031 90.3415 118.988C90.0515 118.911 89.8344 118.723 89.6903 118.424C89.5492 118.113 89.5324 117.755 89.6401 117.349C89.7324 117.001 90.0323 116.386 90.5397 115.502C90.5967 115.381 90.6387 115.293 90.6657 115.238C90.7074 115.174 90.7344 115.119 90.7467 115.073C90.762 115.015 90.7523 114.981 90.7175 114.972C90.6364 114.95 90.505 114.978 90.3234 115.054C90.145 115.118 89.9503 115.197 89.7394 115.29L89.2075 115.54C88.9912 115.607 88.518 115.823 87.788 116.188C87.6914 116.224 87.4512 116.334 87.0673 116.518C86.698 116.693 86.4902 116.775 86.4438 116.762C86.3974 116.75 86.3022 116.687 86.1583 116.575C86.029 116.454 85.9102 116.317 85.8018 116.164C85.705 116.014 85.6765 115.863 85.7165 115.713C85.7627 115.539 85.9732 115.166 86.3481 114.595C86.723 114.024 87.1354 113.476 87.5854 112.949C87.6448 112.866 87.7315 112.703 87.8456 112.46C88.0027 112.055 88.1473 111.814 88.2794 111.737C88.3798 111.639 88.4937 111.607 88.6213 111.641C88.8533 111.703 89.0371 111.876 89.1728 112.16C89.32 112.447 89.3568 112.73 89.2829 113.009C89.2306 113.206 89.1034 113.451 88.9013 113.745C88.7138 114.031 88.5892 114.196 88.5275 114.242C88.5684 114.228 88.6534 114.189 88.7824 114.124C88.9261 114.05 89.1061 113.98 89.3224 113.913C89.7968 113.716 90.1464 113.591 90.3712 113.539C90.5992 113.476 90.7614 113.426 90.858 113.389C90.9136 113.367 90.9546 113.353 90.9809 113.347C91.0218 113.333 91.0481 113.328 91.0597 113.331C91.0976 113.329 91.1675 113.322 91.2695 113.312C91.3862 113.293 91.4736 113.292 91.5316 113.307C91.7056 113.353 91.8684 113.465 92.0202 113.641C92.1866 113.81 92.2529 113.958 92.219 114.085C92.2098 114.12 92.2335 114.195 92.2901 114.309C92.3497 114.412 92.3916 114.535 92.4158 114.678C92.443 114.809 92.4243 114.996 92.3597 115.24ZM97.1746 121.098C96.9999 121.101 96.8662 121.091 96.7734 121.066C96.5762 121.014 96.4033 120.893 96.2546 120.705C96.1694 120.558 96.122 120.409 96.1125 120.258C96.1146 120.109 96.1557 119.884 96.2357 119.583C96.3744 119.247 96.6546 118.682 97.0763 117.888C97.5012 117.082 97.7877 116.586 97.9358 116.402C98.0222 116.264 98.0808 116.137 98.1116 116.021C98.1362 115.928 98.1183 115.855 98.0579 115.801C97.9976 115.748 97.8804 115.699 97.7064 115.652C97.4512 115.585 97.1433 115.646 96.7825 115.836C96.4365 116.017 96.001 116.348 95.476 116.83C94.9479 117.323 94.6377 117.744 94.5455 118.092C94.527 118.161 94.5201 118.234 94.5249 118.31C94.5443 118.377 94.5888 118.42 94.6584 118.438C94.7976 118.475 94.9943 118.459 95.2485 118.39C95.3273 118.373 95.5739 118.333 95.9881 118.269C96.1157 118.303 96.1426 118.459 96.0687 118.738C96.0472 118.819 96.0384 118.922 96.0425 119.047C96.0465 119.173 96.0787 119.262 96.1391 119.315C96.1616 119.371 96.0836 119.431 95.9051 119.495C95.7297 119.548 95.5091 119.607 95.2433 119.673C94.9891 119.742 94.8152 119.789 94.7217 119.814C94.4102 119.819 94.1617 119.796 93.9761 119.747C93.7905 119.698 93.6075 119.568 93.4271 119.359C93.2522 119.176 93.1421 118.936 93.0968 118.638C93.0516 118.341 93.0767 118.012 93.172 117.653C93.2797 117.247 93.4793 116.822 93.7709 116.378C94.3581 115.615 95.1024 114.962 96.0038 114.419C96.0771 114.376 96.2599 114.319 96.552 114.247C96.8441 114.176 97.1095 114.135 97.3484 114.124C97.6599 114.119 97.8852 114.136 98.0244 114.172C98.2796 114.24 98.4858 114.376 98.643 114.579C98.776 114.639 98.8541 114.672 98.8773 114.678C98.9817 114.706 99.0721 114.692 99.1486 114.638C99.2281 114.572 99.3362 114.446 99.4727 114.259C100.073 113.4 100.854 112.328 101.815 111.044C101.936 110.914 102.042 110.775 102.131 110.625C102.232 110.478 102.305 110.391 102.349 110.366L102.877 110.338C103.003 110.334 103.132 110.431 103.266 110.628C103.403 110.813 103.475 110.987 103.481 111.15C103.448 111.278 103.329 111.514 103.126 111.857C102.927 112.189 102.676 112.551 102.373 112.942C102.219 113.15 102.097 113.304 102.009 113.404C101.347 114.259 100.878 114.904 100.601 115.34L100.076 116.057C99.8597 116.31 99.7216 116.503 99.6615 116.636C99.491 116.951 99.3198 117.222 99.1477 117.45C98.9787 117.666 98.8838 117.79 98.863 117.821C98.512 118.349 98.2544 118.759 98.0901 119.05C97.9375 119.345 97.8258 119.626 97.755 119.893C97.7212 120.02 97.669 120.31 97.5985 120.764C97.5862 120.81 97.5329 120.87 97.4387 120.945C97.3561 121.022 97.2681 121.073 97.1746 121.098Z" fill="#181818"/>
</svg>
