<svg width="119" height="112" viewBox="0 0 119 112" fill="none" xmlns="http://www.w3.org/2000/svg">
<path d="M25.2928 9.26415C25.3037 9.31669 25.3374 9.40013 25.394 9.51446C25.4506 9.62878 25.4654 9.71341 25.4384 9.76832C25.4053 9.84644 25.0805 10.0645 24.4641 10.4224C24.1505 10.5751 23.6384 10.8676 22.9279 11.2999C22.2173 11.7322 21.6458 12.1083 21.2133 12.4281C20.6079 12.8386 20.0584 13.2019 19.5649 13.5179C19.0744 13.8224 18.7192 14.0385 18.499 14.1663C18.4959 14.1779 18.4828 14.1807 18.4596 14.1745C18.448 14.1714 18.4349 14.1742 18.4202 14.1827C18.3577 14.2778 18.1576 14.6345 17.8199 15.2525L17.172 16.2911C17.0678 16.4497 16.9128 16.7066 16.7069 17.0617C16.5041 17.4051 16.3448 17.6547 16.229 17.8102C15.8111 18.5435 15.4882 19.0352 15.2605 19.2852C15.0328 19.5352 14.8455 19.6096 14.6985 19.5086C14.632 19.4785 14.4427 19.2793 14.1307 18.911C14.0571 18.7674 14.0372 18.6317 14.071 18.5041C14.0987 18.3998 14.2036 18.1917 14.3856 17.8799L14.6007 17.49C14.6861 17.2147 14.826 16.898 15.0203 16.5399C15.2262 16.1848 15.4311 15.9039 15.6349 15.6972C15.681 15.5233 15.8097 15.2719 16.0211 14.9431C16.2355 14.6027 16.4481 14.2928 16.6587 14.0135L17.0244 13.4773L16.8127 13.0114C16.6591 12.561 16.5569 12.1739 16.5062 11.8501C16.4586 11.5146 16.4612 11.1305 16.5139 10.6975C16.5094 10.1997 16.5748 9.69565 16.7102 9.18529C16.7532 9.02291 16.8848 8.57362 17.1049 7.83744C17.2488 7.34176 17.4272 6.97319 17.6402 6.73173C17.8679 6.48175 17.9922 6.3409 18.013 6.30918C18.1714 6.22703 18.3202 6.20441 18.4593 6.24132C18.6681 6.2967 18.7859 6.50795 18.8127 6.87508C18.8395 7.24222 18.7901 7.63883 18.6647 8.06491C18.1129 10.4264 17.9911 11.8218 18.2993 12.2511C18.331 12.272 18.3817 12.2916 18.4513 12.3101C18.5557 12.3378 18.665 12.3233 18.7794 12.2667C18.9053 12.2132 19.1108 12.0939 19.3957 11.9088C19.7572 11.6694 19.9893 11.5199 20.092 11.4603C20.4442 11.2557 20.8466 11.0024 21.2991 10.7003C21.7548 10.3867 22.0737 10.1671 22.256 10.0416C23.3294 9.27105 24.0137 8.84421 24.3089 8.7611C24.3799 8.68061 24.5158 8.63598 24.7168 8.62721C24.9325 8.60991 25.0766 8.60469 25.1493 8.61155C25.1926 8.63545 25.2182 8.67948 25.226 8.74363C25.2369 8.79618 25.2401 8.87772 25.2356 8.98827C25.2458 9.09029 25.2648 9.18225 25.2928 9.26415ZM21.2464 19.6996C21.1072 19.6626 21.0032 19.6102 20.9343 19.5423C20.8654 19.4744 20.7725 19.3566 20.6555 19.189C20.4882 18.8839 20.3745 18.5869 20.3146 18.2978C20.2578 17.9972 20.2729 17.7529 20.36 17.565C20.4163 17.493 20.4495 17.4149 20.4594 17.3306C20.4809 17.2494 20.4948 17.1972 20.5009 17.1741C20.4668 17.1153 20.4513 17.0802 20.4544 17.0686C20.4606 17.0454 20.4768 17.0311 20.503 17.0256C20.5324 17.0086 20.5559 16.99 20.5737 16.9699C20.6433 16.9883 20.6834 16.9307 20.694 16.797C20.6955 16.698 20.7899 16.5058 20.9773 16.2203C21.1648 15.9348 21.3751 15.6802 21.6082 15.4565C21.7912 15.2816 22.046 15.0698 22.3726 14.8213C22.7109 14.5758 23.0001 14.398 23.2404 14.2879C23.9526 13.9429 24.5545 13.7798 25.0462 13.7985C25.2935 13.802 25.5274 13.833 25.7478 13.8914C26.0842 13.9806 26.3205 14.1426 26.4569 14.3775C26.6844 14.5495 26.83 14.7495 26.8937 14.9775C26.9574 15.2054 26.9635 15.4864 26.9122 15.8204C26.9053 15.8931 26.8804 16.0106 26.8373 16.173C26.6097 17.0313 26.048 17.8383 25.1524 18.5939C24.7841 18.9059 24.4358 19.1426 24.1075 19.3038C23.7792 19.465 23.3929 19.6109 22.9486 19.7413C22.7029 19.8251 22.4579 19.8595 22.2136 19.8443C21.9693 19.8292 21.6469 19.781 21.2464 19.6996ZM23.584 18.0476C23.8567 17.9089 24.0656 17.7532 24.2107 17.5807C24.3704 17.3996 24.6108 17.0784 24.9317 16.6173C25.029 16.5314 25.1192 16.3318 25.2022 16.0187C25.2761 15.7403 25.277 15.5729 25.205 15.5166C25.1593 15.4548 25.0959 15.4132 25.0147 15.3916C24.9103 15.3639 24.7206 15.4005 24.4455 15.5014C23.9473 15.7417 23.5082 16.0163 23.1283 16.3252C22.7631 16.6257 22.4637 17.0056 22.2301 17.4651C22.2062 17.5084 22.1819 17.5764 22.1573 17.6692C22.0527 18.0636 22.1396 18.2977 22.418 18.3715C22.6848 18.4423 23.0734 18.3343 23.584 18.0476ZM30.5347 22.4051C30.4412 22.43 30.3356 22.3833 30.218 22.2652C30.1119 22.1502 30.0166 21.9946 29.9321 21.7983C29.8793 21.6229 29.854 21.461 29.8561 21.3126C29.8613 21.1526 29.9008 20.9334 29.9746 20.655L30.0982 20.2595C30.1258 20.1551 30.1223 20.0983 30.0875 20.0891C30.0527 20.0798 29.9561 20.1163 29.7978 20.1984C29.6541 20.2721 29.4664 20.3713 29.2347 20.496C28.7975 20.7401 28.4325 20.9226 28.1397 21.0436C27.8616 21.1561 27.6486 21.1865 27.5009 21.1349C27.3733 21.1011 27.2228 20.9432 27.0493 20.6613C26.8788 20.3678 26.7807 20.1059 26.7548 19.8756C26.757 19.7272 26.7811 19.566 26.8272 19.392C26.9687 18.8584 27.257 18.2396 27.692 17.5356C28.127 16.8316 28.575 16.2428 29.0358 15.7691C29.4997 15.2838 29.833 15.0804 30.0356 15.159C30.215 15.2314 30.3528 15.3673 30.4489 15.5666C30.5597 15.7574 30.6323 15.9752 30.6666 16.2202C30.683 16.2991 30.685 16.3617 30.6727 16.4081C30.6512 16.4893 30.5832 16.5581 30.4689 16.6147C30.2334 16.8006 29.9115 17.1249 29.5032 17.5877C29.098 18.0389 28.7557 18.4633 28.4765 18.861C28.2003 19.2471 28.1027 19.4509 28.1839 19.4725C28.3463 19.5155 28.5021 19.5134 28.6512 19.466C28.8119 19.4218 29.0302 19.3245 29.3059 19.1741C29.8342 18.8673 30.3817 18.4414 30.9483 17.8965C31.6416 17.2485 32.0284 16.8669 32.1086 16.7517L32.3923 16.4544C32.5698 16.2532 32.6968 16.1255 32.7732 16.0713C32.8527 16.0055 32.9362 15.9717 33.0235 15.9701L33.4237 16.0762C33.4902 16.1063 33.5576 16.18 33.6257 16.2974C33.7178 16.3715 33.7995 16.4614 33.8708 16.5672C33.942 16.673 33.97 16.7549 33.9546 16.8129L33.5055 17.3828L33.252 17.7067C32.7542 18.3196 32.3688 18.8132 32.0957 19.1877C31.8256 19.5506 31.5915 19.9417 31.3934 20.3609C31.3664 20.4158 31.3345 20.5129 31.2976 20.6521C31.2053 21.0001 31.1755 21.2529 31.2082 21.4105C31.2572 21.647 31.3216 21.8255 31.4014 21.9459C31.4757 22.0401 31.4526 22.1271 31.3322 22.2069C31.2147 22.2751 31.0583 22.3267 30.8628 22.3618C30.6788 22.3999 30.5695 22.4143 30.5347 22.4051ZM41.1502 16.2446C41.0882 16.104 41.0849 15.9293 41.1402 15.7205C41.1895 15.5349 41.275 15.3528 41.3969 15.1741C41.5219 14.9837 41.6623 14.8286 41.8183 14.7085C42.033 14.5544 42.2969 14.5189 42.6101 14.602C42.8189 14.6573 42.979 14.7557 43.0905 14.897C43.1791 15.2184 43.1972 15.4777 43.1449 15.6749C43.0988 15.8489 43.0124 15.9874 42.8858 16.0904C42.6301 16.2584 42.3767 16.3713 42.1256 16.4288C41.8745 16.4863 41.6561 16.4905 41.4705 16.4413C41.3197 16.4013 41.213 16.3357 41.1502 16.2446ZM35.4144 27.4796C35.1031 27.6702 34.7561 27.7147 34.3733 27.6132C33.9558 27.5025 33.642 27.2578 33.432 26.8794C33.2854 26.5425 33.1984 26.2153 33.1709 25.8976C33.1435 25.58 33.1605 25.3052 33.222 25.0732C33.2712 24.8876 33.346 24.746 33.4464 24.6485C33.5436 24.5626 33.6561 24.5365 33.7837 24.5704C33.8881 24.598 34.0192 24.6887 34.1771 24.8423C34.3234 24.9928 34.3812 25.1261 34.3504 25.2421C34.295 25.4509 34.2752 25.6194 34.2908 25.7477C34.2948 25.8729 34.3649 25.9598 34.501 26.0083C34.5327 26.0291 34.5776 26.0472 34.6356 26.0626C34.856 26.1211 35.1136 26.0156 35.4085 25.7462C35.6734 25.5433 36.0257 25.1277 36.4655 24.4995C36.9137 23.8859 37.1676 23.5373 37.227 23.4538C37.4059 23.1536 37.5825 22.8156 37.7567 22.4397C37.9424 22.0668 38.0608 21.8313 38.1117 21.7331L38.6609 20.5752C38.7664 20.3176 38.8805 20.0747 39.0031 19.8465C39.1373 19.6214 39.2179 19.4814 39.2448 19.4265C39.3218 19.1365 39.4223 18.9211 39.5466 18.7802C39.5866 18.6294 39.659 18.45 39.7639 18.2419C39.8834 18.0253 39.9508 17.888 39.9662 17.8301C40.0249 17.796 40.1479 17.8472 40.3351 17.9838C40.5255 18.1087 40.6547 18.2299 40.7229 18.3473C40.8221 18.535 40.8822 18.7062 40.9033 18.8607C40.9391 19.0068 40.9139 19.2422 40.8277 19.567C40.7754 19.7641 40.6873 20.0263 40.5633 20.3534C40.5264 20.4926 40.3745 20.831 40.1078 21.3686C39.8411 21.9062 39.6001 22.3699 39.385 22.7598C39.2686 22.9648 39.1895 23.099 39.1479 23.1625C39.0137 23.3876 38.9165 23.5667 38.8564 23.6997C38.8202 23.7894 38.6817 24.0072 38.441 24.353C38.2126 24.6525 38.0684 24.8687 38.0083 25.0018C37.9089 25.2361 37.6697 25.5762 37.2907 26.0219C37.1542 26.2092 36.8535 26.477 36.3886 26.8255C35.9353 27.1771 35.6106 27.3951 35.4144 27.4796ZM42.0711 24.7013C41.8519 24.3576 41.6988 24.0687 41.6119 23.8346C41.5397 23.592 41.5342 23.2615 41.5955 22.8433C41.6315 22.5673 41.7855 22.1736 42.0577 21.6623C42.3446 21.1425 42.6674 20.6508 43.0262 20.1873C43.3881 19.7122 43.7011 19.3979 43.9653 19.2445C44.3066 18.9874 44.6396 18.9019 44.9644 18.9881C45.092 19.0219 45.196 19.0743 45.2765 19.1453C45.3757 19.333 45.3899 19.5603 45.3192 19.8271C45.2484 20.0938 45.1158 20.3132 44.9212 20.485C44.6208 20.7282 44.3221 21.0586 44.0251 21.4764C43.7281 21.8943 43.4983 22.2927 43.3357 22.6716C43.2076 22.8736 43.1251 23.0441 43.0882 23.1833C43.0544 23.3109 43.0588 23.4114 43.1014 23.4847C43.1556 23.5612 43.2523 23.6179 43.3915 23.6548C43.6931 23.7348 44.0616 23.6091 44.4971 23.2776C44.9326 22.9462 45.373 22.4795 45.8182 21.8775C45.9162 21.7421 46.0207 21.5588 46.1317 21.3275C46.2867 21.0707 46.3746 20.9264 46.3955 20.8947C46.5297 20.6695 46.7037 20.5047 46.9177 20.4C47.1433 20.2984 47.3431 20.2707 47.5171 20.3169C47.6214 20.3446 47.6907 20.3878 47.7248 20.4465C48.0328 20.6895 48.1201 20.992 47.9869 21.354C47.9192 21.6092 47.8244 21.8261 47.7025 22.0048C47.5837 22.172 47.4089 22.3863 47.1782 22.6479C46.9921 22.8344 46.8308 23.0213 46.6943 23.2086C46.4126 23.5684 45.9968 23.9423 45.447 24.3303C44.9002 24.7067 44.4591 24.9187 44.1237 24.9663C43.6501 25.1139 43.1987 25.1307 42.7695 25.0169C42.5143 24.9492 42.2815 24.844 42.0711 24.7013ZM48.7389 27.2332C48.3794 27.1379 48.0645 26.9675 47.7944 26.722C47.5243 26.4766 47.3288 26.2075 47.2078 25.9147C47.0899 25.6103 47.0632 25.3363 47.1278 25.0927C47.1801 24.8955 47.2875 24.8185 47.4499 24.8615C47.5481 24.9124 47.653 25.0085 47.7645 25.1498C47.9108 25.3003 48.0342 25.42 48.1348 25.5088C48.247 25.6006 48.3669 25.6634 48.4945 25.6973C48.6917 25.7496 48.8676 25.7652 49.0222 25.7441C49.1914 25.7145 49.3045 25.639 49.3616 25.5175C49.3739 25.4711 49.3768 25.3664 49.3704 25.2033C49.3671 25.0286 49.3476 24.8682 49.3118 24.7222C49.1581 24.2717 49.0826 23.8544 49.0852 23.4703C49.1024 23.0776 49.1641 22.6345 49.2701 22.1412C49.3408 21.8745 49.6168 21.6062 50.098 21.3366C50.5908 21.07 51.1308 20.8594 51.7181 20.7048C52.317 20.5533 52.7834 20.5032 53.1174 20.5545C53.7553 20.7237 54.1243 20.8774 54.2242 21.0156C54.3527 21.1863 54.4481 21.4351 54.5104 21.762C54.5727 22.0889 54.5777 22.3509 54.5254 22.5481C54.5039 22.6293 54.4356 22.7229 54.3205 22.829C54.2202 22.9265 54.1538 22.9896 54.1214 23.0182L53.9002 23.2203L53.7092 23.4489C53.6706 23.5008 53.6069 23.577 53.5182 23.6776C53.441 23.7813 53.3761 23.8386 53.3236 23.8495C53.2827 23.8635 53.2231 23.8539 53.145 23.8207C52.9478 23.7684 52.7911 23.6338 52.6749 23.4167C52.5586 23.1997 52.5282 22.9867 52.5836 22.778C52.6236 22.6272 52.7157 22.4902 52.8601 22.3671C53.0045 22.244 53.0798 22.1709 53.0859 22.1477C53.0982 22.1013 53.0522 22.0642 52.9478 22.0366C52.797 21.9966 52.545 22.0104 52.1919 22.0782C51.8387 22.1459 51.5065 22.275 51.1952 22.4656C50.8871 22.6446 50.693 22.8849 50.613 23.1864C50.5699 23.3488 50.5482 23.5479 50.5477 23.7837C50.5619 24.0109 50.5912 24.2049 50.6355 24.3656C50.7036 24.483 50.7632 24.7968 50.8141 25.3069C50.8797 25.8084 50.8772 26.1926 50.8064 26.4594C50.6987 26.8654 50.4606 27.1312 50.0921 27.2569C49.7351 27.3857 49.2841 27.3778 48.7389 27.2332ZM54.555 29.7814C54.1057 29.6498 53.8102 29.4535 53.6684 29.1924C53.5351 28.946 53.5177 28.6372 53.6161 28.2661C53.6407 28.1733 53.6923 28.0256 53.7709 27.8229C53.8604 27.6729 53.9382 27.5197 54.0045 27.3635C54.1302 27.1237 54.2281 26.9883 54.2984 26.9572C54.3131 26.9487 54.3309 26.9286 54.3517 26.8969C54.3725 26.8652 54.3686 26.8331 54.34 26.8007C54.38 26.6499 54.4875 26.4549 54.6627 26.2158C54.7074 26.1408 54.7579 26.0673 54.8143 25.9953C54.8706 25.9234 54.9076 25.8773 54.9254 25.8572C54.9084 25.8279 54.906 25.79 54.9183 25.7436C54.9337 25.6856 54.9781 25.6353 55.0514 25.5927C55.1364 25.5531 55.1966 25.5133 55.2321 25.473C55.2792 25.4358 55.2916 25.3894 55.2691 25.3338C55.2612 25.2697 55.4407 25.0379 55.8073 24.6386C56.0381 24.377 56.1639 24.2303 56.1847 24.1986C56.1823 24.1607 56.3204 23.9677 56.599 23.6195C56.8892 23.2743 57.1126 23.017 57.2693 22.8475C57.3891 22.8172 57.3592 22.7658 57.1798 22.6934C57.0004 22.621 56.7757 22.5552 56.5059 22.4961C56.1262 22.3829 55.835 22.2871 55.6324 22.2085C55.4328 22.1184 55.2785 22.0216 55.1694 21.9181C55.1097 21.8154 55.0968 21.7002 55.1306 21.5726C55.1706 21.4219 55.2597 21.2965 55.398 21.1966C55.5478 21.0998 55.7054 21.0671 55.8709 21.0986C56.1756 21.167 56.6503 21.2494 57.2951 21.3459L58.2009 21.5117L58.3315 21.2298C58.4172 21.1407 58.4925 21.0676 58.5573 21.0103C58.6368 20.9445 58.6901 20.8841 58.7171 20.8292C58.7557 20.7774 58.7961 20.695 58.8385 20.5821C58.8856 20.5449 58.9744 20.4443 59.1048 20.2803C59.2468 20.1193 59.3525 19.9549 59.4218 19.787C59.6078 19.6005 59.7792 19.4225 59.9359 19.253C60.1072 19.075 60.2091 18.9716 60.2416 18.943C60.5334 18.6852 60.8069 18.5901 61.0621 18.6578C61.2013 18.6947 61.334 18.7796 61.4601 18.9124C61.5832 19.0567 61.6746 19.1803 61.7343 19.283C61.7939 19.3858 61.8053 19.5067 61.7684 19.6459C61.7407 19.7503 61.6485 19.8872 61.4918 20.0567C61.4208 20.1372 61.302 20.3043 61.1354 20.5581C61.0265 20.641 60.9011 20.7629 60.7591 20.9239C60.6201 21.0732 60.5117 21.2245 60.4339 21.3776C60.3953 21.4295 60.3389 21.5015 60.2649 21.5935C60.1939 21.674 60.1437 21.7228 60.1143 21.7398C60.0997 21.7484 60.0749 21.748 60.0401 21.7388C60.0333 21.8114 60.0442 21.864 60.0728 21.8964C60.1014 21.9289 60.1564 21.9558 60.2376 21.9774C60.2955 21.9927 60.3667 22.0054 60.4509 22.0153C60.5468 22.0284 60.6585 22.0518 60.7861 22.0856C60.9052 22.1048 61.0084 22.1135 61.0958 22.1119C61.1947 22.1133 61.2848 22.1248 61.366 22.1463C61.4124 22.1586 61.4773 22.1944 61.5609 22.2539C61.6004 22.3388 61.5941 22.4799 61.5418 22.6771C61.5018 22.8279 61.4401 22.9667 61.3568 23.0936C61.2766 23.2089 61.197 23.2747 61.1182 23.291C61.0571 23.2872 60.9203 23.2882 60.7078 23.2939C60.4952 23.2996 60.2714 23.2775 60.0363 23.2276L59.0911 23.07L58.6385 23.5831C58.5204 23.7007 58.4154 23.8157 58.3236 23.9279C58.2317 24.0401 58.1711 24.1047 58.1418 24.1218C58.1264 24.1798 58.0492 24.2834 57.9103 24.4328C57.7714 24.5822 57.6649 24.7029 57.5908 24.795C57.4897 24.942 57.3771 25.0859 57.2528 25.2268C57.1316 25.356 57.0533 25.4408 57.0178 25.481C56.983 25.4718 56.9567 25.4772 56.9389 25.4974C56.9359 25.509 56.9297 25.5322 56.9205 25.567L56.9184 25.7154C56.903 25.7734 56.8586 25.8237 56.7852 25.8663C56.7327 25.8772 56.6755 25.9055 56.6137 25.9512C56.5636 25.9999 56.5296 26.0344 56.5118 26.0545C56.5289 26.0839 56.5328 26.1159 56.5236 26.1507C56.502 26.2319 56.4337 26.3255 56.3187 26.4316C56.2664 26.6288 56.1068 26.903 55.8398 27.2543C55.796 27.4662 55.7722 27.6026 55.7685 27.6637C55.7647 27.7248 55.7875 27.7557 55.837 27.7564L55.924 27.7794L56.3114 27.8636C56.4018 27.8503 56.3961 27.9419 56.2944 28.1384C56.2042 28.3379 56.021 28.6308 55.7448 29.0169C55.5 29.2375 55.2529 29.4202 55.0035 29.5651C54.7625 29.7247 54.613 29.7968 54.555 29.7814ZM69.2484 32.1141C68.5238 31.8971 68.2677 31.3884 68.4799 30.5881C68.5384 30.3677 68.6127 30.1578 68.7029 29.9582C68.7937 29.7092 68.853 29.5325 68.8807 29.4281L68.9038 29.3411L68.9545 29.1497C68.9813 28.9085 68.9366 28.7725 68.8206 28.7418C68.6119 28.6864 68.1695 28.7863 67.4934 29.0415C66.8321 29.2882 66.1202 29.6084 65.3578 30.0022C65.1199 30.1501 64.9141 30.2942 64.7404 30.4343C64.5844 30.5543 64.4728 30.6241 64.4056 30.6435C64.3383 30.6629 64.2409 30.6557 64.1134 30.6218C63.9571 30.5556 63.8038 30.3846 63.6535 30.1088C63.5032 29.8331 63.4163 29.599 63.3928 29.4065C63.479 29.0817 63.6185 28.7898 63.8114 28.5305C64.0074 28.2597 64.2813 27.9289 64.6333 27.5381C64.83 27.2178 65.0556 26.9052 65.3103 26.6003C65.592 26.2405 65.7953 25.9654 65.9202 25.7751C66.0599 25.5762 66.1721 25.3639 66.2568 25.1381C66.2599 25.1265 66.2556 25.1191 66.244 25.1161C66.2563 25.0697 66.2845 25.0337 66.3285 25.0081C66.3725 24.9825 66.4177 24.9759 66.4641 24.9882C66.4966 24.9596 66.5708 24.9606 66.6868 24.9914C66.9883 25.0714 67.2278 25.2218 67.4051 25.4426C67.5824 25.6635 67.6265 25.9421 67.5372 26.2784C67.4911 26.4524 67.4117 26.6114 67.299 26.7553C67.201 26.8907 67.0174 27.1151 66.748 27.4285L66.4551 27.7606C66.4019 27.8209 66.322 27.9115 66.2155 28.0322C66.112 28.1413 66.0557 28.2133 66.0465 28.2481C66.3888 28.1278 66.8001 27.9576 67.2806 27.7374C67.9836 27.4273 68.5546 27.1938 68.9934 27.0371C69.4323 26.8803 69.7387 26.8251 69.9127 26.8712C70.0634 26.9112 70.2492 27.0536 70.4698 27.2983C70.7051 27.5345 70.8275 27.7284 70.837 27.8799C70.8154 27.9611 70.7715 28.0798 70.7053 28.236C70.6506 28.3953 70.6006 28.5372 70.5551 28.6617L70.4295 29.2057C70.4165 29.3016 70.3853 29.4423 70.3361 29.6279C70.2377 29.999 70.1453 30.2539 70.0589 30.3924C70.0674 30.407 70.0744 30.4275 70.0798 30.4538C70.0853 30.48 70.0865 30.499 70.0834 30.5106L70.0568 30.5408C70.0376 30.6598 70.0522 30.8623 70.1005 31.1483C70.1488 31.4342 70.1699 31.5888 70.1637 31.612C70.1299 31.7396 70.0044 31.8615 69.7874 31.9777C69.585 32.0854 69.4053 32.1309 69.2484 32.1141ZM73.313 33.6391C72.6519 33.4637 72.1675 33.1366 71.86 32.6578C71.5525 32.179 71.4895 31.5974 71.671 30.913C71.7417 30.6463 71.8376 30.3551 71.9585 30.0395C72.0555 29.7673 72.2673 29.4138 72.5936 28.9789C72.9316 28.5471 73.3361 28.1454 73.8072 27.7737C74.2898 27.4051 74.7981 27.1737 75.3321 27.0795C75.5802 27.0335 75.7842 27.0132 75.9442 27.0184C76.1073 27.0119 76.2874 27.0349 76.4846 27.0872C76.9602 27.2133 77.3199 27.4018 77.5637 27.6527C77.8191 27.9067 77.9756 28.1592 78.0332 28.4104C78.1023 28.6646 78.1153 28.8729 78.0723 29.0353L78.0492 29.1223L78.0354 29.1745C77.9984 29.3137 77.8496 29.5473 77.5887 29.8754C77.3279 30.2035 76.9747 30.4823 76.5289 30.7117C76.0948 30.9442 75.5948 31.004 75.0288 30.8911C74.7504 30.8173 74.484 30.7218 74.2295 30.6046C73.9898 30.479 73.8351 30.4069 73.7655 30.3884C73.5915 30.3423 73.4644 30.3769 73.3841 30.4921C73.3039 30.6074 73.2238 30.8159 73.1438 31.1174C73.0925 31.4514 73.1195 31.7007 73.2248 31.8652C73.3418 32.0328 73.5394 32.1535 73.8178 32.2273C73.957 32.2642 74.1301 32.2667 74.3373 32.2347C74.5475 32.1911 74.8063 32.1046 75.1138 31.9751C75.2837 31.896 75.4154 31.8441 75.5089 31.8192C75.6024 31.7943 75.7072 31.7973 75.8232 31.8281C75.9276 31.8557 76.0309 31.9576 76.1332 32.1337C76.2354 32.3098 76.2755 32.4632 76.2532 32.5939C76.1931 32.7269 76.0101 32.9019 75.7043 33.1187C75.3985 33.3356 75.0308 33.505 74.6012 33.6269C74.1716 33.7488 73.7422 33.7529 73.313 33.6391ZM75.034 29.6075C75.2544 29.666 75.4114 29.6828 75.5049 29.6579C75.6362 29.6307 75.8487 29.5319 76.1422 29.3614C76.4504 29.1824 76.6226 29.0481 76.6588 28.9584C76.6895 28.8424 76.6619 28.7357 76.576 28.6385C76.5047 28.5327 76.3852 28.4451 76.2174 28.3757L76.026 28.325C75.8752 28.285 75.621 28.3541 75.2633 28.5324C74.9204 28.7021 74.6014 28.9217 74.3065 29.1911C74.3027 29.2522 74.3759 29.3275 74.5259 29.4169C74.6791 29.4948 74.8485 29.5583 75.034 29.6075ZM78.658 35.3919C77.3357 35.0412 76.8745 34.1119 77.2745 32.604C77.419 32.0589 77.7155 31.4795 78.1638 30.8659C78.6267 30.2438 79.1335 29.714 79.684 29.2765C80.2492 28.8305 80.7594 28.5686 81.2146 28.4907C81.4658 28.4331 81.7363 28.4428 82.0263 28.5197C82.5483 28.6581 82.9699 28.8941 83.2911 29.2276C83.627 29.5526 83.7119 30.0282 83.5458 30.6546C83.4504 31.0142 83.224 31.3762 82.8666 31.7408C82.5092 32.1053 82.105 32.3892 81.6538 32.5923C81.2173 32.7869 80.8251 32.8381 80.4771 32.7458C79.9552 32.6074 79.559 32.3223 79.2887 31.8905C78.9869 32.2326 78.7883 32.5834 78.693 32.943C78.6161 33.233 78.5909 33.4684 78.6174 33.6492C78.647 33.8185 78.7894 33.9369 79.0446 34.0046C79.2881 34.0692 79.4946 34.0867 79.6638 34.0571C79.833 34.0275 79.9938 33.9832 80.146 33.9243C80.2982 33.8653 80.4152 33.8219 80.4971 33.7939L80.5759 33.7776L80.5585 33.773C80.7981 33.7124 80.9719 33.6654 81.0801 33.632C81.203 33.5901 81.3023 33.5668 81.378 33.562C81.552 33.6082 81.7005 33.7034 81.8236 33.8478C81.9467 33.9922 81.9883 34.1398 81.9483 34.2906C81.9175 34.4066 81.7624 34.5703 81.4828 34.7817C81.2064 34.9815 80.9441 35.1043 80.6961 35.1503L80.4596 35.1993L80.477 35.2039C80.3357 35.3154 80.2128 35.3573 80.1084 35.3296L79.9692 35.2927C79.8982 35.3732 79.717 35.4245 79.4257 35.4465C79.1459 35.4716 78.89 35.4534 78.658 35.3919ZM80.6748 31.4388C80.9996 31.5249 81.3033 31.4565 81.5859 31.2335C81.8801 31.0136 82.0641 30.7644 82.138 30.486C82.1718 30.3585 82.1678 30.2332 82.1258 30.1104C82.0955 29.9906 82.0282 29.9169 81.9238 29.8892C81.7266 29.8369 81.4816 29.8712 81.1888 29.9922C80.896 30.1132 80.6168 30.2999 80.3513 30.5522L80.0282 30.8576C80.0807 30.8467 80.1186 30.8443 80.1418 30.8505C80.2346 30.8751 80.2934 30.9342 80.3183 31.0277C80.3432 31.1212 80.3769 31.2046 80.4195 31.278C80.4621 31.3514 80.5472 31.405 80.6748 31.4388ZM83.2633 36.3526C83.0058 36.247 82.8215 36.0057 82.7104 35.6287C82.611 35.2547 82.6136 34.8705 82.7182 34.4761L82.7909 34.272C82.945 33.8783 83.132 33.5244 83.3519 33.2103C83.5717 32.8962 83.8689 32.5715 84.2433 32.2363C84.5181 31.9491 84.9572 31.6745 85.5606 31.4124C86.167 31.1387 86.6785 30.9889 87.0951 30.9628C87.4012 30.9322 87.6702 30.9477 87.9022 31.0092C88.111 31.0646 88.3105 31.1548 88.5008 31.2797C88.6417 31.404 88.7585 31.4784 88.8513 31.5031C88.9673 31.5338 89.0581 31.4958 89.1236 31.3891C89.1738 31.3403 89.2494 31.2424 89.3505 31.0954C89.4662 30.9399 89.5669 30.8176 89.6526 30.7286L90.3353 29.6992L91.0738 28.7405L91.8921 27.6912C92.3506 27.1796 92.7132 26.9592 92.98 27.03C93.0844 27.0577 93.1637 27.1097 93.2179 27.1862C93.3495 27.3453 93.4405 27.4935 93.491 27.6311C93.553 27.7717 93.5594 27.9348 93.5102 28.1203C93.4702 28.2711 93.3626 28.4661 93.1875 28.7052C92.9011 28.9892 92.6039 29.3139 92.296 29.6792L91.8781 30.2015C91.3681 30.8608 91.064 31.2581 90.966 31.3935L90.7023 31.8264C90.5117 32.1235 90.3625 32.3818 90.2546 32.6015C90.0295 33.0757 89.8822 33.3035 89.8126 33.285C89.5454 33.45 89.1667 34.0821 88.6765 35.1812C88.5563 35.4472 88.3916 35.9746 88.1824 36.7634C88.1086 37.0417 88.0462 37.2301 87.9953 37.3283C87.9445 37.4265 87.8827 37.4722 87.81 37.4654C87.6183 37.4393 87.4876 37.4171 87.418 37.3986C87.1512 37.3279 86.9683 37.1987 86.8691 37.011C86.7552 36.8318 86.6874 36.6896 86.6656 36.5845C86.6469 36.4678 86.6618 36.3414 86.7103 36.2053C86.7588 36.0692 86.7973 35.9242 86.8256 35.7704C86.8687 35.608 86.9068 35.4877 86.9399 35.4096C86.9175 35.354 86.7815 35.3986 86.532 35.5435C86.3999 35.6202 86.2358 35.7008 86.0395 35.7853C85.5136 36.13 85.0621 36.3579 84.685 36.4689C84.3226 36.5715 83.9674 36.5766 83.6195 36.4843C83.5383 36.4628 83.4196 36.4189 83.2633 36.3526ZM84.2251 35.0434C84.4107 35.0926 84.6074 35.0765 84.8152 34.9951C85.0346 34.9167 85.2587 34.8209 85.4873 34.7078C85.7191 34.583 85.8863 34.4908 85.989 34.4311C86.3968 34.2041 86.8525 33.8904 87.3559 33.4901C87.871 33.0929 88.1408 32.8479 88.1654 32.7551C88.1869 32.6739 88.1142 32.5739 87.947 32.4551C87.7915 32.3393 87.6511 32.2835 87.5259 32.2875C87.2553 32.2778 86.9999 32.328 86.7597 32.4381C86.5341 32.5397 86.2213 32.736 85.8213 33.0272C85.3773 33.344 84.997 33.6776 84.6806 34.0282C84.3788 34.3703 84.2018 34.6399 84.1495 34.8371C84.1187 34.9531 84.1439 35.0219 84.2251 35.0434ZM95.672 39.7368C95.5298 39.7114 95.4168 39.6691 95.3333 39.6097C95.2582 39.5649 95.1534 39.4688 95.0187 39.3214C94.8158 39.0565 94.6658 38.756 94.5687 38.4199C94.4833 38.0869 94.4725 37.8233 94.5364 37.6292C94.5572 37.5975 94.5768 37.5468 94.5953 37.4772C94.6137 37.4076 94.6218 37.3539 94.6194 37.316C94.6201 37.2665 94.622 37.236 94.6251 37.2244C94.5879 37.1773 94.5651 37.1464 94.5566 37.1317C94.5627 37.1085 94.5747 37.0869 94.5924 37.0668C94.6218 37.0497 94.6453 37.0311 94.6631 37.011C94.7125 37.0117 94.7419 36.9947 94.7511 36.9599C94.7604 36.9251 94.7595 36.8814 94.7486 36.8289C94.7384 36.7268 94.8112 36.5227 94.9669 36.2164C95.1373 35.9015 95.3248 35.616 95.5293 35.3599C95.6805 35.1641 95.9009 34.9184 96.1904 34.6227C96.4914 34.3301 96.7536 34.1141 96.9768 33.9747C97.356 33.7152 97.6599 33.5289 97.8885 33.4157C98.1288 33.3056 98.383 33.2365 98.6512 33.2083C98.8699 33.1794 99.0837 33.1927 99.2924 33.248C99.5708 33.3219 99.7929 33.4677 99.9586 33.6854C100.57 34.0464 100.875 34.5121 100.873 35.0825C100.878 35.3446 100.84 35.6264 100.76 35.9279C100.588 36.5775 100.196 37.237 99.584 37.9064C99.2467 38.2888 98.9294 38.5957 98.6321 38.8272C98.3495 39.0502 98.0236 39.2493 97.6543 39.4245C97.3994 39.5431 97.0779 39.6317 96.69 39.6902C96.3167 39.7401 95.9774 39.7557 95.672 39.7368ZM97.8825 37.511C98.0917 37.3307 98.2689 37.1542 98.414 36.9816C98.559 36.809 98.711 36.5638 98.8698 36.2459C98.9716 36.0494 99.0501 35.8468 99.1055 35.638C99.204 35.2668 99.2056 35.05 99.1104 34.9875C99.0385 34.9312 98.9619 34.8922 98.8807 34.8707C98.6371 34.8061 98.3404 34.895 97.9906 35.1374C97.6469 35.3567 97.3743 35.5885 97.1729 35.8331C96.9715 36.0776 96.7081 36.4857 96.3826 37.0574C96.287 37.2307 96.2146 37.4101 96.1654 37.5957C96.1162 37.7813 96.1052 37.9397 96.1324 38.0711C96.1627 38.1909 96.2359 38.2662 96.3519 38.2969C96.6766 38.3831 97.1868 38.1211 97.8825 37.511ZM105.879 41.7175C105.705 41.6714 105.543 41.5789 105.394 41.4399C105.244 41.301 105.142 41.1249 105.087 40.9116L105.046 40.7145C105.012 40.2833 105.043 39.882 105.142 39.5109L105.345 38.7453C105.379 38.6178 105.384 38.5509 105.361 38.5447C105.268 38.5201 104.768 38.791 103.86 39.3572C103.223 39.7469 102.681 40.0375 102.233 40.229C101.799 40.4121 101.513 40.4851 101.374 40.4482C101.327 40.4359 101.228 40.3661 101.075 40.2387C100.926 40.0998 100.834 40.001 100.8 39.9423C100.741 39.8395 100.714 39.7271 100.722 39.605C100.73 39.4828 100.776 39.2594 100.863 38.9346C100.961 38.5634 101.147 38.1659 101.421 37.7419C101.698 37.3063 102.121 36.7419 102.69 36.0485C102.825 35.9107 102.97 35.7381 103.125 35.5308C103.552 34.9984 103.912 34.647 104.205 34.4765C104.298 34.5011 104.36 34.5238 104.392 34.5447C104.54 34.5963 104.695 34.712 104.859 34.8919C105.033 35.0748 105.116 35.2769 105.107 35.498C105.055 35.6951 104.974 35.8846 104.864 36.0664C104.753 36.2482 104.555 36.4564 104.27 36.691C104.096 36.8312 103.828 37.1635 103.465 37.6881C103.383 37.7655 103.263 37.889 103.106 38.0585C102.964 38.2194 102.89 38.3115 102.884 38.3347C102.892 38.3494 102.933 38.3354 103.007 38.2928C103.083 38.2386 103.158 38.1902 103.232 38.1476L103.826 37.8024C104.985 37.1291 105.817 36.847 106.322 36.9561C106.577 37.0238 106.768 37.2172 106.895 37.5362C107.021 37.8553 107.035 38.2004 106.937 38.5716C106.918 38.6412 106.854 38.8353 106.745 39.1539L106.482 40.1456C106.767 40.1468 106.987 40.1368 107.142 40.1157C107.459 40.0883 107.778 40.1045 108.097 40.1643C108.022 40.3553 107.842 40.5871 107.559 40.8596C107.287 41.1351 106.991 41.3608 106.672 41.5367C106.352 41.7126 106.088 41.7729 105.879 41.7175ZM110.438 43.4853C109.777 43.31 109.292 42.9829 108.985 42.504C108.677 42.0252 108.614 41.4436 108.796 40.7593C108.866 40.4925 108.962 40.2013 109.083 39.8858C109.18 39.6136 109.392 39.26 109.718 38.8252C110.056 38.3934 110.461 37.9917 110.932 37.62C111.414 37.2514 111.923 37.02 112.457 36.9257C112.705 36.8798 112.909 36.8594 113.069 36.8646C113.232 36.8582 113.412 36.8811 113.609 36.9334C114.085 37.0596 114.445 37.2481 114.688 37.499C114.944 37.7529 115.1 38.0055 115.158 38.2566C115.227 38.5109 115.24 38.7192 115.197 38.8815L115.174 38.9685L115.16 39.0207C115.123 39.1599 114.974 39.3936 114.713 39.7217C114.453 40.0498 114.099 40.3285 113.654 40.5579C113.22 40.7904 112.719 40.8502 112.153 40.7373C111.875 40.6635 111.609 40.568 111.354 40.4509C111.114 40.3252 110.96 40.2531 110.89 40.2347C110.716 40.1885 110.589 40.2231 110.509 40.3384C110.429 40.4537 110.348 40.6621 110.268 40.9637C110.217 41.2977 110.244 41.5469 110.349 41.7114C110.466 41.879 110.664 41.9997 110.942 42.0735C111.082 42.1105 111.255 42.1129 111.462 42.081C111.672 42.0374 111.931 41.9509 112.238 41.8213C112.408 41.7423 112.54 41.6903 112.634 41.6654C112.727 41.6406 112.832 41.6435 112.948 41.6743C113.052 41.702 113.156 41.8039 113.258 41.98C113.36 42.1561 113.4 42.3095 113.378 42.4401C113.318 42.5732 113.135 42.7481 112.829 42.965C112.523 43.1818 112.155 43.3512 111.726 43.4731C111.296 43.5951 110.867 43.5991 110.438 43.4853ZM112.159 39.4538C112.379 39.5122 112.536 39.529 112.63 39.5042C112.761 39.4769 112.973 39.3781 113.267 39.2076C113.575 39.0287 113.747 38.8943 113.783 38.8046C113.814 38.6886 113.787 38.582 113.701 38.4847C113.629 38.3789 113.51 38.2913 113.342 38.222L113.151 38.1712C113 38.1312 112.746 38.2004 112.388 38.3786C112.045 38.5484 111.726 38.768 111.431 39.0374C111.427 39.0984 111.501 39.1737 111.651 39.2632C111.804 39.341 111.973 39.4046 112.159 39.4538ZM34.48 47.1535C34.3036 47.0695 34.1333 46.8692 33.969 46.5525C33.8078 46.2242 33.7228 45.9595 33.714 45.7586C33.7202 45.7354 33.7147 45.7091 33.6977 45.6797C33.6837 45.6388 33.6724 45.611 33.6639 45.5963C33.6268 45.5492 33.6543 45.3517 33.7466 45.0037C33.8204 44.7253 33.9089 44.4384 34.0121 44.143C34.1269 43.8507 34.2321 43.6178 34.3277 43.4446L34.8855 42.6055L35.3136 41.9742L36.051 41.0897L35.4058 40.7137C35.3277 40.6806 35.2689 40.6215 35.2294 40.5365C35.2014 40.4546 35.1951 40.3847 35.2105 40.3267C35.2351 40.2339 35.3169 40.1128 35.4558 39.9634C35.6064 39.8171 35.7106 39.7517 35.7686 39.7671C35.8004 39.7879 35.8916 39.8183 36.0424 39.8583C36.3904 39.9506 36.656 40.0024 36.8392 40.0137C36.9675 39.9981 37.0733 39.9269 37.1566 39.8C37.2484 39.6878 37.3341 39.5988 37.4136 39.5329C37.4962 39.4555 37.5804 39.3723 37.6661 39.2833C37.7193 39.2229 37.7992 39.1324 37.9057 39.0117C38.0269 38.8824 38.1701 38.7404 38.3353 38.5856C38.3677 38.5569 38.4414 38.4896 38.5565 38.3835C38.6746 38.2659 38.8039 38.176 38.9445 38.114C39.0295 38.0745 39.1346 38.0527 39.2598 38.0486C39.3881 38.033 39.5103 38.0406 39.6263 38.0713C39.835 38.1267 39.9878 38.2293 40.0847 38.3791C40.146 38.5692 40.1659 38.7048 40.1444 38.786C40.1197 38.8788 40.041 38.9883 39.9083 39.1145C39.8018 39.2352 39.6365 39.39 39.4126 39.5789C39.2181 39.7508 39.0691 39.8913 38.9656 40.0004C38.8097 40.1205 38.7209 40.2211 38.6994 40.3023C38.6778 40.3835 38.7425 40.4441 38.8932 40.484C39.0556 40.5271 39.3374 40.5646 39.7387 40.5965C39.7997 40.6003 39.8825 40.616 39.9869 40.6437C40.2652 40.7176 40.4409 40.8511 40.5138 41.0442C40.5867 41.2374 40.5909 41.4557 40.5263 41.6993C40.4832 41.8617 40.3991 41.9449 40.2739 41.9489C40.1602 41.956 39.912 41.9088 39.5293 41.8073C39.1427 41.7669 38.7523 41.6943 38.3579 41.5898C38.2883 41.5713 38.2056 41.5556 38.1097 41.5425C38.0285 41.521 37.9384 41.5095 37.8395 41.5081C37.7406 41.5067 37.6617 41.5231 37.603 41.5571C37.5559 41.5943 37.4953 41.6589 37.4213 41.751C37.3772 41.7766 37.2607 41.8884 37.0715 42.0866C36.8199 42.3799 36.6617 42.5552 36.5969 42.6125C36.0615 43.414 35.588 44.263 35.1765 45.1595C35.1464 45.226 35.1175 45.3114 35.0898 45.4158C35.0499 45.5666 35.067 45.6891 35.1414 45.7833C35.2304 45.869 35.4199 45.9503 35.7098 46.0272C36.0346 46.1133 36.3527 46.1543 36.6643 46.15C37.0522 46.0915 37.347 46.0331 37.5487 45.9748C37.6685 45.9445 37.7751 45.917 37.8686 45.8921C37.9768 45.8587 38.0513 45.835 38.0923 45.8211C38.1633 45.7406 38.2356 45.7722 38.3092 45.9158C38.3945 46.0626 38.4461 46.2191 38.4641 46.3852C38.4087 46.594 38.3174 46.7746 38.19 46.9271C38.0658 47.0679 37.8166 47.1881 37.4426 47.2875C37.01 47.4211 36.5826 47.4877 36.1605 47.4875C35.7385 47.4873 35.3535 47.4411 35.0055 47.3488C34.8083 47.2965 34.6331 47.2314 34.48 47.1535ZM40.6222 48.5033C40.5001 48.4957 40.3926 48.4796 40.2998 48.455C40.149 48.415 40.0129 48.3665 39.8915 48.3095C39.7731 48.2408 39.7201 48.1833 39.7324 48.1369C39.7416 48.1021 39.742 48.0774 39.7335 48.0627C39.7249 48.048 39.7033 48.0361 39.6685 48.0268C39.6429 47.9828 39.5771 47.9033 39.471 47.7883C39.3797 47.6647 39.298 47.5748 39.226 47.5184C39.1391 47.2843 39.1265 47.0513 39.188 46.8193C39.2464 46.5989 39.4099 46.2636 39.6782 45.8134C39.8098 45.3641 40.106 44.9026 40.5669 44.4289C41.0424 43.9467 41.5694 43.5278 42.1479 43.1722C42.7294 42.805 43.2277 42.5647 43.6426 42.4513C43.8627 42.3235 44.1294 42.3011 44.4426 42.3842C44.6861 42.4488 44.8869 42.5579 45.0448 42.7115C45.171 42.8443 45.3042 43.0907 45.4446 43.4507C45.5966 43.8138 45.6983 44.1325 45.7497 44.4068C45.7514 44.4942 45.7512 44.6121 45.749 44.7605C45.7585 44.912 45.7371 45.0863 45.6848 45.2835L45.5208 45.7614C45.2555 46.2001 45.0721 46.6108 44.9706 46.9935C44.9043 47.1498 44.8805 47.2862 44.8992 47.4029C44.921 47.508 44.9725 47.5714 45.0537 47.5929C45.1117 47.6083 45.1801 47.6078 45.2589 47.5914C45.3377 47.5751 45.4236 47.5792 45.5163 47.6039C45.6671 47.6438 45.7824 47.7241 45.8622 47.8446C45.942 47.965 45.9634 48.0949 45.9265 48.2341C45.8957 48.35 45.8375 48.4525 45.7518 48.5416C45.5859 48.7459 45.3334 48.9023 44.9942 49.011C44.6666 49.1228 44.381 49.1463 44.1374 49.0817C43.9402 49.0294 43.7765 48.8743 43.6463 48.6163C43.5277 48.3614 43.4608 48.0519 43.4456 47.6878L43.4474 47.26L42.6687 47.668L42.1624 47.962C41.9276 48.0984 41.794 48.1809 41.7616 48.2095C41.679 48.2869 41.5515 48.3463 41.3792 48.3875C41.2185 48.4317 40.9662 48.4703 40.6222 48.5033ZM41.535 46.9576C41.7745 46.897 41.9869 46.7981 42.1723 46.6611C42.3692 46.5271 42.6194 46.3327 42.9228 46.078C42.9877 46.0207 43.0525 45.9634 43.1174 45.9061C43.1853 45.8372 43.2649 45.7714 43.356 45.7087C43.6239 45.4942 43.82 45.3166 43.9443 45.1757C44.0801 45.0379 44.1959 44.8824 44.2915 44.7091C44.2851 44.546 44.2524 44.3884 44.1935 44.2362C44.1492 44.0755 44.0938 43.9801 44.0273 43.95C43.7025 43.8639 43.1602 44.1297 42.4004 44.7476C42.3209 44.8134 42.1897 44.9338 42.0067 45.1087C41.8353 45.2868 41.723 45.406 41.6698 45.4663C41.5902 45.5321 41.4568 45.7078 41.2693 45.9933C41.0965 46.2702 40.9978 46.4551 40.9732 46.5479C40.9055 46.8031 40.9471 46.9507 41.0979 46.9907C41.2139 47.0214 41.3596 47.0104 41.535 46.9576ZM47.8627 50.4236C47.6416 50.4146 47.3469 50.262 46.9786 49.9656C46.6249 49.6608 46.3985 49.4145 46.2993 49.2268C46.2628 49.1302 46.2507 49.0587 46.263 49.0123C46.2753 48.9659 46.3035 48.93 46.3475 48.9044C46.3916 48.8788 46.4426 48.8737 46.5006 48.8891C46.5702 48.9076 46.6667 48.8711 46.7903 48.7797C46.9138 48.6884 47.018 48.5298 47.1027 48.3039C47.1512 48.1678 47.2156 48.0421 47.2958 47.9268C47.3791 47.7999 47.4269 47.7133 47.4392 47.6669C47.4601 47.6352 47.4963 47.5455 47.5479 47.3978C47.6141 47.2415 47.6859 47.1116 47.763 47.0079C47.9126 46.7248 48.1351 46.3306 48.4304 45.8255C48.7405 45.3118 48.9846 44.9296 49.1628 44.6789C49.2414 44.4763 49.4478 44.1896 49.782 43.8189C50.1593 43.2858 50.7419 42.5402 51.5298 41.5822C52.3293 40.6273 52.8071 40.0898 52.9631 39.9698C53.0743 39.9248 53.1995 39.9207 53.3387 39.9577C53.5939 40.0253 53.7769 40.1546 53.8877 40.3453C53.9133 40.3894 53.9443 40.4597 53.9807 40.5562C54.0319 40.6443 54.0656 40.7277 54.0819 40.8066C54.0983 40.8854 54.0988 40.9538 54.0834 41.0118C54.0588 41.1046 53.9936 41.1866 53.8878 41.2579L53.2196 41.8814C53.0946 42.0717 52.8515 42.3797 52.4904 42.8053C51.9872 43.3919 51.5527 43.9533 51.187 44.4895C51.0566 44.6536 50.9127 44.8451 50.7553 45.064C50.6095 45.2861 50.5146 45.4099 50.4706 45.4355C50.3897 45.6002 50.2797 45.7573 50.1408 45.9067C49.9957 46.0792 49.8677 46.2811 49.7567 46.5124L50.5445 46.0696C51.1554 45.6854 51.673 45.4191 52.0971 45.2709C52.5244 45.1111 52.883 45.0697 53.173 45.1466C53.4165 45.2112 53.6587 45.3747 53.8995 45.6372C54.1402 45.8997 54.2778 46.1534 54.3121 46.3984C54.3465 46.6434 54.3206 46.9283 54.2344 47.2531C54.1452 47.5895 54.0023 47.9178 53.8056 48.2381C53.6089 48.5583 53.3781 48.8199 53.1133 49.0228C52.9419 49.2008 52.7357 49.3696 52.4948 49.5292C52.2685 49.6802 52.0719 49.7895 51.9051 49.8569C51.515 50.0639 51.2643 50.1898 51.1531 50.2348C51.0009 50.2937 50.8575 50.3426 50.7231 50.3815C50.6033 50.4118 50.4619 50.4301 50.2988 50.4365C50.0384 50.5289 49.7045 50.5707 49.2972 50.562C48.9045 50.5447 48.4263 50.4986 47.8627 50.4236ZM48.6484 49.2167C48.7876 49.2536 48.9619 49.275 49.1714 49.2809C49.3809 49.2868 49.5822 49.2533 49.7753 49.1804C50.6045 49.003 51.265 48.7126 51.7569 48.3092C52.2603 47.9089 52.5705 47.4884 52.6874 47.0476C52.7612 46.7692 52.7169 46.6085 52.5546 46.5655C52.2994 46.4978 51.7462 46.7111 50.895 47.2054C50.505 47.4123 50.0894 47.6684 49.6485 47.9735L49.3091 48.2001C49.2442 48.2574 49.15 48.3317 49.0264 48.4231C48.9029 48.5145 48.8261 48.5934 48.796 48.6599C48.6943 48.8564 48.6326 48.9952 48.6111 49.0764C48.5895 49.1576 48.602 49.2044 48.6484 49.2167ZM63.6565 54.3145C63.4825 54.2683 63.3208 54.1758 63.1714 54.0369C63.0221 53.8979 62.9198 53.7218 62.8646 53.5085L62.8238 53.3115C62.7892 52.8802 62.8211 52.479 62.9195 52.1078L63.1226 51.3423C63.1564 51.2147 63.1617 51.1478 63.1385 51.1417C63.0457 51.1171 62.5456 51.3879 61.6381 51.9542C61.0009 52.3438 60.4583 52.6344 60.0102 52.826C59.5768 53.009 59.2905 53.082 59.1513 53.0451C59.1049 53.0328 59.0055 52.963 58.853 52.8357C58.7037 52.6967 58.6119 52.5979 58.5779 52.5392C58.5182 52.4365 58.4921 52.324 58.4997 52.2019C58.5073 52.0798 58.5541 51.8563 58.6403 51.5315C58.7387 51.1604 58.9248 50.7628 59.1987 50.3388C59.4756 49.9033 59.8984 49.3388 60.4672 48.6454C60.603 48.5077 60.7481 48.3351 60.9025 48.1277C61.3292 47.5953 61.6893 47.2439 61.9828 47.0734C62.0756 47.0981 62.1379 47.1208 62.1696 47.1416C62.3173 47.1932 62.4728 47.3089 62.6362 47.4888C62.8111 47.6718 62.8941 47.8738 62.8851 48.0949C62.8328 48.2921 62.7515 48.4816 62.6412 48.6634C62.531 48.8452 62.333 49.0534 62.0473 49.288C61.8735 49.4281 61.6054 49.7605 61.2428 50.2851C61.1602 50.3625 61.0405 50.4859 60.8838 50.6554C60.7418 50.8164 60.6677 50.9085 60.6616 50.9317C60.6701 50.9463 60.7111 50.9324 60.7844 50.8898C60.8609 50.8355 60.9358 50.7871 61.0092 50.7445L61.6035 50.3994C62.7629 49.7261 63.595 49.444 64.0999 49.553C64.3551 49.6207 64.5459 49.8141 64.6723 50.1332C64.7988 50.4522 64.8127 50.7974 64.7143 51.1685C64.6958 51.2381 64.632 51.4322 64.5226 51.7508L64.2596 52.7426C64.5448 52.7437 64.7647 52.7338 64.9193 52.7127C65.237 52.6852 65.5555 52.7014 65.8748 52.7612C65.7993 52.9523 65.6199 53.184 65.3366 53.4565C65.0648 53.7321 64.7691 53.9578 64.4493 54.1337C64.1295 54.3096 63.8652 54.3698 63.6565 54.3145ZM67.7389 56.1235C67.5966 56.0982 67.4837 56.0558 67.4001 55.9964C67.3251 55.9517 67.2202 55.8556 67.0855 55.7081C66.8826 55.4432 66.7326 55.1428 66.6356 54.8066C66.5501 54.4736 66.5393 54.21 66.6032 54.0159C66.624 53.9842 66.6437 53.9335 66.6621 53.8639C66.6806 53.7943 66.6886 53.7406 66.6863 53.7027C66.687 53.6533 66.6889 53.6227 66.6919 53.6111C66.6548 53.564 66.6319 53.5331 66.6234 53.5185C66.6295 53.4953 66.6415 53.4736 66.6593 53.4535C66.6886 53.4364 66.7122 53.4179 66.7299 53.3977C66.7794 53.3984 66.8087 53.3814 66.818 53.3466C66.8272 53.3118 66.8264 53.2681 66.8155 53.2156C66.8053 53.1136 66.878 52.9094 67.0338 52.6031C67.2042 52.2882 67.3916 52.0028 67.5961 51.7466C67.7474 51.5509 67.9677 51.3051 68.2572 51.0095C68.5583 50.7169 68.8204 50.5008 69.0436 50.3614C69.4228 50.1019 69.7267 49.9156 69.9554 49.8025C70.1956 49.6924 70.4498 49.6232 70.718 49.595C70.9367 49.5662 71.1505 49.5794 71.3593 49.6348C71.6377 49.7086 71.8597 49.8544 72.0254 50.0721C72.6373 50.4331 72.9421 50.8988 72.9398 51.4692C72.9448 51.7313 72.9073 52.0131 72.8273 52.3147C72.6551 52.9642 72.2629 53.6237 71.6508 54.2932C71.3135 54.6755 70.9962 54.9824 70.6989 55.2139C70.4163 55.4369 70.0904 55.636 69.7212 55.8112C69.4662 55.9298 69.1448 56.0184 68.7568 56.0769C68.3835 56.1269 68.0442 56.1424 67.7389 56.1235ZM69.9493 53.8978C70.1585 53.7174 70.3357 53.5409 70.4808 53.3683C70.6259 53.1958 70.7778 52.9505 70.9366 52.6326C71.0384 52.4361 71.117 52.2335 71.1723 52.0247C71.2708 51.6535 71.2724 51.4367 71.1773 51.3742C71.1053 51.3179 71.0287 51.279 70.9475 51.2574C70.704 51.1928 70.4072 51.2817 70.0574 51.5242C69.7137 51.7434 69.4412 51.9753 69.2398 52.2198C69.0383 52.4643 68.7749 52.8724 68.4495 53.4441C68.3539 53.6174 68.2814 53.7968 68.2322 53.9824C68.183 54.168 68.172 54.3265 68.1992 54.4578C68.2295 54.5776 68.3027 54.6529 68.4187 54.6836C68.7435 54.7698 69.2537 54.5078 69.9493 53.8978ZM73.7352 56.9876C73.5612 56.9414 73.4211 56.7677 73.3148 56.4664C73.2115 56.1534 73.1585 55.7918 73.1556 55.3813C73.1674 54.9623 73.2326 54.5761 73.3512 54.2227C73.4619 53.8052 73.5832 53.4649 73.715 53.2019C73.8469 52.9389 73.9278 52.7741 73.9579 52.7076C73.9964 52.6558 74.0458 52.5633 74.1059 52.4303C74.1691 52.2857 74.2708 52.0892 74.4112 51.8409C74.5816 51.526 74.7405 51.3013 74.888 51.1666C75.1119 50.9777 75.3573 50.9186 75.624 50.9893C75.7632 51.0262 75.8742 51.0991 75.9571 51.208C76.0546 51.3084 76.0907 51.4297 76.0654 51.572C76.1166 51.66 76.1067 51.8374 76.036 52.1042C75.9837 52.3014 75.9155 52.4881 75.8315 52.6645C75.7475 52.8409 75.6657 52.9619 75.5862 53.0278C75.5329 53.0881 75.3915 53.4106 75.162 53.9953C74.9987 54.4238 74.8885 54.6987 74.8315 54.8202C74.8076 54.8635 74.7849 54.9258 74.7633 55.0069C74.7233 55.1577 74.7439 55.2439 74.8251 55.2654C74.9991 55.3116 75.4088 55.054 76.0543 54.4927C76.4905 54.1118 76.7812 53.8351 76.9263 53.6625C77.086 53.4814 77.2967 53.2021 77.5582 52.8245C77.7696 52.4957 77.9355 52.2914 78.056 52.2116C78.215 52.08 78.3989 52.0419 78.6077 52.0972C78.8049 52.1495 78.9736 52.2626 79.1137 52.4363C79.2415 52.6564 79.2686 52.9057 79.1947 53.1841C79.1393 53.3928 79.0229 53.5978 78.8454 53.799C78.6293 54.0521 78.4079 54.372 78.1811 54.7588C77.9544 55.1456 77.8057 55.4724 77.7349 55.7392C77.6795 55.948 77.6673 56.0875 77.6984 56.1578C77.7441 56.2196 77.8249 56.2659 77.9409 56.2966C78.0685 56.3305 78.2026 56.3164 78.3432 56.2544C78.4954 56.1954 78.7402 56.0679 79.0778 55.8719C79.3272 55.727 79.6983 55.4281 80.1908 54.9753C80.6834 54.5224 80.9435 54.2438 80.9712 54.1394C80.9896 54.0698 81.068 53.985 81.2062 53.8851C81.2857 53.8193 81.3564 53.7636 81.4182 53.7179C81.4915 53.6753 81.5881 53.6388 81.7079 53.6085C81.7836 53.6038 81.8447 53.6075 81.8911 53.6199C82.0535 53.6629 82.1816 53.7652 82.2753 53.9266C82.3094 53.9853 82.3208 54.1063 82.3094 54.2895C82.2981 54.4727 82.2724 54.6397 82.2324 54.7905C81.7489 55.6306 81.4175 56.1076 81.2384 56.2215C80.9718 56.337 80.7293 56.5024 80.5109 56.7175C80.1433 56.9801 79.8598 57.1594 79.6605 57.2555C79.4759 57.3431 79.3542 57.404 79.2955 57.4381C78.9727 57.6256 78.6231 57.7501 78.2467 57.8117C77.8704 57.8732 77.5372 57.8656 77.2472 57.7887C77.0152 57.7271 76.8435 57.6257 76.732 57.4844C76.4216 57.2035 76.3249 56.8426 76.4418 56.4019C76.4633 56.3207 76.4717 56.2422 76.467 56.1664C76.4623 56.0907 76.4572 56.0397 76.4517 56.0134C76.2777 55.9673 76.1139 56.0231 75.9603 56.181C75.7241 56.4164 75.3456 56.6263 74.8249 56.811C74.3188 56.9872 73.9556 57.046 73.7352 56.9876Z" fill="#181818"/>
<path d="M3.9662 84.7441L4.37631 83.8321L4.37631 83.8321L3.9662 84.7441ZM0.645084 82.4754C0.128755 82.6714 -0.130918 83.2489 0.0650945 83.7652L3.25929 92.1793C3.4553 92.6956 4.03277 92.9553 4.5491 92.7593C5.06543 92.5633 5.3251 91.9858 5.12909 91.4695L2.2898 83.9903L9.76901 81.151C10.2853 80.955 10.545 80.3775 10.349 79.8612C10.153 79.3449 9.57552 79.0852 9.05919 79.2812L0.645084 82.4754ZM4.37631 83.8321L1.41011 82.4983L0.589883 84.3223L3.55609 85.6562L4.37631 83.8321ZM49.6451 63.2999C43.8149 82.3774 22.5701 92.0133 4.37631 83.8321L3.55609 85.6561C22.8482 94.3313 45.3756 84.1137 51.5578 63.8844L49.6451 63.2999Z" fill="#181818"/>
</svg>
